<?xml version="1.0" encoding="UTF-8"?>
<svg width="151px" height="147px" viewBox="0 0 151 147" version="1.1" xmlns="http://www.w3.org/2000/svg" xmlns:xlink="http://www.w3.org/1999/xlink">
    <!-- Generator: Sketch 40 (33762) - http://www.bohemiancoding.com/sketch -->
    <title>Fill 55</title>
    <desc>Created with Sketch.</desc>
    <defs></defs>
    <g id="Page-1" stroke="none" stroke-width="1" fill="none" fill-rule="evenodd">
        <path d="M15.7038922,12.6270094 C17.0348922,12.8870094 18.2598922,13.6340094 19.1898922,14.6070094 C21.2118922,16.7240094 22.0798922,20.3250094 20.9018922,23.0530094 C17.8528922,30.1140094 7.77589216,27.8500094 4.32489216,22.6700094 C0.399892162,16.7790094 2.07089216,8.52500941 8.00989216,4.65200941 C13.2578922,1.23000941 21.5488922,3.42400941 26.2038922,6.92300941 C34.2998922,13.0100094 36.2288922,24.0560094 34.7418922,33.8220094 C32.9298922,45.7280094 24.6358922,56.0390094 19.4878922,66.6840094 C10.5738922,85.1140094 6.84789216,108.275009 16.7978922,127.191009 C25.4768922,143.690009 48.7358922,153.782009 64.7748922,141.285009 C72.6318922,135.163009 75.6968922,125.343009 77.2698922,115.871009 C78.4618922,108.697009 78.7798922,93.8730094 67.4208922,95.1370094 C58.3348922,96.1470094 59.2468922,109.039009 61.0198922,115.188009 C63.8538922,125.019009 71.5248922,132.719009 81.3288922,135.602009 C90.0788922,138.175009 101.271892,136.917009 107.350892,129.455009 C109.946892,126.268009 111.493892,122.001009 110.973892,117.874009 C110.585892,114.799009 108.435892,109.997009 104.684892,110.093009 C97.3828922,110.281009 100.877892,123.284009 102.436892,126.760009 C106.022892,134.760009 113.137892,140.954009 121.451892,143.660009 C129.987892,146.439009 141.249892,145.331009 146.962892,137.675009 C151.651892,131.391009 152.349892,121.017009 146.720892,115.035009 C142.063892,110.085009 133.268892,110.699009 130.162892,117.111009 C128.813892,119.895009 129.002892,123.561009 131.422892,125.717009 C133.487892,127.557009 136.505892,127.594009 138.304892,125.384009 C140.135892,123.134009 139.587892,118.675009 135.623892,119.667009 C133.635892,120.164009 134.620892,123.299009 133.092892,123.197009 C132.427892,123.153009 131.991892,122.644009 131.701892,121.832009 C130.955892,119.743009 131.959892,117.804009 133.190892,116.508009 C134.661892,114.958009 137.158892,114.331009 139.229892,114.505009 C143.869892,114.896009 146.889892,119.240009 147.846892,123.449009 C149.132892,129.103009 147.269892,135.704009 142.363892,139.072009 C137.969892,142.088009 132.031892,142.707009 126.884892,141.892009 C118.186892,140.515009 110.284892,134.928009 105.905892,127.313009 C104.457892,124.794009 100.936892,117.471009 102.886892,114.465009 C105.730892,110.081009 108.795892,116.569009 108.588892,119.479009 C108.346892,122.882009 107.404892,126.321009 105.054892,128.736009 C97.5148922,136.485009 83.7998922,134.840009 75.3968922,129.619009 C66.9428922,124.368009 60.2168922,112.722009 62.6288922,102.542009 C63.6848922,98.0810094 67.7248922,96.8870094 71.3328922,99.1870094 C74.1808922,101.002009 75.3568922,104.119009 75.5988922,107.376009 C76.0118922,112.920009 74.6328922,119.067009 73.0488922,124.364009 C70.0298922,134.460009 63.0508922,142.585009 52.1208922,144.064009 C43.2768922,145.262009 33.1638922,140.939009 26.6448922,135.148009 C19.3378922,128.656009 15.5578922,119.344009 14.1628922,109.837009 C12.6758922,99.7040094 13.7888922,89.6450094 16.9648922,79.8940094 C23.1968922,60.7650094 38.3748922,45.1690094 38.8538922,27.3360094 C39.1088922,17.8110094 35.9698922,10.7220094 30.6498922,5.93400941 C24.3888922,0.296009409 17.9418922,-1.21799059 10.9078922,0.940009409 C4.72589216,2.83600941 0.280892162,9.07000941 0.0128921621,15.4580094 C-0.323107838,23.4750094 5.94589216,31.2610094 14.4528922,29.7330094 C20.7488922,28.6010094 25.0178922,22.4440094 22.7828922,16.2320094 C20.8108922,10.7500094 11.3038922,7.64000941 8.94489216,14.2610094 C6.33689216,21.5800094 18.1698922,22.7740094 16.4018922,16.9200094 C15.9748922,15.5060094 13.5528922,12.2070094 15.7038922,12.6270094" id="Fill-55" fill="#211914"></path>
    </g>
</svg>