<?xml version="1.0" encoding="UTF-8"?>
<svg width="151px" height="147px" viewBox="0 0 151 147" version="1.1" xmlns="http://www.w3.org/2000/svg" xmlns:xlink="http://www.w3.org/1999/xlink">
    <!-- Generator: Sketch 40 (33762) - http://www.bohemiancoding.com/sketch -->
    <title>Fill 54</title>
    <desc>Created with Sketch.</desc>
    <defs></defs>
    <g id="Page-1" stroke="none" stroke-width="1" fill="none" fill-rule="evenodd">
        <path d="M135.009136,134.250446 C133.678136,133.990446 132.453136,133.243446 131.523136,132.270446 C129.501136,130.153446 128.633136,126.552446 129.811136,123.824446 C132.860136,116.762446 142.937136,119.027446 146.388136,124.206446 C150.313136,130.098446 148.642136,138.352446 142.703136,142.225446 C137.455136,145.647446 129.164136,143.453446 124.509136,139.954446 C116.413136,133.866446 114.484136,122.821446 115.971136,113.055446 C117.783136,101.149446 126.077136,90.8384464 131.225136,80.1924464 C140.139136,61.7634464 143.865136,38.6014464 133.915136,19.6854464 C125.236136,3.18744636 101.977136,-6.90555364 85.9381362,5.59244636 C78.0811362,11.7144464 75.0161362,21.5344464 73.4431362,31.0054464 C72.2511362,38.1804464 71.9331362,53.0034464 83.2921362,51.7404464 C92.3781362,50.7294464 91.4661362,37.8374464 89.6931362,31.6884464 C86.8591362,21.8584464 79.1881362,14.1574464 69.3841362,11.2744464 C60.6341362,8.70244636 49.4411362,9.95944636 43.3621362,17.4214464 C40.7661362,20.6094464 39.2191362,24.8754464 39.7391362,29.0034464 C40.1271362,32.0774464 42.2771362,36.8804464 46.0281362,36.7834464 C53.3301362,36.5954464 49.8351362,23.5934464 48.2761362,20.1164464 C44.6901362,12.1164464 37.5751362,5.92344636 29.2611362,3.21744636 C20.7251362,0.43844636 9.46313618,1.54544636 3.75013618,9.20144636 C-0.938863819,15.4864464 -1.63686382,25.8604464 3.99213618,31.8424464 C8.64913618,36.7914464 17.4441362,36.1784464 20.5501362,29.7654464 C21.8991362,26.9814464 21.7101362,23.3164464 19.2901362,21.1604464 C17.2251362,19.3204464 14.2071362,19.2824464 12.4081362,21.4924464 C10.5771362,23.7434464 11.1251362,28.2024464 15.0891362,27.2104464 C17.0771362,26.7124464 16.0921362,23.5784464 17.6201362,23.6794464 C18.2851362,23.7244464 18.7211362,24.2334464 19.0111362,25.0444464 C19.7571362,27.1344464 18.7531362,29.0734464 17.5221362,30.3694464 C16.0511362,31.9194464 13.5541362,32.5464464 11.4831362,32.3714464 C6.84313618,31.9804464 3.82313618,27.6374464 2.86613618,23.4274464 C1.58013618,17.7744464 3.44313618,11.1734464 8.34913618,7.80544636 C12.7431362,4.78944636 18.6811362,4.17044636 23.8281362,4.98444636 C32.5261362,6.36244636 40.4281362,11.9484464 44.8071362,19.5644464 C46.2551362,22.0834464 49.7761362,29.4064464 47.8261362,32.4124464 C44.9821362,36.7954464 41.9171362,30.3074464 42.1241362,27.3984464 C42.3661362,23.9954464 43.3081362,20.5564464 45.6581362,18.1414464 C53.1981362,10.3924464 66.9131362,12.0374464 75.3161362,17.2574464 C83.7701362,22.5094464 90.4961362,34.1554464 88.0851362,44.3354464 C87.0281362,48.7964464 82.9881362,49.9894464 79.3801362,47.6894464 C76.5321362,45.8754464 75.3561362,42.7584464 75.1141362,39.5014464 C74.7011362,33.9564464 76.0801362,27.8104464 77.6641362,22.5134464 C80.6831362,12.4164464 87.6621362,4.29244636 98.5921362,2.81244636 C107.436136,1.61544636 117.549136,5.93844636 124.068136,11.7294464 C131.375136,18.2214464 135.155136,27.5334464 136.550136,37.0404464 C138.037136,47.1734464 136.924136,57.2314464 133.748136,66.9824464 C127.516136,86.1124464 112.338136,101.708446 111.859136,119.541446 C111.604136,129.066446 114.744136,136.155446 120.063136,140.943446 C126.324136,146.580446 132.771136,148.095446 139.805136,145.937446 C145.987136,144.040446 150.432136,137.807446 150.700136,131.418446 C151.036136,123.401446 144.767136,115.615446 136.260136,117.144446 C129.964136,118.275446 125.695136,124.432446 127.930136,130.645446 C129.902136,136.126446 139.409136,139.237446 141.768136,132.616446 C144.376136,125.297446 132.543136,124.103446 134.311136,129.957446 C134.738136,131.371446 137.160136,134.670446 135.009136,134.250446" id="Fill-54" fill="#211914"></path>
    </g>
</svg>