<?xml version="1.0" encoding="UTF-8"?>
<svg width="352px" height="20px" viewBox="0 0 352 20" version="1.1" xmlns="http://www.w3.org/2000/svg" xmlns:xlink="http://www.w3.org/1999/xlink">
    <!-- Generator: Sketch 40 (33762) - http://www.bohemiancoding.com/sketch -->
    <title>Group 4</title>
    <desc>Created with Sketch.</desc>
    <defs></defs>
    <g id="Page-1" stroke="none" stroke-width="1" fill="none" fill-rule="evenodd">
        <g id="Group-4" transform="translate(176.000000, 10.000000) rotate(-90.000000) translate(-176.000000, -10.000000) translate(166.000000, -166.000000)" fill="#888888">
            <path d="M11.09,343.806 C11.839,324.672 11.409,305.445 11.425,286.301 C11.445,261.323 11.467,236.345 11.472,211.367 C11.474,202.489 11.597,193.605 11.258,184.732 C11.234,184.105 9.972,183.474 9.938,184.324 C9.189,203.469 9.722,222.714 9.737,241.87 C9.757,266.862 9.766,291.855 9.826,316.847 C9.847,325.728 9.767,334.626 10.106,343.502 C10.124,343.97 11.066,344.44 11.09,343.806" id="Fill-126"></path>
            <path d="M10.056,316.309 C7.106,317.514 4.439,319.992 2.957,322.812 C2.216,324.221 1.307,326.499 2.275,328.015 C5.391,332.898 11.408,321.573 11.535,319.235 C11.561,318.745 10.515,317.873 10.167,318.484 C9.094,320.373 8.569,322.421 7.267,324.224 C6.556,325.208 2.903,329.094 3.775,325.579 C4.742,321.684 7.963,319.518 10.844,317.098 C11.258,316.751 10.414,316.163 10.056,316.309" id="Fill-127"></path>
            <path d="M9.764,316.589 C10.428,319.901 12.038,323.237 13.973,325.994 C14.915,327.337 17.603,329.724 19.135,327.669 C20.615,325.682 18.038,322.395 16.849,321.026 C15.144,319.065 12.976,316.798 10.329,316.302 C9.57,316.16 9.916,317.203 10.327,317.405 C11.808,318.134 13.13,319.298 14.319,320.428 C15.393,321.448 18.095,323.945 17.692,325.632 C17.125,328.01 14.967,325.078 14.606,324.514 C14.097,323.716 13.605,322.909 13.155,322.076 C12.189,320.288 11.453,318.414 10.668,316.544 C10.498,316.139 9.639,315.967 9.764,316.589" id="Fill-128"></path>
            <path d="M10.129,328.948 C7.418,330.186 5.088,333.089 4.071,335.863 C3.504,337.412 2.48,340.816 4.534,341.826 C8.325,343.691 11.402,332.221 11.256,330.198 C11.215,329.633 10.275,328.938 9.918,329.63 C9.043,331.321 8.76,333.447 8.094,335.253 C7.709,336.297 6.751,339.556 5.576,339.94 C4.061,340.435 6.217,334.962 6.632,334.283 C7.745,332.459 9.434,331.182 10.661,329.481 C10.867,329.195 10.4,328.825 10.129,328.948" id="Fill-129"></path>
            <path d="M9.29,329.727 C9.962,331.71 10.784,333.635 11.742,335.497 C12.617,337.197 13.522,339.274 14.966,340.581 C16.673,342.127 19.914,342.066 19.634,339.121 C19.412,336.774 17.034,334.676 15.531,333.071 C13.965,331.399 12.187,329.419 9.789,329.101 C9.025,329 9.387,329.98 9.787,330.19 C12.631,331.689 14.834,334.163 16.82,336.647 C17.337,337.293 18.393,338.614 17.885,339.461 C17.381,339.621 16.877,339.781 16.374,339.941 C15.92,339.728 15.572,339.41 15.328,338.987 C14.889,338.468 14.561,337.842 14.212,337.26 C12.746,334.818 11.511,332.263 10.33,329.674 C10.128,329.231 9.055,329.032 9.29,329.727" id="Fill-130"></path>
            <path d="M10.209,343.659 C9.011,345.006 8.077,346.404 6.687,347.597 C6.248,347.973 6.974,348.712 7.332,348.792 C8.929,349.148 10.259,349.965 11.144,351.363 C11.369,351.718 12.42,352.427 12.617,351.652 C13.019,350.072 13.798,348.769 14.991,347.659 C15.395,347.283 14.805,346.608 14.496,346.441 C13.127,345.703 11.996,344.669 10.873,343.606 C10.489,343.243 9.739,343.478 10.066,344.061 C10.993,345.713 12.42,346.827 14.077,347.711 C13.912,347.305 13.747,346.899 13.581,346.493 C12.32,347.684 11.484,349.125 11.068,350.808 C11.559,350.905 12.05,351.001 12.541,351.097 C11.277,349.123 9.455,347.855 7.142,347.431 C7.42,347.842 7.698,348.252 7.976,348.663 C9.257,347.426 10.603,345.983 10.989,344.188 C11.065,343.836 10.509,343.322 10.209,343.659" id="Fill-131"></path>
            <path d="M8.981,8.879 C8.233,28.013 8.662,47.24 8.647,66.384 C8.627,91.362 8.605,116.34 8.599,141.319 C8.597,150.196 8.474,159.08 8.813,167.953 C8.837,168.58 10.1,169.211 10.133,168.361 C10.882,149.216 10.35,129.971 10.335,110.815 C10.315,85.823 10.306,60.83 10.246,35.838 C10.225,26.957 10.304,18.059 9.965,9.183 C9.948,8.716 9.006,8.245 8.981,8.879" id="Fill-132"></path>
            <path d="M9.538,35.64 C6.668,33.443 3.4,31.177 2.596,27.387 C2.384,26.39 2.069,24.951 3.709,25.546 C4.647,25.886 5.469,27.104 6.048,27.871 C7.433,29.708 8.032,31.778 9.037,33.798 C9.244,34.215 10.463,34.753 10.41,33.903 C10.217,30.796 7.862,27.307 5.614,25.255 C4.568,24.3 2.195,22.666 1.068,24.36 C0.04,25.906 1.354,28.652 2.158,30.037 C3.724,32.735 6.31,35.063 9.154,36.339 C9.713,36.59 10.02,36.009 9.538,35.64" id="Fill-133"></path>
            <path d="M9.59,36.318 C10.546,34.193 11.398,32.059 12.583,30.043 C12.956,29.409 15.891,24.576 16.567,26.51 C17.103,28.043 14.312,30.751 13.376,31.683 C12.057,32.997 10.557,34.334 8.917,35.233 C8.267,35.589 9.196,36.457 9.683,36.375 C12.354,35.929 14.682,33.439 16.297,31.411 C17.509,29.889 19.367,27.052 17.769,25.155 C13.699,20.323 9.032,33.702 8.639,35.8 C8.553,36.256 9.344,36.865 9.59,36.318" id="Fill-134"></path>
            <path d="M9.486,23.312 C8.103,21.672 6.448,20.375 5.339,18.494 C4.988,17.899 2.63,11.993 4.747,12.67 C5.767,12.996 6.774,16.383 7.089,17.25 C7.749,19.072 8.082,21.042 8.857,22.81 C9.061,23.275 10.068,23.651 10.131,22.907 C10.308,20.838 7.06,9.283 3.219,10.74 C1.153,11.524 2.667,15.757 3.206,17.024 C4.34,19.686 6.587,22.342 9.155,23.712 C9.464,23.877 9.718,23.588 9.486,23.312" id="Fill-135"></path>
            <path d="M9.259,23.215 C10.552,20.481 11.873,17.765 13.484,15.2 C13.823,14.659 14.182,14.016 14.624,13.545 C14.892,13.324 15.16,13.102 15.428,12.88 C16.014,12.45 16.341,12.589 16.41,13.297 C16.941,14.257 16.162,15.021 15.568,15.764 C13.498,18.351 11.222,20.729 8.381,22.448 C7.741,22.836 8.662,23.631 9.137,23.576 C11.483,23.305 13.194,21.334 14.707,19.703 C16.187,18.107 18.75,15.872 18.523,13.449 C18.295,11.024 15.494,10.424 13.767,11.818 C12.541,12.808 11.822,14.529 11.085,15.893 C9.92,18.05 8.926,20.288 8.165,22.619 C7.99,23.156 8.977,23.81 9.259,23.215" id="Fill-136"></path>
            <path d="M9.864,8.753 C9.397,6.88 7.94,5.388 6.583,4.1 C6.58,4.482 6.576,4.864 6.573,5.246 C8.607,4.878 10.293,3.768 11.41,2.027 C10.92,1.817 10.431,1.606 9.942,1.396 C10.404,3.259 11.357,4.795 12.75,6.107 C12.697,5.71 12.644,5.312 12.591,4.915 C11.002,5.761 9.697,6.786 8.885,8.413 C8.623,8.939 9.563,9.472 9.958,9.14 C11.168,8.123 12.333,7.059 13.731,6.304 C14.246,6.026 13.855,5.375 13.573,5.112 C12.51,4.12 11.849,2.918 11.493,1.514 C11.38,1.071 10.406,0.28 10.025,0.882 C9.039,2.443 7.644,3.457 5.84,3.865 C5.213,4.007 5.499,4.722 5.83,5.01 C7.176,6.185 8.075,7.49 9.147,8.891 C9.345,9.15 9.987,9.242 9.864,8.753" id="Fill-137"></path>
            <path d="M3.497,176.963 C5.425,177.308 8.976,179.111 9.77,181.204 C9.931,181.628 10.981,182.474 11.233,181.658 C11.601,180.471 11.951,179.023 12.729,178.03 C13.617,176.896 14.819,176.736 16.092,176.351 C16.931,176.098 16.142,175.057 15.561,175.024 C11.852,174.813 10.596,177.774 9.77,180.861 C10.234,180.952 10.697,181.043 11.161,181.134 C10.013,178.373 6.125,176.217 3.237,176.004 C2.503,175.95 3.026,176.879 3.497,176.963" id="Fill-138"></path>
            <path d="M15.909,175.167 C14.644,174.802 13.571,174.22 12.579,173.351 C11.721,172.601 11.142,171.447 10.229,170.804 C9.841,170.531 9.191,170.508 9.294,171.145 C9.499,172.403 11.207,173.731 12.17,174.446 C13.28,175.27 14.601,176.024 16.023,175.989 C16.612,175.974 16.29,175.277 15.909,175.167" id="Fill-139"></path>
            <path d="M9.509,170.861 C8.524,172.119 7.653,173.379 6.309,174.293 C5.71,174.7 5.068,175.027 4.386,175.268 C3.76,175.488 3.277,175.48 2.991,176.104 C2.871,176.366 3.171,176.742 3.389,176.837 C4.774,177.437 6.443,176.37 7.537,175.517 C8.857,174.487 9.925,173.065 10.356,171.436 C10.456,171.061 9.807,170.48 9.509,170.861" id="Fill-140"></path>
        </g>
    </g>
</svg>