<?xml version="1.0" standalone="no"?>
<!DOCTYPE svg PUBLIC "-//W3C//DTD SVG 1.1//EN" "http://www.w3.org/Graphics/SVG/1.1/DTD/svg11.dtd" >
<svg xmlns="http://www.w3.org/2000/svg" xmlns:xlink="http://www.w3.org/1999/xlink" version="1.1">
<metadata></metadata>
<defs>
<font id="cormorantlight" horiz-adv-x="976" >
<font-face units-per-em="2048" ascent="1638" descent="-410" />
<missing-glyph horiz-adv-x="479" />
<glyph horiz-adv-x="0" />
<glyph horiz-adv-x="682" />
<glyph unicode=" "  horiz-adv-x="479" />
<glyph unicode="&#x09;" horiz-adv-x="479" />
<glyph unicode="&#xa0;" horiz-adv-x="479" />
<glyph unicode="!" horiz-adv-x="497" d="M168 1272q0 6 25.5 11t56.5 5q63 0 78 -12l2 -4q-47 -269 -74 -885q0 -5 -10 -5t-10 5q-22 612 -68 885zM242 -23q-37 0 -59.5 21.5t-22.5 58.5q0 35 22.5 55.5t59.5 20.5q38 0 59 -20t21 -56q0 -37 -21 -58.5t-59 -21.5z" />
<glyph unicode="&#x22;" horiz-adv-x="569" d="M113 748l-17 499q-1 27 65 51q57 21 73 12q3 -2 2 -5l-103 -555q-1 -3 -6 -5t-9.5 -1.5t-4.5 4.5zM399 748l-16 499q-1 26 63 51q58 21 74 12q3 -2 2 -5l-102 -555q-1 -3 -6 -5t-10 -1.5t-5 4.5z" />
<glyph unicode="#" horiz-adv-x="1077" d="M948 641q9 0 9 -38t-9 -38h-153l-60 -329h142q9 0 9 -39t-9 -39h-156l-55 -318q0 -6 -17.5 -6t-34.5 3.5t-16 8.5l55 312h-315l-55 -318q0 -6 -17.5 -6t-34.5 3.5t-16 8.5l55 312h-141q-6 0 -8 19.5t-0.5 39t6.5 19.5h158l57 329h-141q-6 0 -8 19t-0.5 38t6.5 19h157 l62 346q2 5 17 5t32 -5.5t16 -11.5l-59 -334h315l62 346q0 10 38 2q30 -6 27 -14l-59 -334h141zM668 236l57 329h-313l-60 -329h316z" />
<glyph unicode="$" horiz-adv-x="835" d="M737 246q0 -105 -74.5 -179.5t-207.5 -89.5v-186q0 -13 -20.5 -13t-20.5 13v184h-15q-129 0 -229 70q-15 8 -18 39l-25 195q-1 6 5 8.5t12.5 1.5t7.5 -6q20 -109 93.5 -187t168.5 -90v445l-19 10q-48 25 -74.5 40.5t-63.5 43t-56.5 52.5t-34 61.5t-14.5 78.5 q0 108 75 172t187 72v168q0 15 20.5 15t20.5 -15v-166q85 0 184 -47q19 -9 24.5 -14.5t6.5 -18.5l18 -174q0 -9 -11 -10.5t-13 6.5q-13 77 -71 143.5t-138 83.5v-409l30 -17q35 -18 53.5 -28t49.5 -28.5t48.5 -33t39.5 -37t33.5 -44t19.5 -50t8 -59.5zM244 786 q0 -75 44.5 -125.5t125.5 -95.5v391h-2q-78 0 -123 -47.5t-45 -122.5zM455 4q74 2 128 45.5t54 134.5q0 81 -48 137t-134 107v-424z" />
<glyph unicode="%" horiz-adv-x="1175" d="M307 621q-107 0 -177.5 76.5t-70.5 189.5q0 108 71 184t177 76t174 -77t68 -189q0 -110 -68.5 -185t-173.5 -75zM215 -10q-2 -3 -14 1t-22.5 10.5t-8.5 10.5l760 1114q3 4 15 -0.5t22 -12t8 -11.5zM322 641q38 0 62 16t36 49t16 69.5t4 90.5q0 260 -145 260 q-38 0 -64 -18t-39.5 -52t-18.5 -72.5t-5 -90.5q0 -252 154 -252zM874 -10q-106 0 -176.5 77.5t-70.5 188.5q0 109 70.5 185.5t176.5 76.5q105 0 173.5 -77.5t68.5 -188.5t-68.5 -186.5t-173.5 -75.5zM889 12q30 0 52 11.5t35 30.5t20 49.5t9.5 61t2.5 73.5q0 258 -146 258 q-38 0 -63.5 -17.5t-39 -51.5t-19 -72.5t-5.5 -90.5q0 -252 154 -252z" />
<glyph unicode="&#x26;" horiz-adv-x="1417" d="M1413 25q6 -1 7.5 -7t-1 -12t-6.5 -6h-192q-102 0 -303 160q-168 -185 -418 -185q-93 0 -165.5 26t-116 70t-65.5 98.5t-22 115.5q0 52 16.5 101t41 86.5t65.5 78t76 68.5t86 65q-41 62 -60 104q-57 129 -57 224q0 128 92 219.5t234 91.5q40 0 76.5 -8.5t73.5 -29.5 t59 -63t22 -102q0 -28 -5.5 -54.5t-13.5 -48t-24.5 -46t-28.5 -41t-37 -39.5t-40 -36t-46.5 -35.5t-46.5 -33t-50.5 -34.5t-49.5 -33q151 -238 442 -459q88 144 88 303q0 64 -27 95.5t-114 31.5q-6 0 -6.5 12.5t6.5 12.5l414 2q7 0 7 -12.5t-7 -12.5q-54 0 -87.5 -6.5 t-52.5 -23.5t-27 -33.5t-17 -48.5q-56 -197 -150 -338q252 -185 430 -217zM397 1075q0 -151 103 -332q59 42 99 75t80 77t59.5 92.5t19.5 102.5q0 93 -49.5 143.5t-135.5 50.5q-84 0 -130 -51.5t-46 -157.5zM575 27q185 0 320 151q-7 7 -23 19q-273 216 -440 462 q-90 -68 -140 -142.5t-50 -172.5q0 -134 95.5 -225.5t237.5 -91.5z" />
<glyph unicode="'" horiz-adv-x="282" d="M113 748l-17 499q-1 27 65 51q57 21 73 12q3 -2 2 -5l-103 -555q-1 -3 -6 -5t-9.5 -1.5t-4.5 4.5z" />
<glyph unicode="(" horiz-adv-x="632" d="M143 623q0 291 110.5 522t307.5 340q3 2 7.5 -3t0.5 -9q-305 -279 -305 -850t305 -850q4 -3 -0.5 -9t-7.5 -4q-198 111 -308 342t-110 521z" />
<glyph unicode=")" horiz-adv-x="632" d="M489 623q0 -291 -110 -522.5t-307 -340.5q-3 -2 -8 3.5t-1 9.5q306 280 306 850t-306 850q-3 2 -1.5 5t5 5.5t5.5 1.5q197 -111 307 -341.5t110 -520.5z" />
<glyph unicode="*" horiz-adv-x="917" d="M463 1083l18 263q1 27 71 51q58 20 68 10q2 -1 1 -4l-138 -320q-1 -6 -10.5 -6t-9.5 6zM418 1047l-246 98q-28 11 -27 93q1 58 12 59q2 0 3 -1l264 -231q4 -3 3.5 -7t-3.5 -8t-6 -3zM862 999l-348 31q-4 0 -6.5 10t0.5 11l258 63q26 7 70 -52q35 -47 30 -61q-1 -2 -4 -2z M268 793q-18 -23 -93 1q-52 17 -54 30q0 2 2 3l299 179q4 4 11.5 -2t4.5 -11zM555 645l-78 340q-1 3 3 7t8.5 6.5t5.5 0.5l141 -225q14 -25 -32 -88q-32 -45 -45 -44q-2 0 -3 3z" />
<glyph unicode="+" horiz-adv-x="815" d="M745 426q9 0 9 -38t-9 -38h-299v-299q0 -6 -19 -8.5t-38.5 -1t-19.5 5.5v303h-299q-6 0 -8 19t-0.5 38t6.5 19h301v299q0 9 38.5 9t38.5 -9v-299h299z" />
<glyph unicode="," horiz-adv-x="454" d="M209 127q60 0 93.5 -44t33.5 -130q0 -163 -141 -320q-7 -6 -14.5 1.5t-2.5 13.5q43 63 57.5 118t14.5 123q0 54 -21 101q-15 -6 -30 -6q-35 0 -54.5 19t-19.5 52q0 72 84 72z" />
<glyph unicode="-" horiz-adv-x="661" d="M66 344q-6 -1 -8.5 18.5t-1.5 40t5 21.5l535 96q6 1 8 -18.5t0 -40t-8 -21.5z" />
<glyph unicode="." horiz-adv-x="399" d="M201 -23q-37 0 -59.5 21.5t-22.5 58.5q0 35 22.5 55.5t59.5 20.5q38 0 59 -20t21 -56q0 -37 -21 -58.5t-59 -21.5z" />
<glyph unicode="/" horiz-adv-x="694" d="M127 -334q-3 -7 -39.5 4t-34.5 19l516 1806q2 3 10 3t19.5 -3t21.5 -7.5t16.5 -9.5t4.5 -8z" />
<glyph unicode="0" d="M492 -27q-182 0 -299 120.5t-117 307.5q0 183 117.5 299.5t300.5 116.5q180 0 293.5 -118.5t113.5 -303.5t-114.5 -303.5t-294.5 -118.5zM514 -2q131 0 197.5 101t66.5 272q0 206 -87.5 314t-219.5 108q-129 0 -201.5 -104.5t-72.5 -270.5q0 -183 86.5 -301.5 t230.5 -118.5z" />
<glyph unicode="1" horiz-adv-x="679" d="M119 0q-5 0 -5 12.5t5 12.5q130 0 168.5 26t38.5 115v385q0 46 -2 72.5t-10.5 46t-20 25t-37.5 1.5t-56 -16t-81 -35q-5 -3 -10 2t-5 10.5t5 8.5l292 143q7 4 14 -1.5t7 -12.5v-629q0 -63 15 -91t56.5 -39t133.5 -11q6 0 6 -12.5t-6 -12.5q-30 0 -115.5 2t-138.5 2 q-50 0 -136 -2t-118 -2z" />
<glyph unicode="2" horiz-adv-x="823" d="M76 25q269 209 373 331t104 234q0 86 -53 136t-135 50q-83 0 -144 -62.5t-94 -185.5q-2 -3 -8 -3t-12 3t-5 7l78 301q2 8 17 2q8 -4 6 -7q-12 -53 28 -53q14 0 83 19.5t124 19.5q103 0 163.5 -56.5t60.5 -148.5q0 -101 -96.5 -212.5t-344.5 -301.5q-7 -6 -4 -10t12 -4 q330 0 407.5 20t100.5 121q1 4 13 3.5t12 -5.5l-29 -200q0 -8 -5.5 -15.5t-12.5 -7.5h-625q-8 0 -14 9t0 16z" />
<glyph unicode="3" horiz-adv-x="794" d="M432 266q133 -10 204 -91t71 -191q0 -75 -35.5 -153t-104.5 -152.5t-183.5 -138.5t-260.5 -103q-8 -2 -13 11q-2 9 3 11q106 31 189.5 78t134.5 98t84.5 110t46 111.5t12.5 104.5q0 50 -12 95t-38 83.5t-72.5 61t-109.5 22.5q-57 0 -104 -12q-4 -1 -7.5 4.5t-3.5 12 t5 8.5q164 42 230.5 115t66.5 198q0 105 -48 166t-145 61q-91 0 -152 -59.5t-96 -188.5q-3 -3 -8.5 -3t-11 3t-4.5 7l75 299q3 4 9 4t11.5 -3t4.5 -6q-8 -31 2.5 -44t28.5 -13q13 0 83 22.5t126 22.5q111 0 174 -68t63 -165q0 -99 -58 -187t-157 -131z" />
<glyph unicode="4" horiz-adv-x="921" d="M844 88q9 0 9 -43t-9 -43q-66 4 -182 8v-334q0 -21 -17 -28l-65 -33q-10 -6 -14.5 -3.5t-4.5 15.5v385q-129 4 -504 4q-10 0 -15.5 8t1.5 17l588 770q5 6 18 3.5t13 -11.5v-719q50 0 182 4zM152 76q183 0 409 4v559l-420 -549q-6 -6 -2 -10t13 -4z" />
<glyph unicode="5" horiz-adv-x="837" d="M244 686q-28 0 -31 -31l-45 -254q144 -1 250.5 -29t170.5 -80t95 -120t31 -154q0 -171 -133.5 -304t-442.5 -277q-8 -3 -13.5 7.5t1.5 14.5q260 125 365.5 252.5t105.5 272.5q0 169 -118.5 263.5t-340.5 94.5q-10 0 -16 8t-4 17l65 364q2 14 6 18t21 5q372 43 433 60 q46 12 57 36l6 16q1 4 7 5t11 -1.5t4 -7.5l-41 -131q-7 -25 -18.5 -31t-38.5 -6z" />
<glyph unicode="6" horiz-adv-x="952" d="M606 578q72 0 126 -21.5t84.5 -58t45.5 -80t15 -92.5q0 -146 -119.5 -249.5t-286.5 -103.5q-172 0 -271.5 119t-99.5 334q0 191 84 372.5t249 330t386 225.5q7 1 11.5 -8.5t-1.5 -14.5q-150 -66 -269.5 -167.5t-194 -217.5t-113.5 -239.5t-39 -243.5q0 -127 36 -228.5 t108.5 -163t170.5 -61.5q106 0 171 70.5t65 191.5q0 112 -55 183t-162 71q-58 0 -107.5 -24t-111.5 -80q-4 -3 -9.5 -1.5t-10 6.5t-1.5 9q114 142 299 142z" />
<glyph unicode="7" horiz-adv-x="878" d="M326 -451q-3 -8 -6 -14t-9 -11.5t-7.5 -7.5t-10.5 -8.5t-10 -7.5l-86 -63q-3 -2 -9.5 4t-5.5 10l549 1241q6 15 -10 15q-118 0 -194 -0.5t-146.5 -4t-109.5 -6.5t-75.5 -12t-52.5 -16.5t-31 -25t-21.5 -32.5t-14.5 -43q-1 -4 -7 -4.5t-11.5 2.5t-4.5 8l66 273 q2 3 8.5 3.5t11.5 -1t4 -4.5q-7 -35 10.5 -44t86.5 -9h542q9 0 15.5 -9.5t3.5 -17.5z" />
<glyph unicode="8" horiz-adv-x="1001" d="M602 700q58 -30 96 -51.5t85.5 -57.5t74.5 -70.5t46.5 -84.5t19.5 -106q0 -152 -125.5 -254.5t-302.5 -102.5q-175 0 -285.5 98.5t-110.5 233.5q0 124 84.5 232.5t204.5 171.5q-85 48 -130.5 100.5t-45.5 124.5q0 77 52.5 134.5t123 82.5t143.5 25q117 0 191 -66.5 t74 -148.5q0 -66 -50.5 -133.5t-144.5 -127.5zM309 989q0 -28 8.5 -54t20 -46t35.5 -42t41.5 -36t52.5 -34.5t55 -31.5t60 -32q58 50 85 101t27 114q0 97 -59 157t-152 60q-75 0 -124.5 -41.5t-49.5 -114.5zM553 8q118 0 194 70t76 192q0 44 -11 84t-26.5 70.5t-44.5 61 t-53 50.5t-65 44.5t-67 38t-71 36.5q-9 5 -71 39q-96 -56 -147.5 -142.5t-51.5 -193.5q0 -140 96 -245t242 -105z" />
<glyph unicode="9" horiz-adv-x="952" d="M369 225q-61 0 -111.5 17t-83.5 44.5t-55.5 64t-32.5 74t-10 75.5q0 138 107 227.5t263 89.5q185 0 295.5 -132.5t110.5 -348.5q0 -139 -49 -277t-139 -258.5t-227.5 -216.5t-303.5 -147q-6 -2 -10.5 8t2.5 14q149 59 269 156.5t193.5 211t112.5 233.5t39 235 q0 62 -10.5 126t-35.5 129.5t-61 116t-93 82t-127 31.5q-102 0 -163 -64t-61 -179q0 -111 62 -186t176 -75q57 0 100 18t99 62q6 6 15.5 -1t6.5 -13q-105 -117 -278 -117z" />
<glyph unicode=":" horiz-adv-x="399" d="M201 553q-37 0 -59.5 21.5t-22.5 58.5q0 35 22.5 55.5t59.5 20.5q38 0 59 -20t21 -56q0 -37 -21 -58.5t-59 -21.5zM201 -23q-37 0 -59.5 21.5t-22.5 58.5q0 35 22.5 55.5t59.5 20.5q38 0 59 -20t21 -56q0 -37 -21 -58.5t-59 -21.5z" />
<glyph unicode=";" horiz-adv-x="454" d="M205 553q-37 0 -59.5 21.5t-22.5 58.5q0 35 22.5 55.5t59.5 20.5q38 0 59 -20t21 -56q0 -37 -21 -58.5t-59 -21.5zM209 127q60 0 93.5 -44t33.5 -130q0 -163 -141 -320q-7 -6 -14.5 1.5t-2.5 13.5q43 63 57.5 118t14.5 123q0 54 -21 101q-15 -6 -30 -6q-35 0 -54.5 19 t-19.5 52q0 72 84 72z" />
<glyph unicode="&#x3c;" horiz-adv-x="833" d="M758 131q14 -6 13 -50q-2 -33 -13 -30l-684 303q-10 6 -10 36t10 34l684 301q8 4 12 -11q7 -31 -5 -57q-3 -8 -7 -10l-602 -258z" />
<glyph unicode="=" horiz-adv-x="958" d="M70 494q-6 0 -8 19t-0.5 37.5t6.5 18.5h821q9 0 9 -37.5t-9 -37.5h-819zM70 207q-6 0 -8 19t-0.5 38t6.5 19h821q9 0 9 -38t-9 -38h-819z" />
<glyph unicode="&#x3e;" horiz-adv-x="833" d="M760 422q10 -6 10 -36t-10 -34l-684 -301q-8 -4 -12 11q-7 31 5 57q3 8 7 10l602 258l-602 258q-14 6 -13 50q2 33 13 30z" />
<glyph unicode="?" horiz-adv-x="669" d="M322 1255q-28 0 -47.5 -8t-29 -24.5t-13.5 -30.5t-7 -35q-7 -37 -22 -57.5t-47 -20.5q-28 0 -45 19.5t-17 44.5q0 56 70 96.5t166 40.5q117 0 192.5 -63.5t75.5 -182.5q0 -47 -11 -86t-37.5 -75.5t-42.5 -54.5t-54 -56q-73 -73 -102 -128.5t-29 -125.5q0 -48 12 -113 q1 -4 -4.5 -6.5t-11.5 -2t-7 4.5q-23 54 -38 126t-15 118q0 40 12.5 74t32 58.5t43.5 47.5t47.5 47t43 50.5t32 64t12.5 82.5q0 88 -44.5 142t-114.5 54zM299 -23q-37 0 -59.5 21.5t-22.5 58.5q0 35 22.5 55.5t59.5 20.5q38 0 59 -20t21 -56q0 -37 -21 -58.5t-59 -21.5z" />
<glyph unicode="@" horiz-adv-x="1468" d="M956 102q-66 0 -91.5 47.5t-12.5 129.5l25 129q-72 -139 -162 -224.5t-168 -85.5q-53 0 -82 39t-19 119q16 110 83.5 220t157.5 179.5t169 69.5q61 0 94 -39q23 23 29 53q5 7 30 2q7 -2 7 -4l-84 -458q-6 -41 -7.5 -72t16.5 -49.5t58 -18.5q93 0 170.5 95t77.5 249 q0 198 -145 336.5t-357 138.5q-154 0 -272 -78t-177.5 -202.5t-59.5 -271.5q0 -242 156.5 -390.5t408.5 -148.5q98 0 171.5 19.5t168.5 72.5q3 2 7 -1.5t5.5 -8t-0.5 -6.5q-177 -138 -416 -138q-163 0 -294 64.5t-209 190.5t-78 294q0 139 55 262t146 207.5t210 133.5 t244 49q147 0 263 -64t177.5 -169.5t61.5 -231.5q0 -113 -49 -214.5t-132 -163t-176 -61.5zM590 166q87 0 184 122.5t129 262.5q11 55 -13.5 91.5t-82.5 35.5q-80 -2 -164.5 -111.5t-107.5 -253.5q-11 -76 1 -111.5t54 -35.5z" />
<glyph unicode="A" horiz-adv-x="1429" d="M1421 25q7 0 7 -12.5t-7 -12.5q-38 0 -117 4t-116 4q-43 0 -109 -4t-102 -4q-9 0 -9 12.5t9 12.5q116 0 144.5 30.5t-9.5 116.5l-244 522h-391l-184 -442q-50 -126 -9 -176.5t183 -50.5q9 0 9 -12.5t-9 -12.5q-38 0 -112.5 4t-129.5 4q-50 0 -116 -4t-105 -4 q-9 0 -9 12.5t9 12.5q85 0 137.5 50t112.5 195l428 1030q3 6 13.5 6t11.5 -6l475 -1019q69 -152 118.5 -204t120.5 -52zM494 733h358l-190 406z" />
<glyph unicode="B" horiz-adv-x="1124" d="M666 723q160 -10 258 -106t98 -238q0 -167 -112 -277t-279 -110q-45 0 -150 6t-153 6q-47 0 -127.5 -2t-110.5 -2q-4 0 -4 12.5t4 12.5q117 0 151.5 26t34.5 115v948q0 89 -33 115t-149 26q-6 0 -6 12.5t6 12.5q28 0 107.5 -3t126.5 -3q36 0 123 6t116 6q170 0 251 -76.5 t81 -195.5q0 -99 -64 -175t-169 -116zM520 1260q-44 0 -64.5 -3t-40 -17.5t-26 -45t-6.5 -84.5v-389q55 -2 96 -2q161 0 235 76t74 204q0 54 -14.5 99.5t-44.5 82.5t-83.5 58t-125.5 21zM602 25q152 0 226.5 79t74.5 224q0 155 -95.5 252t-256.5 100q-76 3 -168 -4v-510 q0 -81 43.5 -111t175.5 -30z" />
<glyph unicode="C" horiz-adv-x="1370" d="M846 1303q101 0 202 -20t162 -56q17 -11 22.5 -19t6.5 -30l23 -215q0 -5 -11 -7t-12 5q-74 299 -473 299q-243 0 -391 -151t-148 -400q0 -192 84 -356t224 -258.5t301 -94.5q151 0 259.5 80t161.5 244q1 7 13 5t12 -7l-29 -220q-5 -26 -9.5 -33t-22.5 -14 q-184 -80 -392 -80q-151 0 -275 40.5t-207 107t-139.5 155t-82 183t-25.5 192.5q0 141 62.5 264t166 206.5t238.5 131.5t279 48z" />
<glyph unicode="D" horiz-adv-x="1409" d="M608 -8q-36 0 -142 6t-155 6q-47 0 -127 -2t-110 -2q-4 0 -4 12.5t4 12.5q117 0 150.5 26t33.5 115v948q0 89 -33 115t-149 26q-4 0 -4 12.5t4 12.5q30 0 109 -3t126 -3q45 0 140 5t129 5q215 0 382 -82t257 -223.5t90 -316.5q0 -150 -56.5 -277t-152 -212.5t-223 -133 t-269.5 -47.5zM588 18q264 0 426 157.5t162 440.5q0 134 -41 251t-115 203.5t-183 136.5t-239 50q-133 0 -182 -27.5t-49 -119.5v-922q0 -93 45 -131.5t176 -38.5z" />
<glyph unicode="E" horiz-adv-x="1091" d="M963 299q0 4 6 5t12 -1t6 -6q-18 -130 -18 -266q0 -17 -7 -24t-26 -7h-846q-4 0 -4 12.5t4 12.5q116 0 149 25.5t33 115.5v948q0 89 -33 115t-149 26q-4 0 -4 12.5t4 12.5h811q19 0 19 -18l4 -248q0 -6 -11.5 -6t-11.5 6q0 105 -55.5 166t-145.5 61h-141 q-114 0 -146 -25.5t-32 -113.5v-416h270q94 0 131 31.5t37 109.5q0 5 12.5 5t12.5 -5q0 -44 -1 -92t-1 -69q0 -30 2 -90t2 -95q0 -5 -12.5 -5t-12.5 5q0 92 -39 129t-137 37h-264v-473q0 -86 32 -110.5t146 -24.5h189q82 0 141 71.5t74 188.5z" />
<glyph unicode="F" horiz-adv-x="1036" d="M920 1262l4 -248q0 -6 -11.5 -6t-11.5 6q0 105 -55.5 166t-145.5 61h-141q-110 0 -144 -24.5t-34 -104.5v-450h223q105 0 148 32t43 109q0 5 12 5t12 -5q0 -44 -1 -92.5t-1 -69.5q0 -30 2 -89.5t2 -94.5q0 -5 -12 -5t-12 5q0 92 -44.5 129t-156.5 37h-215v-449 q0 -39 5.5 -63t20 -42.5t44.5 -27t73 -12.5t113 -4q6 0 6 -12.5t-6 -12.5q-40 0 -142 2t-167 2q-47 0 -127.5 -2t-110.5 -2q-4 0 -4 12.5t4 12.5q116 0 149 25.5t33 115.5v948q0 89 -33 115t-149 26q-4 0 -4 12.5t4 12.5h811q19 0 19 -18z" />
<glyph unicode="G" horiz-adv-x="1460" d="M827 -25q-168 0 -306.5 51t-230 139t-141 206.5t-49.5 253.5q0 198 101.5 353.5t279 240t400.5 84.5q216 0 338 -78q7 -5 11.5 -9t6.5 -9t2.5 -7.5t1 -10t0.5 -11.5l25 -215q0 -5 -12 -7t-13 5q-38 146 -153 222.5t-291 76.5q-271 0 -420.5 -150.5t-149.5 -413.5 q0 -148 49.5 -276t135.5 -218t206.5 -141t258.5 -51q83 0 133 9t87 36t51.5 75.5t14.5 127.5q0 55 -2 85.5t-11 58.5t-22.5 40t-43 21.5t-65 11.5t-95.5 2q-7 0 -10.5 8.5t-1 16.5t9.5 8q223 -16 450 -4q9 0 9.5 -14.5t-9.5 -14.5q-33 1 -51 -4t-31.5 -16t-18.5 -41.5 t-7 -68t-2 -109.5q0 -82 7 -129.5t7 -51.5q0 -11 -4 -15t-19 -9q-241 -58 -426 -58z" />
<glyph unicode="H" horiz-adv-x="1552" d="M1475 25q6 0 6 -12.5t-6 -12.5q-28 0 -108.5 2t-127.5 2q-51 0 -130.5 -2t-107.5 -2q-6 0 -6 12.5t6 12.5q118 0 150.5 25.5t32.5 115.5v481h-817v-481q0 -90 32 -115.5t150 -25.5q5 0 5 -12.5t-5 -12.5q-29 0 -108.5 2t-129.5 2q-47 0 -127 -2t-110 -2q-4 0 -4 12.5 t4 12.5q117 0 150.5 26t33.5 115v948q0 89 -33 115t-149 26q-4 0 -4 12.5t4 12.5q30 0 109 -3t126 -3q51 0 130.5 3t107.5 3q5 0 5 -12.5t-5 -12.5q-80 0 -117.5 -12.5t-51 -41.5t-13.5 -91v-424h817v424q0 90 -33.5 117.5t-149.5 27.5q-6 0 -6 12.5t6 12.5q28 0 107.5 -3 t130.5 -3q47 0 127.5 3t108.5 3q6 0 6 -12.5t-6 -12.5q-116 0 -150.5 -26.5t-34.5 -114.5v-948q0 -89 34 -115t151 -26z" />
<glyph unicode="I" horiz-adv-x="675" d="M393 166q0 -90 32 -115.5t150 -25.5q5 0 5 -12.5t-5 -12.5q-29 0 -108 2t-131 2q-48 0 -128 -2t-110 -2q-6 0 -6 12.5t6 12.5q117 0 151 26t34 115v948q0 88 -34.5 114.5t-150.5 26.5q-6 0 -6 12.5t6 12.5q30 0 110 -3t128 -3q52 0 132 3t107 3q5 0 5 -12.5t-5 -12.5 q-80 0 -117.5 -12.5t-51 -41.5t-13.5 -91v-944z" />
<glyph unicode="J" horiz-adv-x="651" d="M563 1280q5 0 5 -12.5t-5 -12.5q-101 0 -129 -27.5t-28 -117.5v-1180q0 -196 -89.5 -313t-261.5 -117q-67 0 -105 21.5t-38 56.5q0 28 15.5 44t43.5 16q30 0 51 -15.5t31.5 -34t30.5 -34t49 -15.5q80 0 121 89t41 284v1202q0 46 -7 71.5t-31 42.5t-62.5 22t-108.5 5 q-4 0 -4 12.5t4 12.5q37 0 124.5 -3t137.5 -3q47 0 118.5 3t96.5 3z" />
<glyph unicode="K" horiz-adv-x="1329" d="M1300 25q6 0 6 -12.5t-6 -12.5h-229q-66 0 -78 4q-19 7 -47 47q-91 129 -120 168q-29 38 -62 78l-326 403l-71 -69v-465q0 -90 32 -115.5t150 -25.5q5 0 5 -12.5t-5 -12.5q-29 0 -108.5 2t-129.5 2q-47 0 -127 -2t-110 -2q-4 0 -4 12.5t4 12.5q117 0 150.5 26t33.5 115 v948q0 89 -33 115t-149 26q-4 0 -4 12.5t4 12.5q30 0 109 -3t126 -3q51 0 130.5 3t107.5 3q5 0 5 -12.5t-5 -12.5q-80 0 -117.5 -12.5t-51 -41.5t-13.5 -91v-432l450 448q78 78 68.5 103.5t-117.5 25.5q-4 0 -4 12.5t4 12.5q27 0 98.5 -3t132.5 -3q56 0 119.5 3t85.5 3 q6 0 6 -12.5t-6 -12.5q-197 0 -340 -141l-348 -340l293 -368q51 -64 92.5 -114t76 -88.5t62.5 -66.5t52 -48t43.5 -32t37.5 -19t35 -9.5t34.5 -3.5t36.5 0h21z" />
<glyph unicode="L" horiz-adv-x="1085" d="M365 1112v-938q0 -86 32 -110.5t144 -24.5h262q201 0 239 260q0 4 6 5t11.5 -1t5.5 -6q-18 -162 -18 -266q0 -18 -6.5 -24.5t-24.5 -6.5h-942q-4 0 -4 12.5t4 12.5q116 0 149 25.5t33 115.5v948q0 89 -33 115t-149 26q-4 0 -4 12.5t4 12.5q30 0 109 -3t126 -3q50 0 130 3 t108 3q5 0 5 -12.5t-5 -12.5q-115 0 -148.5 -27t-33.5 -116z" />
<glyph unicode="M" horiz-adv-x="1699" d="M1653 25q6 0 6 -12.5t-6 -12.5q-30 0 -110 2t-128 2q-45 0 -116.5 -2t-96.5 -2q-4 0 -4 12.5t4 12.5q103 0 132.5 26t25.5 115l-35 952l-479 -1104q-3 -8 -16.5 -8t-18.5 8l-500 1096q0 1 -1 2t-1 2l-16 -901q-2 -106 34.5 -147t137.5 -41q5 0 5 -12.5t-5 -12.5 q-27 0 -93 2t-106 2q-35 0 -95 -2t-85 -2q-4 0 -4 12.5t4 12.5q87 0 123 42t37 146l20 971q-62 71 -166 71q-4 0 -4 12.5t4 12.5q22 0 65.5 -2t57.5 -2q21 0 53 2t37 2q28 0 45.5 -19t49.5 -87l460 -996l459 1051q10 23 27.5 37t34.5 14q3 0 29 -2t48 -2q38 0 86 2t70 2 q4 0 4 -12.5t-4 -12.5q-107 0 -151 -27.5t-41 -109.5l38 -952q3 -90 36 -115.5t149 -25.5z" />
<glyph unicode="N" horiz-adv-x="1484" d="M1432 1280q6 0 6 -12.5t-6 -12.5q-88 0 -124 -43t-36 -147v-1088q0 -4 -10 -5.5t-15 1.5l-925 1139q-24 28 -35 39v-938q0 -104 34.5 -146t120.5 -42q6 0 6 -12.5t-6 -12.5q-23 0 -80.5 2t-93.5 2q-35 0 -95 -2t-85 -2q-4 0 -4 12.5t4 12.5q88 0 121 41t33 147v981 q-71 61 -148 61q-6 0 -6 12.5t6 12.5q23 0 70.5 -2t66.5 -2q22 0 55 2t38 2q16 0 24 -7.5t27.5 -38.5t42.5 -60l809 -1006v897q0 105 -33 147.5t-119 42.5q-5 0 -5 12.5t5 12.5q25 0 82.5 -3t93.5 -3q33 0 95 3t86 3z" />
<glyph unicode="O" horiz-adv-x="1568" d="M750 -25q-191 0 -341 91t-229.5 242t-79.5 331q0 129 43 239t115 187t165.5 131.5t195 80.5t202.5 26q146 0 270 -55t205.5 -146.5t126.5 -208t45 -240.5q0 -140 -58 -266t-155 -216t-229 -143t-276 -53zM823 16q108 0 201.5 38.5t163 110.5t109.5 183t40 248 q0 192 -74 342t-211 234.5t-317 84.5q-237 0 -370.5 -146.5t-133.5 -401.5q0 -191 73 -348.5t209.5 -251t309.5 -93.5z" />
<glyph unicode="P" horiz-adv-x="1105" d="M381 174q0 -39 5.5 -63t20 -42.5t44.5 -27t73 -12.5t113 -4q6 0 6 -12.5t-6 -12.5q-40 0 -142 2t-167 2q-47 0 -127.5 -2t-110.5 -2q-4 0 -4 12.5t4 12.5q116 0 149 25.5t33 115.5v948q0 89 -33 115t-149 26q-4 0 -4 12.5t4 12.5q30 0 109.5 -3t126.5 -3q30 0 128.5 6 t157.5 6q87 0 159 -19.5t128 -59t87.5 -105t31.5 -152.5q0 -84 -27.5 -154t-72.5 -117t-104.5 -79.5t-122 -47.5t-126.5 -15q-61 0 -100 10q-5 1 -5.5 8t2.5 13t7 5q33 -8 74 -8q69 0 130.5 21t110.5 62t78 108.5t29 152.5q0 162 -93.5 256.5t-232.5 94.5q-43 0 -65.5 -1 t-47 -6t-35 -13.5t-20.5 -26t-13 -42t-3 -61.5v-936z" />
<glyph unicode="Q" horiz-adv-x="1568" d="M1526 -319q4 2 7 -3t3.5 -10.5t-2.5 -7.5q-112 -25 -176 -25q-139 0 -292 90.5t-265 251.5q-16 -2 -51 -2q-191 0 -341 91t-229.5 242t-79.5 331q0 129 43 239t115 187t165.5 131.5t195 80.5t202.5 26q146 0 270 -55t205.5 -146.5t126.5 -208t45 -240.5 q0 -232 -149 -412.5t-377 -240.5q88 -143 233.5 -234.5t276.5 -91.5q42 0 74 7zM231 709q0 -191 73 -348.5t209.5 -251t309.5 -93.5q108 0 201.5 38.5t163 110.5t109.5 183t40 248q0 192 -74 342t-211 234.5t-317 84.5q-237 0 -370.5 -146.5t-133.5 -401.5z" />
<glyph unicode="R" horiz-adv-x="1366" d="M1384 25q6 0 6 -12.5t-6 -12.5h-237q-54 0 -199.5 177.5t-351.5 490.5q-66 -17 -125 -17q-34 0 -88 4v-489q0 -90 32 -115.5t150 -25.5q6 0 6 -12.5t-6 -12.5q-29 0 -108 2t-129 2q-47 0 -127.5 -2t-110.5 -2q-4 0 -4 12.5t4 12.5q117 0 151.5 26t34.5 115v948 q0 89 -33 115t-149 26q-6 0 -6 12.5t6 12.5q28 0 107.5 -3t126.5 -3q36 0 123 6t116 6q162 0 248 -68t86 -188q0 -98 -57 -184.5t-152 -138.5q262 -386 411 -534t281 -148zM383 705q88 -9 123 -9q149 0 214.5 62.5t65.5 202.5q0 157 -72 228t-194 71q-44 0 -64.5 -3 t-40 -17.5t-26 -45t-6.5 -84.5v-405z" />
<glyph unicode="S" horiz-adv-x="993" d="M283 1032q0 -32 5.5 -60.5t20 -54.5t26.5 -45.5t39 -43t42 -36.5t51 -35.5t50.5 -31.5t55.5 -33q132 -77 179 -117q129 -106 129 -253q0 -149 -108 -248t-308 -99q-139 0 -279 70q-15 8 -18 39l-31 266q-2 6 3.5 8.5t12 1.5t7.5 -6q9 -64 33.5 -123.5t65.5 -111.5 t106 -83.5t145 -31.5q50 0 94 13t82 40.5t60 77t22 115.5q0 42 -9.5 79.5t-22.5 65.5t-39.5 58t-46 48.5t-57.5 44.5t-59 38.5t-65 38.5q-45 27 -63 38t-57 37t-56.5 43t-44.5 47t-39 56.5t-21.5 63.5t-9.5 77q0 77 31.5 139t84 100.5t117.5 58.5t136 20q110 0 233 -50 q31 -12 31 -34l18 -218q0 -9 -11.5 -9t-12.5 9q-3 38 -14 74.5t-34 73.5t-54.5 64.5t-78.5 45t-104 17.5q-64 0 -111.5 -21t-74 -57.5t-39 -77.5t-12.5 -88z" />
<glyph unicode="T" horiz-adv-x="1294" d="M369 1245q-129 0 -188 -61t-81 -219q0 -5 -12 -5t-12 5q8 56 18 177t10 183q0 9 12.5 9.5t12.5 -9.5q0 -45 109 -45q176 -6 411 -6q107 0 230 3t165 3q73 0 108.5 10.5t45.5 40.5q2 7 12.5 7t10.5 -7q-6 -58 -12.5 -187.5t-6.5 -178.5q0 -5 -12 -5t-12 5 q0 159 -53.5 219.5t-194.5 60.5q-48 0 -74.5 -1t-54.5 -3t-41 -8.5t-26 -15t-17.5 -24.5t-7 -35t-2.5 -48v-944q0 -48 6.5 -73t29.5 -41.5t61 -21.5t109 -5q5 0 5 -12.5t-5 -12.5q-32 0 -120 2t-144 2q-52 0 -140 -2t-122 -2q-5 0 -5 12.5t5 12.5q132 0 170.5 26t38.5 115 v948q0 20 -0.5 35.5t-5 28.5t-7 22t-12.5 16.5t-15.5 12t-23.5 8t-28.5 5t-37.5 2.5t-43.5 1h-53.5z" />
<glyph unicode="U" horiz-adv-x="1427" d="M1171 1065q0 98 -42.5 144t-131.5 46q-6 0 -6 12.5t6 12.5q27 0 92.5 -3t106.5 -3q33 0 95 3t87 3q4 0 4 -12.5t-4 -12.5q-83 0 -122 -46t-39 -144v-586q0 -239 -129.5 -372.5t-348.5 -133.5q-228 0 -363.5 133t-135.5 355v653q0 88 -33.5 114.5t-149.5 26.5 q-5 0 -5 12.5t5 12.5q30 0 109 -3t127 -3q50 0 129 3t106 3q6 0 6 -12.5t-6 -12.5q-115 0 -147.5 -27.5t-32.5 -117.5v-578q0 -240 112 -369.5t316 -129.5q187 0 291 118t104 326v588z" />
<glyph unicode="V" horiz-adv-x="1366" d="M1372 1280q6 0 6 -12.5t-6 -12.5q-69 0 -115.5 -29.5t-80.5 -111.5l-451 -1112q-3 -8 -21.5 -8t-23.5 8l-506 1108q-36 80 -75 112.5t-103 32.5q-6 0 -6 12.5t6 12.5q28 0 87 -3t87 -3q54 0 128.5 3t100.5 3q6 0 6 -12.5t-6 -12.5q-41 0 -67.5 -6t-42.5 -20t-15.5 -38.5 t17.5 -60.5l446 -985l396 981q30 71 -2 100t-146 29q-6 0 -6 12.5t6 12.5q28 0 91.5 -3t113.5 -3q40 0 94 3t88 3z" />
<glyph unicode="W" horiz-adv-x="1916" d="M1923 1280q6 0 6 -12.5t-6 -12.5q-70 0 -116.5 -29.5t-80.5 -111.5l-450 -1112q-3 -8 -21.5 -8t-23.5 8l-268 588l-238 -588q-3 -8 -21.5 -8t-23.5 8l-506 1108q-36 80 -75 112.5t-103 32.5q-6 0 -6 12.5t6 12.5q28 0 87 -3t87 -3q54 0 128.5 3t100.5 3q6 0 6 -12.5 t-6 -12.5q-84 0 -114 -27.5t2 -97.5l452 -976l199 489l-213 467q-36 80 -75 112.5t-103 32.5q-6 0 -6 12.5t6 12.5q27 0 87 -3t87 -3q39 0 90 3t68 3q6 0 6 -12.5t-6 -12.5q-66 0 -72.5 -20t31.5 -105l163 -352l142 348q29 70 11 99.5t-91 29.5q-5 0 -5 12.5t5 12.5 q19 0 61 -3t74 -3q39 0 93.5 3t88.5 3q4 0 4 -12.5t-4 -12.5q-70 0 -116.5 -29.5t-79.5 -111.5l-158 -389l264 -571l396 972q30 71 -3 100t-147 29q-6 0 -6 12.5t6 12.5q28 0 91.5 -3t113.5 -3q40 0 94 3t88 3z" />
<glyph unicode="X" horiz-adv-x="1337" d="M1296 25q4 0 4 -12.5t-4 -12.5q-25 0 -89.5 2t-102.5 2q-58 0 -140.5 -2t-113.5 -2q-4 0 -4 12.5t4 12.5q85 0 106 17.5t-10 61.5l-317 482l-285 -398q-57 -80 -35 -121.5t119 -41.5q6 0 6 -12.5t-6 -12.5q-32 0 -102 2t-127 2q-35 0 -82.5 -2t-75.5 -2q-6 0 -6 12.5 t6 12.5q140 0 260 163l309 424l-329 498q-54 79 -107 112t-127 33q-5 0 -5 12.5t5 12.5q25 0 77 -3t75 -3q59 0 149.5 3t120.5 3q6 0 6 -12.5t-6 -12.5q-84 0 -105 -18.5t9 -62.5l311 -467l260 366q63 89 45 135.5t-115 46.5q-6 0 -6 12.5t6 12.5q32 0 103 -3t127 -3 q35 0 82.5 3t75.5 3q6 0 6 -12.5t-6 -12.5q-140 0 -275 -184l-287 -391l340 -510q54 -81 110 -113t146 -32z" />
<glyph unicode="Y" horiz-adv-x="1243" d="M1251 1280q5 0 5 -12.5t-5 -12.5q-76 0 -147.5 -48t-128.5 -136l-289 -438v-467q0 -38 4 -60.5t13.5 -40t31 -25.5t51.5 -11.5t80 -3.5q6 0 6 -12.5t-6 -12.5q-28 0 -106.5 2t-128.5 2q-48 0 -129 -2t-109 -2q-6 0 -6 12.5t6 12.5q117 0 151 26t34 115v436l-351 508 q-54 80 -105.5 112.5t-125.5 32.5q-6 0 -6 12.5t6 12.5q24 0 75 -3t74 -3q59 0 151 3t122 3q4 0 4 -12.5t-4 -12.5q-85 0 -106.5 -18.5t10.5 -62.5l344 -494l262 397q114 178 -66 178q-4 0 -4 12.5t4 12.5q32 0 103 -3t127 -3q35 0 82 3t77 3z" />
<glyph unicode="Z" horiz-adv-x="1214" d="M111 27l831 1202q3 6 4.5 8.5t0.5 4.5t-4.5 2.5t-10.5 0.5q-439 0 -553 -12q-131 -13 -179 -60q-33 -32 -63 -120q-3 -9 -8 -25q-1 -4 -7.5 -4t-12.5 2.5t-5 5.5l82 309q2 7 19 1q6 -3 6 -5q-6 -36 16 -46.5t101 -10.5h747q9 0 15 -10.5t0 -16.5l-822 -1198 q-7 -11 -5 -13.5t16 -2.5h548q143 0 210 50.5t89 176.5q2 4 12.5 4t10.5 -4l-29 -250q0 -7 -5 -13.5t-13 -6.5q-305 4 -979 4q-9 0 -13.5 10t1.5 17z" />
<glyph unicode="[" horiz-adv-x="561" d="M193 -217v1681q0 14 3 17.5t15 3.5h272q6 0 6 -12.5t-6 -12.5q-84 0 -123.5 -12.5t-54 -41.5t-14.5 -91v-1385q0 -62 14.5 -91t54 -41.5t123.5 -12.5q6 0 6 -12.5t-6 -12.5h-272q-12 0 -15 4t-3 19z" />
<glyph unicode="\" horiz-adv-x="694" d="M567 -334l-514 1804q-2 3 4.5 8t16.5 9.5t21.5 7.5t19.5 3t10 -3l516 -1806q1 -3 -5.5 -7.5t-17 -8t-22 -6.5t-19.5 -3.5t-10 2.5z" />
<glyph unicode="]" horiz-adv-x="561" d="M369 -217q0 -15 -3.5 -19t-15.5 -4h-272q-6 0 -6 12.5t6 12.5q84 0 123.5 12.5t54 41.5t14.5 91v1385q0 62 -14.5 91t-54 41.5t-123.5 12.5q-6 0 -6 12.5t6 12.5h272q12 0 15.5 -4t3.5 -17v-1681z" />
<glyph unicode="^" horiz-adv-x="802" d="M682 778q2 -3 -2 -6.5t-8.5 -4.5t-7.5 1l-263 373l-262 -373q-4 -4 -13 0.5t-7 9.5l260 510q1 10 21.5 10t23.5 -10z" />
<glyph unicode="_" horiz-adv-x="815" d="M70 -154q-6 0 -8 19.5t-0.5 39t6.5 19.5h677q9 0 9 -39t-9 -39h-675z" />
<glyph unicode="`" horiz-adv-x="436" d="M96 1489q-3 7 11 7q35 1 77 -18q16 -7 17 -12l114 -491q3 -4 -6 -7q-11 -2 -14 3z" />
<glyph unicode="a" horiz-adv-x="858" d="M844 111q9 3 13 -8t-5 -15l-211 -100q-8 -4 -16 -4q-23 0 -42.5 37t-23.5 100l-135 -74q-67 -35 -104 -48t-74 -13q-63 0 -96 33.5t-33 82.5q0 52 41 86t143 70l258 92v172q0 139 -37.5 192.5t-101.5 53.5q-52 0 -89.5 -29.5t-54 -66t-22.5 -76.5q-10 -68 -66 -68 q-28 0 -44.5 15t-16.5 41q0 44 58.5 98t143 90.5t152.5 36.5q79 0 125.5 -56t46.5 -169v-363q0 -74 18 -107.5t60 -33.5q37 0 113 31zM408 70l151 75v7v176l-237 -90q-45 -17 -63.5 -39.5t-18.5 -57.5q0 -42 25 -66t65 -24q34 0 78 19z" />
<glyph unicode="b" horiz-adv-x="1040" d="M637 817q65 0 123 -24t103.5 -69.5t72.5 -119.5t27 -166q0 -112 -39.5 -203t-104.5 -147t-144.5 -85.5t-164.5 -29.5q-157 0 -274 88l-150 -69q-9 -3 -12.5 5.5t2.5 14.5q48 33 70 53.5t37.5 56.5t15.5 89v1016q0 75 -15 108t-53 33q-32 0 -98 -29q-8 -5 -13 9 q-3 11 5 14l245 121q6 2 11 2q4 0 9 -5t5 -10v-841q77 84 159 136t183 52zM578 12q128 0 199 93t71 268q0 185 -76 286t-197 101q-131 0 -280 -164v-344q0 -51 19.5 -93t49.5 -68.5t68.5 -45t75 -26t70.5 -7.5z" />
<glyph unicode="c" horiz-adv-x="833" d="M471 -25q-100 0 -178.5 35.5t-124.5 94.5t-69 129t-23 145q0 99 39.5 182t103 136t140.5 82.5t155 29.5q88 0 161 -34.5t73 -82.5q0 -25 -16.5 -42t-43.5 -17q-48 0 -82 57q-28 39 -62.5 58.5t-94.5 19.5q-122 0 -189 -89.5t-67 -240.5q0 -81 20.5 -151.5t61.5 -126.5 t110 -88.5t158 -32.5q131 0 211 72q4 2 9 -1.5t6.5 -8t-1.5 -7.5q-133 -119 -297 -119z" />
<glyph unicode="d" horiz-adv-x="1050" d="M1034 111q6 3 11 -2t4.5 -11t-5.5 -10l-210 -100q-8 -4 -17 -4q-29 0 -48.5 45.5t-20.5 130.5q-175 -187 -353 -187q-131 0 -225 109.5t-94 279.5q0 87 29 163t77 128.5t109 90t125.5 55.5t126.5 18q111 0 205 -63v473q0 75 -15.5 108t-54.5 33q-20 0 -98 -31 q-6 -3 -10.5 2.5t-4.5 11.5t4 9l250 123q4 2 10 2q4 0 9.5 -5t5.5 -10v-1249q0 -74 18 -107.5t60 -33.5q63 0 112 31zM467 41q140 0 281 152v434q-52 71 -115.5 111t-151.5 40q-134 0 -213.5 -94.5t-79.5 -261.5q0 -169 79.5 -275t199.5 -106z" />
<glyph unicode="e" horiz-adv-x="829" d="M731 111q3 2 7.5 -2t6.5 -9.5t0 -9.5q-135 -115 -292 -115q-120 0 -207.5 57.5t-128.5 145t-41 191.5q0 186 125 313t309 127q106 0 165.5 -54.5t59.5 -148.5q0 -25 -5 -35t-19 -10l-508 -2q-10 -58 -10 -113q0 -179 86.5 -292t238.5 -113q119 0 213 70zM440 768 q-179 0 -231 -186l403 10q0 84 -47 130t-125 46z" />
<glyph unicode="f" horiz-adv-x="624" d="M653 1487q102 0 170 -32t68 -73q0 -28 -18.5 -42.5t-45.5 -14.5q-38 0 -73 45q-66 84 -170 84q-126 0 -199.5 -138t-73.5 -417v-133q98 2 273 20q14 0 14 -47q0 -10 -3 -21.5t-7.5 -19t-9.5 -6.5q-110 28 -267 31v-557q0 -48 6 -73t29.5 -41.5t62 -21.5t109.5 -5 q4 0 4 -12.5t-4 -12.5q-45 0 -129.5 2t-128.5 2q-39 0 -104 -2t-88 -2q-6 0 -6 12.5t6 12.5q91 0 118 26t27 115v461q0 77 -24 94.5t-130 17.5q-6 0 -6 12.5t6 12.5q88 0 119 19.5t33 72.5q10 332 120 481.5t322 149.5z" />
<glyph unicode="g" horiz-adv-x="876" d="M436 59q169 -25 193 -30q159 -34 205 -117q22 -41 22 -96q0 -66 -40 -136.5t-107 -127.5t-162.5 -93.5t-196.5 -36.5q-144 0 -231.5 71.5t-87.5 178.5q0 164 237 322q-141 42 -141 137q0 110 143 211q-76 29 -117.5 89.5t-41.5 135.5q0 102 85 170t224 68q131 0 203 -62 q115 64 219 64q10 0 10 -43q0 -48 -12 -62q-3 -4 -6 -2q-1 0 -15.5 5.5t-23.5 8.5t-25 7t-33 6t-35 2q-32 0 -59 -6q53 -58 53 -143q0 -106 -80 -182t-219 -76q-61 0 -104 14q-84 -58 -84 -143q0 -23 8.5 -42t26 -32t36.5 -22.5t48 -17t52 -11.5t56 -9zM373 776 q-67 0 -109.5 -41t-42.5 -129q0 -121 65.5 -188.5t151.5 -67.5q66 0 108 46t42 143q0 106 -64.5 171.5t-150.5 65.5zM424 -518q160 0 251 82.5t91 191.5q0 40 -12 71.5t-43 53t-54 35t-76 25t-76 15t-85 11.5q-19 3 -29 4q-40 6 -86 15q-82 -51 -128 -109t-46 -145 q0 -114 78 -182t215 -68z" />
<glyph unicode="h" horiz-adv-x="1015" d="M971 25q5 0 5 -12.5t-5 -12.5q-22 0 -83.5 2t-99.5 2t-99.5 -2t-82.5 -2q-6 0 -6 12.5t6 12.5q85 0 109 26t24 115v334q0 124 -47 183.5t-145 59.5q-66 0 -135 -37.5t-127 -103.5v-436q0 -89 24.5 -115t110.5 -26q4 0 4 -12.5t-4 -12.5q-22 0 -83 2t-99 2t-100 -2t-83 -2 q-6 0 -6 12.5t6 12.5q85 0 109 26t24 115v1063q0 75 -14.5 108t-50.5 33q-31 0 -98 -31q-6 -3 -11 2.5t-5 11.5t5 9l252 123h4q6 0 10.5 -4.5t4.5 -10.5v-837q82 94 158 136t159 42q112 0 173 -62t61 -186v-397q0 -89 24.5 -115t110.5 -26z" />
<glyph unicode="i" horiz-adv-x="563" d="M283 1057q-38 0 -60 20.5t-22 57.5t22 57t60 20q37 0 57 -20t20 -57t-20 -57.5t-57 -20.5zM117 0q-5 0 -5 12.5t5 12.5q85 0 110 26t25 115v387q0 75 -15 108t-53 33q-42 0 -98 -30q-9 -3 -13.5 8t3.5 16l254 119l8 2q5 0 9.5 -4t4.5 -10q0 -5 -1 -39.5t-2 -89.5t-1 -111 v-389q0 -90 23.5 -115.5t109.5 -25.5q6 0 6 -12.5t-6 -12.5q-21 0 -82.5 2t-99.5 2t-99 -2t-83 -2z" />
<glyph unicode="j" horiz-adv-x="522" d="M260 1057q-38 0 -60 20.5t-22 57.5t22 57t60 20q37 0 57.5 -20t20.5 -57t-20.5 -57.5t-57.5 -20.5zM330 795q0 -5 -1 -39.5t-2 -89.5t-1 -111v-653q0 -205 -59 -311t-210 -169q-5 -2 -9.5 9t-0.5 14q100 42 141 137t41 273v698q0 75 -14.5 108t-50.5 33q-42 0 -98 -30 q-9 -3 -14.5 8.5t3.5 15.5l254 119q4 2 6 2q15 0 15 -14z" />
<glyph unicode="k" horiz-adv-x="1005" d="M983 25q5 0 5 -12.5t-5 -12.5q-22 0 -83 2t-99 2q-55 0 -130.5 -2t-101.5 -2q-5 0 -5 12.5t5 12.5q79 0 100 18.5t-10 65.5l-256 354l-118 -90v-207q0 -89 24.5 -115t110.5 -26q4 0 4 -12.5t-4 -12.5q-22 0 -83 2t-99 2t-100 -2t-83 -2q-6 0 -6 12.5t6 12.5q85 0 109 26 t24 115v1063q0 75 -14.5 108t-50.5 33q-31 0 -98 -31q-6 -3 -11 2.5t-5 11.5t5 9l246 121q6 2 10 2q5 0 10 -4.5t5 -10.5v-1071l297 232q83 65 66 100t-126 35q-6 0 -6 12.5t6 12.5q27 0 98 -2.5t132 -2.5q56 0 120 2.5t86 2.5q4 0 4 -12.5t-4 -12.5q-154 0 -340 -141 l-131 -101l256 -358q98 -141 240 -141z" />
<glyph unicode="l" horiz-adv-x="524" d="M84 0q-6 0 -6 12.5t6 12.5q85 0 109 26t24 115v1063q0 75 -14.5 108t-50.5 33q-32 0 -99 -31q-6 -3 -11 2.5t-4.5 11.5t5.5 9l252 121q4 2 10 2q4 0 9 -5t5 -10v-1304q0 -88 24.5 -114.5t109.5 -26.5q6 0 6 -12.5t-6 -12.5q-20 0 -83 2t-102 2q-38 0 -100.5 -2t-83.5 -2z " />
<glyph unicode="m" horiz-adv-x="1556" d="M1511 25q6 0 6 -12.5t-6 -12.5q-21 0 -82.5 2t-99.5 2t-99 -2t-83 -2q-5 0 -5 12.5t5 12.5q85 0 110 26t25 115v334q0 125 -44 184t-138 59q-64 0 -130 -38t-122 -105q2 -10 2 -37v-397q0 -89 24.5 -115t110.5 -26q5 0 5 -12.5t-5 -12.5q-22 0 -83 2t-99 2t-99.5 -2 t-82.5 -2q-6 0 -6 12.5t6 12.5q85 0 109 26t24 115v334q0 124 -44.5 183.5t-136.5 59.5q-130 0 -249 -141v-436q0 -90 23.5 -115.5t109.5 -25.5q6 0 6 -12.5t-6 -12.5q-21 0 -82.5 2t-98.5 2q-38 0 -99.5 -2t-82.5 -2q-6 0 -6 12.5t6 12.5q85 0 109 26t24 115v409 q0 71 -16.5 102.5t-56.5 31.5q-31 0 -115 -31q-9 -3 -14 7.5t4 14.5l227 107q4 2 10 2q10 0 23 -18t24 -57.5t11 -88.5v-8q145 174 303 174q189 0 219 -182q147 182 309 182q108 0 165.5 -62t57.5 -186v-397q0 -90 23.5 -115.5t109.5 -25.5z" />
<glyph unicode="n" horiz-adv-x="1054" d="M1008 25q6 0 6 -12.5t-6 -12.5q-21 0 -82.5 2t-98.5 2q-38 0 -99.5 -2t-82.5 -2q-6 0 -6 12.5t6 12.5q85 0 109 26t24 115v342q0 124 -47 182t-147 58q-65 0 -134 -37.5t-126 -104.5v-440q0 -90 23.5 -115.5t109.5 -25.5q6 0 6 -12.5t-6 -12.5q-21 0 -82.5 2t-98.5 2 q-38 0 -99.5 -2t-82.5 -2q-6 0 -6 12.5t6 12.5q85 0 109 26t24 115v409q0 71 -16.5 102.5t-56.5 31.5q-31 0 -115 -31q-9 -3 -14 7.5t4 14.5l227 107q4 2 10 2q10 0 23 -18t24 -57.5t11 -88.5v-8q82 95 158 137.5t157 42.5q114 0 174.5 -62t60.5 -186v-403q0 -90 24 -115.5 t110 -25.5z" />
<glyph unicode="o" d="M471 -27q-176 0 -285.5 127t-109.5 306q0 102 39.5 183t103.5 129.5t138 73.5t151 25q118 0 209.5 -61.5t137.5 -157t46 -203.5q0 -190 -125 -306t-305 -116zM528 10q120 0 187 80.5t67 251.5q0 188 -95 312t-247 124q-118 0 -182.5 -81t-64.5 -232q0 -122 41 -225.5 t118.5 -166.5t175.5 -63z" />
<glyph unicode="p" horiz-adv-x="1044" d="M651 817q130 0 221 -102t91 -275q0 -94 -29 -173.5t-75.5 -132.5t-105.5 -90t-117 -54t-112 -17q-127 0 -227 66v-436q0 -88 39 -115t172 -27q4 0 4 -12t-4 -12q-33 0 -119 2t-137 2q-38 0 -100.5 -2t-83.5 -2q-6 0 -6 12t6 12q84 0 108.5 26.5t24.5 115.5v966 q0 75 -17 108.5t-59 33.5q-50 0 -113 -31q-9 -3 -14 7.5t4 14.5l211 101q8 4 16 4q30 0 49 -46t19 -132q177 188 354 188zM592 14q111 0 184.5 98.5t73.5 264.5q0 176 -76 274.5t-196 98.5q-78 0 -144.5 -40t-136.5 -114v-444q59 -67 128 -102.5t167 -35.5z" />
<glyph unicode="q" horiz-adv-x="991" d="M958 -539q4 0 4 -12t-4 -12q-22 0 -84 2t-100 2q-41 0 -111 -2t-98 -2q-5 0 -5 12t5 12q102 0 133 27t31 115v553q-77 -82 -158 -132.5t-180 -50.5q-132 0 -223.5 102t-91.5 275q0 101 27.5 182.5t71.5 133.5t102.5 87t118.5 49.5t122 14.5q129 0 264 -69l131 47 q5 3 9 -1.5t4 -9.5t-4 -8q-50 -30 -74.5 -69t-24.5 -103v-1001q0 -88 25.5 -115t109.5 -27zM453 31q75 0 140.5 42t135.5 117v363q0 103 -75.5 164t-202.5 61q-258 0 -258 -364q0 -178 71.5 -280.5t188.5 -102.5z" />
<glyph unicode="r" horiz-adv-x="737" d="M551 809q45 0 85 -23.5t40 -54.5q0 -22 -16 -37.5t-44 -15.5q-23 0 -60.5 27.5t-74.5 27.5q-29 0 -60 -24t-97 -105v-438q0 -62 15 -90.5t56.5 -39.5t132.5 -11q6 0 6 -12.5t-6 -12.5q-30 0 -116 2t-136 2q-38 0 -99.5 -2t-82.5 -2q-6 0 -6 12.5t6 12.5q85 0 109 26 t24 115v409q0 71 -16.5 102.5t-56.5 31.5q-31 0 -115 -31q-9 -3 -14 7.5t4 14.5l227 107q4 2 10 2q10 0 23 -18t24 -57.5t11 -88.5v-12q84 102 133 139t94 37z" />
<glyph unicode="s" horiz-adv-x="692" d="M197 659q0 -33 12 -61t26.5 -46t45.5 -39t48.5 -30.5t57.5 -29.5q41 -20 62.5 -31.5t54.5 -34.5t49.5 -44t29.5 -53t13 -69q0 -103 -77 -173.5t-210 -70.5q-106 0 -192 64q-13 9 -13 25l-4 147q0 6 12 7t13 -5q76 -199 244 -199q73 0 110 34.5t33 101.5q-1 34 -14 62.5 t-27 46t-46.5 38.5t-48.5 29t-57 28q-50 24 -76.5 39.5t-60.5 44t-49.5 65.5t-15.5 85q0 74 41 127t101.5 76.5t131.5 23.5q73 0 146 -31q18 -9 18 -22q0 -19 -2 -66t-2 -75q0 -5 -12.5 -5t-12.5 5q0 66 -67.5 109.5t-143.5 43.5q-56 0 -87 -29.5t-31 -87.5z" />
<glyph unicode="t" horiz-adv-x="694" d="M627 94q5 3 10 -0.5t5.5 -9.5t-3.5 -10q-75 -54 -132.5 -76.5t-119.5 -22.5q-84 0 -137 38.5t-53 125.5v488q0 76 -17.5 94t-89.5 18q-6 0 -6 12.5t6 12.5q78 0 126 42.5t48 108.5q0 6 15.5 6t15.5 -6v-149q141 3 289 20q14 0 14 -47q0 -10 -3 -21.5t-7.5 -19t-9.5 -6.5 q-122 31 -283 31v-514q0 -170 166 -170q96 0 166 55z" />
<glyph unicode="u" horiz-adv-x="1003" d="M987 113q9 3 13.5 -7.5t-3.5 -15.5l-229 -106q-4 -2 -8 -2q-11 0 -24 17.5t-23.5 57t-10.5 88.5v19q-161 -178 -333 -178q-101 0 -157 63.5t-56 186.5v317q0 84 -13.5 120t-46.5 36q-26 0 -73 -21q-6 -3 -11 2.5t-5 11.5t5 9l215 96q4 2 9 2q4 0 10 -4.5t6 -9.5v-498 q0 -124 42.5 -183t129.5 -59q72 0 145 38t133 106v354q0 85 -13 120.5t-48 35.5q-27 0 -74 -21q-6 -3 -10 2t-4 12t6 9l215 96q4 2 6 2q5 0 11 -4t6 -10v-580q0 -70 17 -101.5t58 -31.5q27 0 115 31z" />
<glyph unicode="v" horiz-adv-x="886" d="M870 791q4 0 4 -12.5t-4 -12.5q-51 0 -83.5 -30t-65.5 -111l-256 -623q-3 -8 -22.5 -8t-22.5 8l-281 619q-40 89 -66.5 117t-64.5 28q-6 0 -6 12.5t6 12.5q19 0 62.5 -2.5t62.5 -2.5q49 0 116.5 2.5t90.5 2.5q6 0 6 -12.5t-6 -12.5q-73 0 -106 -17t-11 -63l254 -555 l209 506q28 72 -7 100.5t-151 28.5q-4 0 -4 12.5t4 12.5q30 0 93 -2.5t114 -2.5q29 0 69.5 2.5t65.5 2.5z" />
<glyph unicode="w" horiz-adv-x="1366" d="M1348 791q6 0 6 -12.5t-6 -12.5q-49 0 -82 -30t-66 -111l-256 -623q-4 -8 -23 -8t-22 8l-227 500l-207 -500q-3 -8 -22.5 -8t-22.5 8l-281 619q-40 89 -66.5 117t-64.5 28q-6 0 -6 12.5t6 12.5q19 0 62.5 -2.5t62.5 -2.5q45 0 112 2.5t95 2.5q6 0 6 -12.5t-6 -12.5 q-74 0 -104.5 -18t-10.5 -62l254 -555l172 418l-33 72q-40 89 -66.5 117t-66.5 28q-5 0 -5 12.5t5 12.5q21 0 64.5 -2.5t62.5 -2.5q49 0 116.5 2.5t90.5 2.5q6 0 6 -12.5t-6 -12.5q-74 0 -107 -17t-10 -63l254 -557l207 508q29 72 -5 100.5t-150 28.5q-4 0 -4 12.5t4 12.5 q30 0 93 -2.5t113 -2.5q30 0 70 2.5t64 2.5z" />
<glyph unicode="x" horiz-adv-x="899" d="M870 25q4 0 4 -12.5t-4 -12.5q-21 0 -64.5 2t-62.5 2q-49 0 -116 -2t-90 -2q-6 0 -6 12.5t6 12.5q64 0 72 14.5t-25 64.5l-162 244l-135 -194q-24 -35 -33 -56t-4 -39.5t34.5 -26t86.5 -7.5q6 0 6 -12.5t-6 -12.5q-28 0 -91.5 2t-113.5 2q-29 0 -69.5 -2t-65.5 -2 q-5 0 -5 12.5t5 12.5q52 0 111.5 36t109.5 105l151 211l-161 244q-52 78 -107.5 111.5t-101.5 33.5q-5 0 -5 12.5t5 12.5q21 0 64 -2.5t63 -2.5q49 0 116.5 2.5t90.5 2.5q5 0 5 -12.5t-5 -12.5q-64 0 -72.5 -15t24.5 -65l148 -223l117 174q53 69 39 99t-123 30q-4 0 -4 12.5 t4 12.5q30 0 93 -2.5t114 -2.5q29 0 69.5 2.5t65.5 2.5q4 0 4 -12.5t-4 -12.5q-118 0 -221 -141l-138 -187l179 -268q52 -78 107 -111.5t101 -33.5z" />
<glyph unicode="y" horiz-adv-x="894" d="M879 791q6 0 6 -12.5t-6 -12.5q-50 0 -84.5 -30.5t-63.5 -110.5l-256 -682q-76 -199 -143 -311t-138 -159.5t-165 -47.5q-42 0 -70.5 19t-28.5 56q0 24 16.5 37.5t39.5 13.5q42 0 82 -23.5t73 -23.5q75 0 144 105.5t174 384.5l-307 627q-46 89 -72 117t-64 28 q-4 0 -4 12.5t4 12.5q20 0 63 -2.5t64 -2.5q48 0 116 2.5t91 2.5q4 0 4 -12.5t-4 -12.5q-72 0 -104.5 -18t-9.5 -62l278 -569l174 499q30 88 -1 119t-148 31q-5 0 -5 12.5t5 12.5q29 0 92 -2.5t114 -2.5q29 0 70 2.5t64 2.5z" />
<glyph unicode="z" horiz-adv-x="829" d="M90 25l500 727q8 14 -10 14q-87 0 -143 -2t-109 -8.5t-84 -18t-58.5 -31t-43.5 -47t-27 -67.5q-1 -4 -7.5 -4t-12.5 2.5t-5 5.5l66 250q2 6 18 3q6 -3 6 -5q-7 -31 13.5 -42t82.5 -11h424q8 0 14.5 -9t2.5 -16l-488 -723q-8 -14 11 -14q122 0 173 0.5t116 7.5t84.5 16 t48 34.5t39 53.5t28.5 82q1 5 12 5t11 -5l-4 -200q0 -8 -6 -15.5t-13 -7.5h-625q-8 0 -13 9t-1 16z" />
<glyph unicode="{" horiz-adv-x="591" d="M66 610q-6 0 -6 13.5t6 13.5q45 5 78 34.5t51 70t28.5 102t13.5 115t3 124.5q0 107 7.5 174.5t24 115t50 70.5t77 32.5t113.5 9.5q8 0 8 -12.5t-8 -12.5q-78 0 -121.5 -56.5t-46.5 -160.5q-2 -117 -4 -169t-6.5 -126.5t-13.5 -104t-23.5 -71.5t-38.5 -62t-55.5 -42 t-77.5 -43q149 -68 181 -172t38 -451q3 -104 46.5 -160.5t121.5 -56.5q8 0 8 -12.5t-8 -12.5q-60 0 -99.5 6t-71.5 23.5t-50 44t-30.5 74t-16.5 107.5t-4 149q0 72 -3 126t-13.5 115t-28.5 101.5t-51 69.5t-78 34z" />
<glyph unicode="|" horiz-adv-x="344" d="M137 -315v1812q0 13 38 13t38 -13v-1812q0 -15 -38 -15t-38 15z" />
<glyph unicode="}" horiz-adv-x="579" d="M514 610q-45 -5 -78 -34t-51 -69.5t-28.5 -101.5t-13.5 -115t-3 -126q0 -89 -4 -149t-16.5 -107.5t-30.5 -74t-50 -44t-71.5 -23.5t-99.5 -6q-8 0 -8 12.5t8 12.5q78 0 121.5 56.5t46.5 160.5q6 347 38 451t181 172q-46 21 -77.5 43t-55.5 42t-38.5 62t-23.5 71.5 t-13.5 104t-6.5 126.5t-4 169q-3 104 -46.5 160.5t-121.5 56.5q-8 0 -8 12.5t8 12.5q70 0 113.5 -9.5t77 -32.5t50 -70.5t24 -115t7.5 -174.5q0 -71 3 -124.5t13.5 -115t28.5 -102t51 -70t78 -34.5q6 0 6 -13.5t-6 -13.5z" />
<glyph unicode="~" horiz-adv-x="907" d="M641 397q41 0 73 13.5t46.5 27t36.5 39.5q5 3 11.5 -3.5t2.5 -10.5q-70 -84 -114.5 -112.5t-98.5 -28.5q-59 0 -164 36.5t-168 36.5q-20 0 -37 -3.5t-26.5 -5.5t-25.5 -13.5t-19 -14t-22.5 -21.5t-22.5 -22q-4 -4 -13 6q-4 6 -2 9q114 141 228 141q43 0 148 -37t167 -37z " />
<glyph unicode="&#xa1;" horiz-adv-x="497" d="M256 748q37 0 59.5 -21.5t22.5 -58.5q0 -35 -22.5 -55.5t-59.5 -20.5q-38 0 -59 20t-21 56q0 37 21 58.5t59 21.5zM330 -547q0 -6 -25.5 -11t-56.5 -5q-63 0 -78 12l-2 4q47 269 74 885q0 4 10 4t10 -4q22 -612 68 -885z" />
<glyph unicode="&#xa2;" horiz-adv-x="1105" d="M991 287q1 7 13 5.5t12 -7.5l-29 -217q-2 -18 -6.5 -24t-22.5 -13q-160 -56 -327 -56h-23v-184q0 -13 -20.5 -13t-20.5 13v186q-105 8 -190.5 44.5t-140.5 87.5t-92 116.5t-52.5 129.5t-15.5 128q0 196 139 335t352 161v170q0 15 20.5 15t20.5 -15v-166h31 q78 0 167 -15.5t144 -43.5q14 -6 18.5 -12.5t6.5 -22.5l22 -211q0 -6 -11.5 -7.5t-12.5 5.5q-27 138 -123 207.5t-242 72.5v-954q14 -2 41 -2q130 0 219.5 71t122.5 216zM199 514q0 -116 39.5 -221t125 -185t203.5 -102v950q-159 -11 -263.5 -135.5t-104.5 -306.5z" />
<glyph unicode="&#xa3;" horiz-adv-x="884" d="M754 252q0 3 6 3.5t12 -1t6 -4.5q-18 -103 -18 -219q0 -17 -7 -24t-24 -7h-655q-4 0 -4 12t4 13q92 25 129 57q51 43 51 135q0 105 -39 234h-102q-13 0 -13 20.5t13 20.5h88q-35 115 -35 190q0 76 27.5 135.5t75.5 94.5t107.5 53t127.5 18q96 0 184 -35q30 -9 33 -39 l14 -204q0 -9 -10.5 -9t-13.5 9q-3 44 -18.5 86.5t-42 80.5t-71 61t-98.5 23q-109 0 -160 -61.5t-51 -149.5q0 -23 2.5 -47t5 -41t9 -44.5t9 -38t12 -43t11.5 -39.5h242q13 0 13 -20.5t-13 -20.5h-229q20 -78 20 -150q0 -80 -28.5 -129.5t-79.5 -89.5h270q130 0 173.5 31 t66.5 139z" />
<glyph unicode="&#xa4;" horiz-adv-x="847" d="M739 127l-53 -51l-98 110q-83 -53 -187 -53q-89 0 -153 45l-90 -102l-43 43l90 94q-38 39 -59 92.5t-21 108.5q0 113 82 188l-103 103l54 47l102 -111q80 45 172 45q90 0 164 -49l100 108l41 -40l-100 -103q78 -78 78 -190q0 -106 -76 -185zM440 166q77 0 122.5 53.5 t45.5 149.5q0 114 -60.5 199t-162.5 85q-73 0 -116.5 -49.5t-43.5 -146.5q0 -71 21.5 -135t72 -110t121.5 -46z" />
<glyph unicode="&#xa5;" d="M952 958q6 0 6 -12t-6 -12q-67 0 -131.5 -47.5t-118.5 -136.5l-170 -279v-35h218q14 0 14 -20.5t-14 -20.5h-543q-15 0 -15 20.5t15 20.5h221v2l-229 350q-55 82 -99 114t-110 32q-4 0 -4 12t4 12q20 0 63.5 -3t63.5 -3q54 0 134.5 3t106.5 3q6 0 6 -12t-6 -12 q-123 0 -71 -82l231 -350l146 250q48 85 32 133.5t-78 48.5q-6 0 -6 12t6 12q28 0 89 -3t112 -3q30 0 70 3t63 3zM750 319q14 0 14 -20t-14 -20h-218v-113q0 -48 5.5 -73t26.5 -41.5t54.5 -21.5t96.5 -5q5 0 5 -12.5t-5 -12.5q-29 0 -107 2t-129 2q-44 0 -124 -2t-111 -2 q-4 0 -4 12.5t4 12.5q117 0 150.5 26t33.5 115v113h-221q-15 0 -15 20t15 20h543z" />
<glyph unicode="&#xa6;" horiz-adv-x="344" d="M137 737v760q0 13 38 13t38 -13v-760q0 -13 -38 -13t-38 13zM137 -315v757q0 15 38 15t38 -15v-757q0 -15 -38 -15t-38 15z" />
<glyph unicode="&#xa7;" horiz-adv-x="878" d="M637 59q82 -75 82 -174q0 -68 -26.5 -121.5t-70 -85t-96 -47.5t-108.5 -16q-108 0 -180 37q-22 15 -25 35l-14 190q0 6 12 6t12 -6q10 -75 90.5 -145t180.5 -70q63 0 104 37.5t41 116.5q0 57 -27.5 105t-71 83t-96.5 68.5t-106 70t-96.5 79t-71 104t-27.5 135.5 q0 80 27 138t106 132q-73 73 -73 170q0 89 45 152.5t110.5 90.5t141.5 27q112 0 180 -38q22 -11 22 -33l17 -193q0 -5 -12.5 -5t-12.5 5q-10 76 -90 146.5t-180 70.5q-63 0 -102 -36.5t-39 -116.5q0 -57 26.5 -105t69 -83t94 -68.5t103.5 -70t94.5 -79t69 -104t26.5 -135.5 q0 -78 -27 -136.5t-102 -130.5zM227 524q0 -61 19.5 -113.5t49.5 -89t73.5 -72t83 -59.5t87.5 -56t78 -58q64 69 64 184q0 62 -19.5 115.5t-49.5 90t-73 72.5t-82.5 61t-86.5 57.5t-76 58.5q-68 -70 -68 -191z" />
<glyph unicode="&#xa8;" horiz-adv-x="659" d="M152 985q-38 0 -60 20.5t-22 57.5t22 57.5t60 20.5q37 0 57 -20.5t20 -57.5t-20 -57.5t-57 -20.5zM510 985q-37 0 -59.5 21t-22.5 57t22.5 57t59.5 21q38 0 59 -20.5t21 -57.5t-21 -57.5t-59 -20.5z" />
<glyph unicode="&#xa9;" horiz-adv-x="1468" d="M750 -207q-79 0 -160 22.5t-159.5 70.5t-139 116.5t-98 169.5t-37.5 219q0 136 54 254.5t144 199.5t208 127t245 46q114 0 210 -37t160 -100.5t100 -148.5t36 -179q0 -95 -38.5 -182t-103.5 -151t-157.5 -102t-194.5 -38q-93 0 -165 28t-114.5 74.5t-63.5 101.5t-21 115 q0 80 31 147t81.5 109.5t112.5 66t125 23.5q70 0 127.5 -28t60.5 -68q0 -21 -15 -37t-36 -16q-36 0 -70 49q-17 24 -28.5 36t-35.5 23t-56 11q-183 0 -183 -266q0 -52 9.5 -97.5t32.5 -86t57.5 -69.5t88 -46t120.5 -17q72 0 136.5 21.5t117.5 63.5t84.5 114t31.5 164 q0 198 -145 336.5t-357 138.5q-161 0 -278 -73t-174 -192.5t-57 -269.5q0 -117 37.5 -216t96.5 -164.5t135 -112t151 -67.5t145 -21q124 0 212 18t199 74q3 2 8 -4.5t1 -10.5q-108 -81 -219 -110t-252 -29z" />
<glyph unicode="&#xaa;" horiz-adv-x="565" d="M551 834q7 3 12 -6.5t0 -12.5l-139 -65q-20 -8 -36 15t-19 73l-90 -50q-73 -40 -113 -40q-41 0 -65.5 22.5t-24.5 56.5q0 32 26 51.5t97 45.5l170 61v117q0 50 -8 82t-24 46t-31.5 18.5t-39.5 4.5q-42 0 -69 -29t-37 -75q-2 -11 -3.5 -15t-6 -12.5t-12 -12t-19.5 -3.5 q-18 0 -30.5 12t-12.5 25q0 44 89.5 95.5t156.5 51.5q49 0 79.5 -37t30.5 -110v-240q0 -69 26 -82.5t93 13.5zM268 809l101 51v105l-158 -62q-33 -13 -44 -22.5t-11 -28.5q0 -24 16.5 -39.5t42.5 -15.5q25 0 53 12zM528 641q9 0 9 -25.5t-9 -25.5h-458q-6 0 -8 13t-0.5 25.5 t6.5 12.5h460z" />
<glyph unicode="&#xab;" horiz-adv-x="923" d="M481 82l-356 305q-9 9 -9 23.5t9 23.5l356 305q2 3 6.5 2t7.5 -5t1 -7l-267 -317l267 -318q2 -7 -7 -13q-6 -3 -8 1zM782 82l-356 305q-9 9 -9 23.5t9 23.5l356 305q6 8 14 -2q4 -5 1 -8l-265 -317l265 -318q2 -3 -0.5 -7.5t-7 -6t-7.5 1.5z" />
<glyph unicode="&#xac;" horiz-adv-x="808" d="M745 547v-389q0 -6 -19.5 -8t-38.5 -0.5t-19 6.5v313h-598q-6 0 -8 19.5t-0.5 39t6.5 19.5h677z" />
<glyph unicode="&#xad;" horiz-adv-x="661" d="M66 344q-6 -1 -8.5 18.5t-1.5 40t5 21.5l535 96q6 1 8 -18.5t0 -40t-8 -21.5z" />
<glyph unicode="&#xae;" horiz-adv-x="1540" d="M807 1485q129 0 239 -45.5t183 -122.5t114 -178.5t41 -214.5q0 -132 -50.5 -251.5t-136 -204.5t-201.5 -135t-242 -50q-87 0 -172 24t-162 74t-135.5 120t-93.5 168t-35 212q0 170 92 310t240.5 217t318.5 77zM805 342q232 0 373 141.5t141 382.5q0 158 -74.5 289 t-206.5 207t-293 76q-121 0 -219 -41.5t-160.5 -112.5t-96 -162.5t-33.5 -193.5q0 -112 35 -209.5t92.5 -165.5t131.5 -116.5t153 -71.5t157 -23zM1157 573q3 0 3 -9t-3 -9h-151q-36 0 -211 336q-56 -13 -121 -10v-211q0 -60 18.5 -75t89.5 -15q4 0 4 -12.5t-4 -12.5 q-17 0 -66 2t-81 2q-25 0 -78 -2t-68 -2q-5 0 -5 12.5t5 12.5q74 0 93.5 15t19.5 75v442q0 56 -20.5 73t-92.5 17q-5 0 -5 12.5t5 12.5q19 0 70 -1t76 -1q26 0 86 3t82 3q182 0 182 -133q0 -123 -113 -183q104 -200 139 -250q55 -78 116 -89q14 -3 30 -3zM674 920 q115 -18 174 10.5t59 118.5q0 155 -139 155q-59 0 -76.5 -15t-17.5 -83v-186z" />
<glyph unicode="&#xaf;" horiz-adv-x="706" d="M96 993q-10 0 -10 27t10 27h514q10 0 10 -27t-10 -27h-514z" />
<glyph unicode="&#xb0;" horiz-adv-x="679" d="M342 764q-126 0 -204.5 76t-78.5 190q0 108 79 184t204 76t202 -75.5t77 -188.5q0 -112 -77.5 -187t-201.5 -75zM356 786q50 0 82.5 16t48 49t20.5 69t5 92q0 258 -182 258q-49 0 -81.5 -17.5t-49 -51.5t-23 -72.5t-6.5 -92.5q0 -117 41.5 -183.5t144.5 -66.5z" />
<glyph unicode="&#xb1;" horiz-adv-x="815" d="M70 479q-6 0 -8 19t-0.5 38t6.5 19h301v301q0 8 38.5 8t38.5 -8v-301h299q9 0 9 -38t-9 -38h-299v-299q0 -6 -19 -8t-38.5 -0.5t-19.5 6.5v301h-299zM745 72q9 0 9 -35t-9 -35h-675q-6 0 -8 17.5t-0.5 35t6.5 17.5h677z" />
<glyph unicode="&#xb2;" horiz-adv-x="512" d="M70 836q12 37 56 103.5t88 127t79 135t35 129.5q0 56 -29.5 88.5t-77.5 32.5q-51 0 -88 -34t-49 -87q-1 -4 -7.5 -4.5t-12.5 2.5t-5 8q46 156 193 156q76 0 118 -41t42 -104q0 -49 -38.5 -116t-85.5 -122.5t-95 -117.5t-62 -97q0 -6 6 -6h110.5t72 5.5t49.5 9t27 21.5 t20 31.5t16 49.5q0 4 5 4t5 -4l-2 -172q0 -11 -8 -11h-356q-10 0 -6 13z" />
<glyph unicode="&#xb3;" horiz-adv-x="514" d="M276 1171q76 -17 119 -53t43 -106q0 -83 -54 -142t-148 -59q-79 0 -126 39t-63 102q-1 5 5 8.5t12.5 3t7.5 -5.5q11 -43 49 -77.5t104 -34.5q129 0 129 139q0 77 -43.5 124.5t-109.5 47.5q-5 0 -5 12.5t5 12.5q59 0 93 48.5t34 100.5q0 51 -30.5 86t-80.5 35 q-47 0 -84 -34.5t-49 -86.5q-1 -4 -7.5 -4.5t-12.5 2.5t-5 8q19 70 66 113t125 43q74 0 118 -41.5t44 -105.5q0 -57 -37 -104.5t-99 -70.5z" />
<glyph unicode="&#xb4;" horiz-adv-x="434" d="M141 971q-1 -4 -7 -4t-11 2.5t-4 5.5l117 491q3 13 60 26q48 10 44 -3z" />
<glyph unicode="&#xb6;" horiz-adv-x="1298" d="M670 -395q-45 0 -75 24t-30 56q0 29 15.5 46t40.5 17q28 0 45.5 -15t24.5 -33t27.5 -33t55.5 -15q61 0 87 84t26 280v240q-83 -6 -180 -6q-88 0 -169.5 16.5t-160.5 57t-137 100.5t-93.5 154.5t-35.5 212.5q0 243 143 369t397 126q42 0 141.5 -6t163.5 -6q39 0 116 3 t110 3q4 0 4 -12.5t-4 -12.5q-89 0 -136 -42.5t-47 -122.5l2 -977q0 -266 -77.5 -387t-253.5 -121z" />
<glyph unicode="&#xb7;" horiz-adv-x="399" d="M201 330q-37 0 -59.5 21.5t-22.5 58.5q0 35 22.5 55t59.5 20q38 0 59 -20t21 -55q0 -37 -21 -58.5t-59 -21.5z" />
<glyph unicode="&#xb8;" horiz-adv-x="475" d="M231 -4q-14 -42 -20 -63.5t-10 -43t-1 -31t11 -20t22 -19t34 -19.5q16 -8 24 -13q110 -64 110 -158q0 -74 -51.5 -133t-150.5 -59q-54 0 -90.5 19.5t-36.5 54.5q0 25 16.5 40t40.5 15q21 0 35 -14t21 -31t25.5 -31t47.5 -14q76 0 76 84q0 54 -38 95t-138 95 q-30 17 -32.5 25.5t11.5 38.5q21 50 70 184z" />
<glyph unicode="&#xb9;" horiz-adv-x="536" d="M100 823q-4 0 -4 12.5t4 12.5q97 0 119.5 22t22.5 119v242q0 122 -2 135q-5 34 -29 34t-125 -44q-5 -2 -10.5 2.5t-6 10t4.5 9.5l225 111q7 4 13.5 -1.5t6.5 -12.5v-486q0 -53 2.5 -77t18 -41t39 -20t74.5 -3q6 0 6 -12.5t-6 -12.5q-21 0 -78 3t-92 3q-36 0 -98.5 -3 t-84.5 -3z" />
<glyph unicode="&#xba;" horiz-adv-x="641" d="M311 735q-117 0 -188.5 83t-71.5 202q0 66 26 119.5t68.5 85t91.5 48.5t99 17q116 0 187 -82t71 -194q0 -116 -84 -197.5t-199 -81.5zM342 766q80 0 128 56.5t48 154.5q0 118 -62.5 199t-158.5 81q-82 0 -126 -51.5t-44 -146.5q0 -119 61 -206t154 -87zM74 590 q-6 0 -8 13t-0.5 25.5t6.5 12.5h497q9 0 9 -25.5t-9 -25.5h-495z" />
<glyph unicode="&#xbb;" horiz-adv-x="923" d="M141 739l357 -305q9 -9 9 -23.5t-9 -23.5l-357 -305q-4 -7 -11 1q-5 6 -3 11l266 316l-266 319q-2 5 6 11q6 2 8 -1zM442 739l359 -305q7 -9 7 -23.5t-7 -23.5l-359 -305q-4 -7 -11 1q-5 6 -3 11l266 316l-266 319q-2 5 6 11q6 4 8 -1z" />
<glyph unicode="&#xbc;" horiz-adv-x="1224" d="M453 655q6 0 6 -11t-6 -11q-21 0 -78 2t-92 2q-36 0 -98.5 -2t-84.5 -2q-4 0 -4 11t4 11q97 0 119.5 22.5t22.5 119.5v243v48q1 107 -18.5 117t-137.5 -42q-5 -2 -10.5 3t-6 11t4.5 9l225 112q7 3 13.5 -3t6.5 -11v-487q0 -98 20.5 -120t113.5 -22zM901 1282q4 3 14 0.5 t21 -8t10 -8.5l-573 -1266q-3 -3 -13 0t-21.5 9t-10.5 9zM1165 23q1 0 1 -12.5t-1 -12.5q-17 0 -55.5 1t-65.5 1q-32 0 -84 -1t-71 -1q-3 0 -3 12.5t3 12.5q74 0 93 10t19 51v104q-175 5 -256 5q-4 0 -7 3.5t1 6.5l316 461q3 3 9.5 1t6.5 -6v-430l94 7q5 0 5 -28t-5 -28 q-62 4 -94 4v-100q0 -29 4.5 -39.5t23.5 -16t66 -5.5zM821 223q82 0 180 4v316l-184 -314q-3 -6 4 -6z" />
<glyph unicode="&#xbd;" horiz-adv-x="1247" d="M100 633q-4 0 -4 11t4 11q97 0 119.5 22.5t22.5 119.5v243v48q1 107 -18.5 117t-137.5 -42q-5 -2 -10.5 3t-6 11t4.5 9l225 112q7 3 13.5 -3t6.5 -11v-487q0 -98 20.5 -120t113.5 -22q6 0 6 -11t-6 -11q-21 0 -78 2t-92 2q-36 0 -98.5 -2t-84.5 -2zM373 0q-3 -3 -13 0 t-21.5 9t-10.5 9l573 1264q4 3 14 0.5t21 -8t10 -8.5zM805 12q12 37 56 103.5t88 127t79 135t35 130.5q0 55 -29.5 87t-77.5 32q-51 0 -88 -33t-49 -86q-1 -5 -7.5 -5.5t-12 2.5t-4.5 7q46 156 192 156q77 0 118.5 -40.5t41.5 -103.5q0 -49 -38.5 -115.5t-85.5 -122 t-95 -117.5t-62 -97q0 -6 6 -6h86t63.5 2.5t48.5 3.5t32.5 9.5t24.5 13t14.5 21.5t13.5 27.5t12 38.5q0 3 5.5 3t5.5 -3l-2 -172q0 -10 -9 -10h-356q-9 0 -6 12z" />
<glyph unicode="&#xbe;" horiz-adv-x="1202" d="M438 819q0 -81 -54 -139.5t-148 -58.5q-79 0 -126 38.5t-63 102.5q-1 5 5 8t12.5 2t7.5 -6q12 -43 49.5 -78t103.5 -35q58 0 93.5 33.5t35.5 106.5q0 78 -43.5 125t-109.5 47q-5 0 -5 12t5 12q59 0 93 49t34 103q0 49 -31 84t-80 35q-46 0 -83.5 -34t-49.5 -85 q-1 -5 -7.5 -6t-12.5 2t-5 8q19 69 66 112t125 43q74 0 118 -40.5t44 -104.5q0 -57 -36.5 -104.5t-96.5 -69.5q159 -35 159 -162zM879 1282q4 3 14 0.5t21 -8t10 -8.5l-574 -1266q-3 -3 -13 0t-21.5 9t-10.5 9zM1143 23q1 0 1 -12.5t-1 -12.5q-17 0 -55.5 1t-65.5 1 q-32 0 -84 -1t-72 -1q-3 0 -3 12.5t3 12.5q74 0 93.5 10t19.5 51v104q-175 5 -256 5q-4 0 -7 3.5t1 6.5l315 461q3 3 10 1t7 -6v-430l94 7q5 0 5 -28t-5 -28q-62 4 -94 4v-100q0 -29 4.5 -39.5t23.5 -16t66 -5.5zM799 223q82 0 180 4v316l-184 -314q-3 -6 4 -6z" />
<glyph unicode="&#xbf;" horiz-adv-x="669" d="M371 739q37 0 59.5 -21.5t22.5 -58.5q0 -35 -22.5 -55t-59.5 -20q-38 0 -59 20t-21 55q0 37 21 58.5t59 21.5zM348 -539q28 0 47.5 8.5t29 25t13 30t6.5 35.5q15 78 70 78q28 0 44.5 -19.5t16.5 -44.5q0 -56 -69.5 -96.5t-165.5 -40.5q-117 0 -192.5 63.5t-75.5 182.5 q0 47 11 86t37.5 75.5t42.5 54.5t54 56q73 73 102 128.5t29 125.5q0 49 -12 113q-1 4 4 6.5t11 2t7 -4.5q24 -54 39 -126t15 -118q0 -40 -12.5 -74t-32 -58.5t-43.5 -47.5t-48 -47t-43.5 -50.5t-32 -64t-12.5 -82.5q0 -88 45 -142.5t115 -54.5z" />
<glyph unicode="&#xc0;" horiz-adv-x="1429" d="M438 1548q-17 4 25 25q60 31 85 30q2 0 3 -1q258 -147 352 -191q9 -3 3 -15q-4 -9 -11 -5q-230 101 -457 157zM1421 25q7 0 7 -12.5t-7 -12.5q-38 0 -117 4t-116 4q-43 0 -109 -4t-102 -4q-9 0 -9 12.5t9 12.5q116 0 144.5 30.5t-9.5 116.5l-244 522h-391l-184 -442 q-50 -126 -9 -176.5t183 -50.5q9 0 9 -12.5t-9 -12.5q-38 0 -112.5 4t-129.5 4q-50 0 -116 -4t-105 -4q-9 0 -9 12.5t9 12.5q85 0 137.5 50t112.5 195l428 1030q3 6 13.5 6t11.5 -6l475 -1019q69 -152 118.5 -204t120.5 -52zM494 733h358l-190 406z" />
<glyph unicode="&#xc1;" horiz-adv-x="1429" d="M494 1391q-6 -3 -10 1.5t-4 10t3 8.5q60 28 120 60.5t127.5 71.5t105.5 59q15 7 78 -24q41 -20 38 -27q0 -2 -4 -3q-220 -55 -454 -157zM1421 25q7 0 7 -12.5t-7 -12.5q-38 0 -117 4t-116 4q-43 0 -109 -4t-102 -4q-9 0 -9 12.5t9 12.5q116 0 144.5 30.5t-9.5 116.5 l-244 522h-391l-184 -442q-50 -126 -9 -176.5t183 -50.5q9 0 9 -12.5t-9 -12.5q-38 0 -112.5 4t-129.5 4q-50 0 -116 -4t-105 -4q-9 0 -9 12.5t9 12.5q85 0 137.5 50t112.5 195l428 1030q3 6 13.5 6t11.5 -6l475 -1019q69 -152 118.5 -204t120.5 -52zM494 733h358l-190 406z " />
<glyph unicode="&#xc2;" horiz-adv-x="1429" d="M469 1327q-2 -1 -6 2t-6 6.5t0 5.5l211 189q9 9 23.5 9t23.5 -9l209 -189q7 -4 -2 -11q-5 -4 -9 -3l-221 127zM1421 25q7 0 7 -12.5t-7 -12.5q-38 0 -117 4t-116 4q-43 0 -109 -4t-102 -4q-9 0 -9 12.5t9 12.5q116 0 144.5 30.5t-9.5 116.5l-244 522h-391l-184 -442 q-50 -126 -9 -176.5t183 -50.5q9 0 9 -12.5t-9 -12.5q-38 0 -112.5 4t-129.5 4q-50 0 -116 -4t-105 -4q-9 0 -9 12.5t9 12.5q85 0 137.5 50t112.5 195l428 1030q3 6 13.5 6t11.5 -6l475 -1019q69 -152 118.5 -204t120.5 -52zM494 733h358l-190 406z" />
<glyph unicode="&#xc3;" horiz-adv-x="1429" d="M434 1427q-5 -3 -11.5 4t-2.5 11q33 45 79 82t93 37q32 0 117.5 -26t140.5 -26q25 0 45.5 9.5t29.5 18.5t25 28q5 3 12 -3t3 -12q-53 -68 -87.5 -92t-72.5 -24q-46 0 -131.5 24.5t-138.5 24.5q-13 0 -25 -2.5t-19.5 -5.5t-17 -10t-13.5 -11t-13.5 -14t-12.5 -13zM1421 25 q7 0 7 -12.5t-7 -12.5q-38 0 -117 4t-116 4q-43 0 -109 -4t-102 -4q-9 0 -9 12.5t9 12.5q116 0 144.5 30.5t-9.5 116.5l-244 522h-391l-184 -442q-50 -126 -9 -176.5t183 -50.5q9 0 9 -12.5t-9 -12.5q-38 0 -112.5 4t-129.5 4q-50 0 -116 -4t-105 -4q-9 0 -9 12.5t9 12.5 q85 0 137.5 50t112.5 195l428 1030q3 6 13.5 6t11.5 -6l475 -1019q69 -152 118.5 -204t120.5 -52zM494 733h358l-190 406z" />
<glyph unicode="&#xc4;" horiz-adv-x="1429" d="M514 1475q-38 0 -60 20t-22 57t22 57.5t60 20.5q37 0 57.5 -20.5t20.5 -57.5t-20.5 -57t-57.5 -20zM872 1475q-37 0 -59 20.5t-22 56.5t22 57t59 21q38 0 59 -20.5t21 -57.5t-21 -57t-59 -20zM1421 25q7 0 7 -12.5t-7 -12.5q-38 0 -117 4t-116 4q-43 0 -109 -4t-102 -4 q-9 0 -9 12.5t9 12.5q116 0 144.5 30.5t-9.5 116.5l-244 522h-391l-184 -442q-50 -126 -9 -176.5t183 -50.5q9 0 9 -12.5t-9 -12.5q-38 0 -112.5 4t-129.5 4q-50 0 -116 -4t-105 -4q-9 0 -9 12.5t9 12.5q85 0 137.5 50t112.5 195l428 1030q3 6 13.5 6t11.5 -6l475 -1019 q69 -152 118.5 -204t120.5 -52zM494 733h358l-190 406z" />
<glyph unicode="&#xc5;" horiz-adv-x="1429" d="M684 1362q-76 0 -123 49t-47 115q0 73 59 115t132 42q69 0 119 -47t50 -114q0 -71 -58 -115.5t-132 -44.5zM664 1665q-38 0 -55 -23.5t-17 -74.5q0 -70 34 -127.5t89 -57.5q41 0 60.5 24.5t19.5 78.5q0 73 -38 126.5t-93 53.5zM1421 25q7 0 7 -12.5t-7 -12.5 q-38 0 -117 4t-116 4q-43 0 -109 -4t-102 -4q-9 0 -9 12.5t9 12.5q116 0 144.5 30.5t-9.5 116.5l-244 522h-391l-184 -442q-50 -126 -9 -176.5t183 -50.5q9 0 9 -12.5t-9 -12.5q-38 0 -112.5 4t-129.5 4q-50 0 -116 -4t-105 -4q-9 0 -9 12.5t9 12.5q85 0 137.5 50t112.5 195 l428 1030q3 6 13.5 6t11.5 -6l475 -1019q69 -152 118.5 -204t120.5 -52zM494 733h358l-190 406z" />
<glyph unicode="&#xc6;" horiz-adv-x="1783" d="M1655 299q0 4 6 5t12 -1t6 -6q-18 -130 -18 -266q0 -17 -7 -24t-26 -7h-821q-5 0 -5 12.5t5 12.5q116 0 149 25.5t33 115.5v481h-364l-275 -395q-82 -117 -57.5 -172t156.5 -55q9 0 9 -12.5t-9 -12.5q-38 0 -112.5 4t-129.5 4q-46 0 -104.5 -4t-92.5 -4q-9 0 -9 12.5 t9 12.5q59 0 139.5 66t159.5 179l629 906q34 48 23 61q-12 17 -119 18h-35q-5 0 -5 12.5t5 12.5h786q19 0 19 -18l4 -248q0 -6 -11.5 -6t-11.5 6q0 101 -55.5 164t-144.5 63h-119q-112 0 -144 -23.5t-32 -105.5v-426h245q94 0 131 31.5t37 109.5q0 5 12.5 5t12.5 -5 q0 -44 -1 -92t-1 -69q0 -30 2 -90t2 -95q0 -5 -12.5 -5t-12.5 5q0 92 -39 129t-137 37h-239v-473q0 -86 32 -110.5t144 -24.5h166q82 0 141 71.5t74 188.5zM651 686h338v485z" />
<glyph unicode="&#xc7;" horiz-adv-x="1370" d="M1257 324q1 7 13 5t12 -7l-29 -220q-5 -26 -9.5 -33t-22.5 -14q-184 -80 -392 -80h-41q-9 -26 -14 -42t-7.5 -32.5t-5 -24t2.5 -19t5.5 -15t13 -13t16.5 -11.5t25.5 -14t29.5 -17q111 -64 111 -158q0 -74 -52 -133t-151 -59q-54 0 -90.5 19.5t-36.5 54.5q0 25 16.5 40 t40.5 15q21 0 35 -14t21 -31t25.5 -31t47.5 -14q76 0 76 84q0 54 -38 95t-138 95q-30 17 -32.5 25.5t11.5 38.5q33 81 62 163q-137 8 -249.5 52.5t-187.5 111t-127 152.5t-75 176t-23 184q0 141 62.5 264t166 206.5t238.5 131.5t279 48q101 0 202 -20t162 -56 q17 -11 22.5 -19t6.5 -30l23 -215q0 -5 -11 -7t-12 5q-74 299 -473 299q-243 0 -391 -151t-148 -400q0 -192 84 -356t224 -258.5t301 -94.5q151 0 259.5 80t161.5 244z" />
<glyph unicode="&#xc8;" horiz-adv-x="1091" d="M340 1548q-17 4 25 25q60 31 85 30q2 0 3 -1q258 -147 352 -191q9 -3 3 -15q-4 -9 -11 -5q-230 101 -457 157zM963 299q0 4 6 5t12 -1t6 -6q-18 -130 -18 -266q0 -17 -7 -24t-26 -7h-846q-4 0 -4 12.5t4 12.5q116 0 149 25.5t33 115.5v948q0 89 -33 115t-149 26 q-4 0 -4 12.5t4 12.5h811q19 0 19 -18l4 -248q0 -6 -11.5 -6t-11.5 6q0 105 -55.5 166t-145.5 61h-141q-114 0 -146 -25.5t-32 -113.5v-416h270q94 0 131 31.5t37 109.5q0 5 12.5 5t12.5 -5q0 -44 -1 -92t-1 -69q0 -30 2 -90t2 -95q0 -5 -12.5 -5t-12.5 5q0 92 -39 129 t-137 37h-264v-473q0 -86 32 -110.5t146 -24.5h189q82 0 141 71.5t74 188.5z" />
<glyph unicode="&#xc9;" horiz-adv-x="1091" d="M395 1391q-9 -4 -13 6.5t3 13.5q60 28 120 60.5t127 71t105 59.5q15 7 80 -24q40 -20 37 -27q0 -2 -4 -3q-223 -55 -455 -157zM963 299q0 4 6 5t12 -1t6 -6q-18 -130 -18 -266q0 -17 -7 -24t-26 -7h-846q-4 0 -4 12.5t4 12.5q116 0 149 25.5t33 115.5v948q0 89 -33 115 t-149 26q-4 0 -4 12.5t4 12.5h811q19 0 19 -18l4 -248q0 -6 -11.5 -6t-11.5 6q0 105 -55.5 166t-145.5 61h-141q-114 0 -146 -25.5t-32 -113.5v-416h270q94 0 131 31.5t37 109.5q0 5 12.5 5t12.5 -5q0 -44 -1 -92t-1 -69q0 -30 2 -90t2 -95q0 -5 -12.5 -5t-12.5 5 q0 92 -39 129t-137 37h-264v-473q0 -86 32 -110.5t146 -24.5h189q82 0 141 71.5t74 188.5z" />
<glyph unicode="&#xca;" horiz-adv-x="1091" d="M373 1399q-2 -1 -6.5 2t-6.5 6.5t0 5.5l211 191q9 9 23.5 9t23.5 -9l209 -191q3 -2 2 -6t-5 -7t-7 -1l-221 127zM963 299q0 4 6 5t12 -1t6 -6q-18 -130 -18 -266q0 -17 -7 -24t-26 -7h-846q-4 0 -4 12.5t4 12.5q116 0 149 25.5t33 115.5v948q0 89 -33 115t-149 26 q-4 0 -4 12.5t4 12.5h811q19 0 19 -18l4 -248q0 -6 -11.5 -6t-11.5 6q0 105 -55.5 166t-145.5 61h-141q-114 0 -146 -25.5t-32 -113.5v-416h270q94 0 131 31.5t37 109.5q0 5 12.5 5t12.5 -5q0 -44 -1 -92t-1 -69q0 -30 2 -90t2 -95q0 -5 -12.5 -5t-12.5 5q0 92 -39 129 t-137 37h-264v-473q0 -86 32 -110.5t146 -24.5h189q82 0 141 71.5t74 188.5z" />
<glyph unicode="&#xcb;" horiz-adv-x="1091" d="M416 1475q-38 0 -60 20t-22 57t22 57.5t60 20.5q37 0 57.5 -20.5t20.5 -57.5t-20.5 -57t-57.5 -20zM774 1475q-37 0 -59.5 20.5t-22.5 56.5t22.5 57t59.5 21q38 0 59 -20.5t21 -57.5t-21 -57t-59 -20zM963 299q0 4 6 5t12 -1t6 -6q-18 -130 -18 -266q0 -17 -7 -24t-26 -7 h-846q-4 0 -4 12.5t4 12.5q116 0 149 25.5t33 115.5v948q0 89 -33 115t-149 26q-4 0 -4 12.5t4 12.5h811q19 0 19 -18l4 -248q0 -6 -11.5 -6t-11.5 6q0 105 -55.5 166t-145.5 61h-141q-114 0 -146 -25.5t-32 -113.5v-416h270q94 0 131 31.5t37 109.5q0 5 12.5 5t12.5 -5 q0 -44 -1 -92t-1 -69q0 -30 2 -90t2 -95q0 -5 -12.5 -5t-12.5 5q0 92 -39 129t-137 37h-264v-473q0 -86 32 -110.5t146 -24.5h189q82 0 141 71.5t74 188.5z" />
<glyph unicode="&#xcc;" horiz-adv-x="675" d="M541 1391q-230 101 -457 157q-17 4 25 25q60 31 85 30q2 0 3 -1q258 -147 352 -191q9 -3 3 -15q-4 -9 -11 -5zM393 166q0 -90 32 -115.5t150 -25.5q5 0 5 -12.5t-5 -12.5q-29 0 -108 2t-131 2q-48 0 -128 -2t-110 -2q-6 0 -6 12.5t6 12.5q117 0 151 26t34 115v948 q0 88 -34.5 114.5t-150.5 26.5q-6 0 -6 12.5t6 12.5q30 0 110 -3t128 -3q52 0 132 3t107 3q5 0 5 -12.5t-5 -12.5q-80 0 -117.5 -12.5t-51 -41.5t-13.5 -91v-944z" />
<glyph unicode="&#xcd;" horiz-adv-x="675" d="M139 1391q-9 -4 -13 6.5t3 13.5q60 28 120 60.5t127 71t105 59.5q15 7 80 -24q40 -20 37 -27q0 -2 -4 -3q-223 -55 -455 -157zM393 166q0 -90 32 -115.5t150 -25.5q5 0 5 -12.5t-5 -12.5q-29 0 -108 2t-131 2q-48 0 -128 -2t-110 -2q-6 0 -6 12.5t6 12.5q117 0 151 26 t34 115v948q0 88 -34.5 114.5t-150.5 26.5q-6 0 -6 12.5t6 12.5q30 0 110 -3t128 -3q52 0 132 3t107 3q5 0 5 -12.5t-5 -12.5q-80 0 -117.5 -12.5t-51 -41.5t-13.5 -91v-944z" />
<glyph unicode="&#xce;" horiz-adv-x="675" d="M104 1413l211 191q9 9 23.5 9t23.5 -9l209 -191q3 -2 2 -6t-5 -7t-7 -1l-221 127l-223 -127q-2 -1 -6.5 2t-6.5 6.5t0 5.5zM393 166q0 -90 32 -115.5t150 -25.5q5 0 5 -12.5t-5 -12.5q-29 0 -108 2t-131 2q-48 0 -128 -2t-110 -2q-6 0 -6 12.5t6 12.5q117 0 151 26 t34 115v948q0 88 -34.5 114.5t-150.5 26.5q-6 0 -6 12.5t6 12.5q30 0 110 -3t128 -3q52 0 132 3t107 3q5 0 5 -12.5t-5 -12.5q-80 0 -117.5 -12.5t-51 -41.5t-13.5 -91v-944z" />
<glyph unicode="&#xcf;" horiz-adv-x="675" d="M195 1475q-37 0 -59.5 20.5t-22.5 56.5t22.5 57t59.5 21q38 0 58.5 -20.5t20.5 -57.5t-20.5 -57t-58.5 -20zM483 1475q-38 0 -60 20t-22 57t22 57.5t60 20.5q37 0 57.5 -20.5t20.5 -57.5t-20.5 -57t-57.5 -20zM393 166q0 -90 32 -115.5t150 -25.5q5 0 5 -12.5t-5 -12.5 q-29 0 -108 2t-131 2q-48 0 -128 -2t-110 -2q-6 0 -6 12.5t6 12.5q117 0 151 26t34 115v948q0 88 -34.5 114.5t-150.5 26.5q-6 0 -6 12.5t6 12.5q30 0 110 -3t128 -3q52 0 132 3t107 3q5 0 5 -12.5t-5 -12.5q-80 0 -117.5 -12.5t-51 -41.5t-13.5 -91v-944z" />
<glyph unicode="&#xd0;" horiz-adv-x="1409" d="M580 1284q215 0 382 -82t257 -223.5t90 -316.5q0 -150 -56.5 -277t-152 -212.5t-223 -133t-269.5 -47.5q-36 0 -142 6t-155 6q-47 0 -127 -2t-110 -2q-4 0 -4 12.5t4 12.5q117 0 150.5 26t33.5 115v452h-149q-9 0 -9 18.5t9 18.5h149v459q0 89 -33 115t-149 26 q-4 0 -4 12.5t4 12.5q30 0 109 -3t126 -3q45 0 140 5t129 5zM588 18q264 0 426 157.5t162 440.5q0 134 -41 251t-115 203.5t-183 136.5t-239 50q-133 0 -182 -27.5t-49 -119.5v-455h278q7 0 7 -18.5t-7 -18.5h-278v-430q0 -93 45 -131.5t176 -38.5z" />
<glyph unicode="&#xd1;" horiz-adv-x="1484" d="M508 1427q-5 -3 -11.5 4t-2.5 11q33 45 79 82t93 37q32 0 117.5 -26t140.5 -26q25 0 45.5 9.5t29.5 18.5t25 28q5 3 11.5 -3t2.5 -12q-53 -69 -87 -92.5t-72 -23.5q-46 0 -132 24.5t-139 24.5q-16 0 -28 -2.5t-24 -10.5l-16.5 -11t-17 -16.5t-14.5 -15.5zM1432 1280 q6 0 6 -12.5t-6 -12.5q-88 0 -124 -43t-36 -147v-1088q0 -4 -10 -5.5t-15 1.5l-925 1139q-24 28 -35 39v-938q0 -104 34.5 -146t120.5 -42q6 0 6 -12.5t-6 -12.5q-23 0 -80.5 2t-93.5 2q-35 0 -95 -2t-85 -2q-4 0 -4 12.5t4 12.5q88 0 121 41t33 147v981q-71 61 -148 61 q-6 0 -6 12.5t6 12.5q23 0 70.5 -2t66.5 -2q22 0 55 2t38 2q16 0 24 -7.5t27.5 -38.5t42.5 -60l809 -1006v897q0 105 -33 147.5t-119 42.5q-5 0 -5 12.5t5 12.5q25 0 82.5 -3t93.5 -3q33 0 95 3t86 3z" />
<glyph unicode="&#xd2;" horiz-adv-x="1568" d="M989 1391q-230 101 -457 157q-17 4 25 25q60 31 85 30q2 0 3 -1q258 -147 352 -191q9 -3 3 -15q-4 -9 -11 -5zM750 -25q-191 0 -341 91t-229.5 242t-79.5 331q0 129 43 239t115 187t165.5 131.5t195 80.5t202.5 26q146 0 270 -55t205.5 -146.5t126.5 -208t45 -240.5 q0 -140 -58 -266t-155 -216t-229 -143t-276 -53zM823 16q108 0 201.5 38.5t163 110.5t109.5 183t40 248q0 192 -74 342t-211 234.5t-317 84.5q-237 0 -370.5 -146.5t-133.5 -401.5q0 -191 73 -348.5t209.5 -251t309.5 -93.5z" />
<glyph unicode="&#xd3;" horiz-adv-x="1568" d="M588 1391q-4 -2 -7.5 0t-5 6t-1 8.5t3.5 5.5q60 28 120 60.5t127 71t105 59.5q15 7 78 -24q41 -20 38 -27q0 -2 -4 -3q-220 -55 -454 -157zM750 -25q-191 0 -341 91t-229.5 242t-79.5 331q0 129 43 239t115 187t165.5 131.5t195 80.5t202.5 26q146 0 270 -55 t205.5 -146.5t126.5 -208t45 -240.5q0 -140 -58 -266t-155 -216t-229 -143t-276 -53zM823 16q108 0 201.5 38.5t163 110.5t109.5 183t40 248q0 192 -74 342t-211 234.5t-317 84.5q-237 0 -370.5 -146.5t-133.5 -401.5q0 -191 73 -348.5t209.5 -251t309.5 -93.5z" />
<glyph unicode="&#xd4;" horiz-adv-x="1568" d="M553 1413l211 191q9 9 23.5 9t23.5 -9l209 -191q3 -2 2 -6t-5 -7t-7 -1l-222 127l-223 -127q-2 -1 -6 2t-6 6.5t0 5.5zM750 -25q-191 0 -341 91t-229.5 242t-79.5 331q0 129 43 239t115 187t165.5 131.5t195 80.5t202.5 26q146 0 270 -55t205.5 -146.5t126.5 -208 t45 -240.5q0 -140 -58 -266t-155 -216t-229 -143t-276 -53zM823 16q108 0 201.5 38.5t163 110.5t109.5 183t40 248q0 192 -74 342t-211 234.5t-317 84.5q-237 0 -370.5 -146.5t-133.5 -401.5q0 -191 73 -348.5t209.5 -251t309.5 -93.5z" />
<glyph unicode="&#xd5;" horiz-adv-x="1568" d="M944 1509q25 0 45.5 9.5t29.5 18.5t25 28q5 3 12 -3t3 -12q-53 -68 -87.5 -92t-72.5 -24q-46 0 -131.5 24.5t-138.5 24.5q-13 0 -25 -2.5t-19.5 -5.5t-17 -10t-13.5 -11t-13.5 -14t-12.5 -13q-5 -3 -11.5 4t-2.5 11q33 45 79 82t93 37q32 0 117.5 -26t140.5 -26zM750 -25 q-191 0 -341 91t-229.5 242t-79.5 331q0 129 43 239t115 187t165.5 131.5t195 80.5t202.5 26q146 0 270 -55t205.5 -146.5t126.5 -208t45 -240.5q0 -140 -58 -266t-155 -216t-229 -143t-276 -53zM823 16q108 0 201.5 38.5t163 110.5t109.5 183t40 248q0 192 -74 342 t-211 234.5t-317 84.5q-237 0 -370.5 -146.5t-133.5 -401.5q0 -191 73 -348.5t209.5 -251t309.5 -93.5z" />
<glyph unicode="&#xd6;" horiz-adv-x="1568" d="M608 1475q-38 0 -60 20t-22 57t22 57.5t60 20.5q37 0 57.5 -20.5t20.5 -57.5t-20.5 -57t-57.5 -20zM967 1475q-37 0 -59.5 20.5t-22.5 56.5t22.5 57t59.5 21q38 0 59 -20.5t21 -57.5t-21 -57t-59 -20zM750 -25q-191 0 -341 91t-229.5 242t-79.5 331q0 129 43 239t115 187 t165.5 131.5t195 80.5t202.5 26q146 0 270 -55t205.5 -146.5t126.5 -208t45 -240.5q0 -140 -58 -266t-155 -216t-229 -143t-276 -53zM823 16q108 0 201.5 38.5t163 110.5t109.5 183t40 248q0 192 -74 342t-211 234.5t-317 84.5q-237 0 -370.5 -146.5t-133.5 -401.5 q0 -191 73 -348.5t209.5 -251t309.5 -93.5z" />
<glyph unicode="&#xd7;" horiz-adv-x="774" d="M442 389l211 -211q6 -8 -20.5 -34.5t-34.5 -20.5l-211 211l-213 -211q-3 -5 -18 7t-27.5 26.5t-9.5 17.5l215 215l-211 213q-5 3 7 18t26.5 27t17.5 8l213 -213l211 211q8 6 34.5 -20.5t20.5 -34.5z" />
<glyph unicode="&#xd8;" horiz-adv-x="1568" d="M1276 1122q93 -91 142.5 -214t49.5 -255q0 -140 -58 -266t-155 -216t-229 -143t-276 -53q-259 0 -441 164l-151 -153q-3 -4 -11.5 1t-14 13.5t-1.5 13.5l152 154q-88 91 -135.5 213t-47.5 258q0 129 43 239t115 187t165.5 131.5t195 80.5t202.5 26q249 0 428 -154 l137 139q7 7 23 -7q12 -10 6 -15zM231 709q0 -264 136 -455l807 817q-79 89 -191.5 137.5t-247.5 48.5q-237 0 -370.5 -146.5t-133.5 -401.5zM823 16q108 0 201.5 38.5t163 110.5t109.5 183t40 248q0 266 -141 446l-805 -819q80 -98 191 -152.5t241 -54.5z" />
<glyph unicode="&#xd9;" horiz-adv-x="1427" d="M969 1391q-230 101 -457 157q-17 4 25 25q60 31 85 30q2 0 3 -1q258 -147 352 -191q9 -3 3 -15q-4 -9 -11 -5zM1171 1065q0 98 -42.5 144t-131.5 46q-6 0 -6 12.5t6 12.5q27 0 92.5 -3t106.5 -3q33 0 95 3t87 3q4 0 4 -12.5t-4 -12.5q-83 0 -122 -46t-39 -144v-586 q0 -239 -129.5 -372.5t-348.5 -133.5q-228 0 -363.5 133t-135.5 355v653q0 88 -33.5 114.5t-149.5 26.5q-5 0 -5 12.5t5 12.5q30 0 109 -3t127 -3q50 0 129 3t106 3q6 0 6 -12.5t-6 -12.5q-115 0 -147.5 -27.5t-32.5 -117.5v-578q0 -240 112 -369.5t316 -129.5 q187 0 291 118t104 326v588z" />
<glyph unicode="&#xda;" horiz-adv-x="1427" d="M567 1391q-9 -4 -13 6.5t3 13.5q60 28 120 60.5t127 71t105 59.5q15 7 80 -24q40 -20 37 -27q0 -2 -4 -3q-223 -55 -455 -157zM1171 1065q0 98 -42.5 144t-131.5 46q-6 0 -6 12.5t6 12.5q27 0 92.5 -3t106.5 -3q33 0 95 3t87 3q4 0 4 -12.5t-4 -12.5q-83 0 -122 -46 t-39 -144v-586q0 -239 -129.5 -372.5t-348.5 -133.5q-228 0 -363.5 133t-135.5 355v653q0 88 -33.5 114.5t-149.5 26.5q-5 0 -5 12.5t5 12.5q30 0 109 -3t127 -3q50 0 129 3t106 3q6 0 6 -12.5t-6 -12.5q-115 0 -147.5 -27.5t-32.5 -117.5v-578q0 -240 112 -369.5 t316 -129.5q187 0 291 118t104 326v588z" />
<glyph unicode="&#xdb;" horiz-adv-x="1427" d="M532 1413l211 191q9 9 24 9t24 -9l208 -191q3 -2 2 -6t-5 -7t-7 -1l-221 127l-223 -127q-2 -1 -6.5 2t-6.5 6.5t0 5.5zM1171 1065q0 98 -42.5 144t-131.5 46q-6 0 -6 12.5t6 12.5q27 0 92.5 -3t106.5 -3q33 0 95 3t87 3q4 0 4 -12.5t-4 -12.5q-83 0 -122 -46t-39 -144 v-586q0 -239 -129.5 -372.5t-348.5 -133.5q-228 0 -363.5 133t-135.5 355v653q0 88 -33.5 114.5t-149.5 26.5q-5 0 -5 12.5t5 12.5q30 0 109 -3t127 -3q50 0 129 3t106 3q6 0 6 -12.5t-6 -12.5q-115 0 -147.5 -27.5t-32.5 -117.5v-578q0 -240 112 -369.5t316 -129.5 q187 0 291 118t104 326v588z" />
<glyph unicode="&#xdc;" horiz-adv-x="1427" d="M588 1475q-38 0 -60 20t-22 57t22 57.5t60 20.5q37 0 57.5 -20.5t20.5 -57.5t-20.5 -57t-57.5 -20zM946 1475q-37 0 -59.5 20.5t-22.5 56.5t22.5 57t59.5 21q38 0 59 -20.5t21 -57.5t-21 -57t-59 -20zM1171 1065q0 98 -42.5 144t-131.5 46q-6 0 -6 12.5t6 12.5 q27 0 92.5 -3t106.5 -3q33 0 95 3t87 3q4 0 4 -12.5t-4 -12.5q-83 0 -122 -46t-39 -144v-586q0 -239 -129.5 -372.5t-348.5 -133.5q-228 0 -363.5 133t-135.5 355v653q0 88 -33.5 114.5t-149.5 26.5q-5 0 -5 12.5t5 12.5q30 0 109 -3t127 -3q50 0 129 3t106 3q6 0 6 -12.5 t-6 -12.5q-115 0 -147.5 -27.5t-32.5 -117.5v-578q0 -240 112 -369.5t316 -129.5q187 0 291 118t104 326v588z" />
<glyph unicode="&#xdd;" horiz-adv-x="1243" d="M449 1391q-6 -3 -10 1.5t-4 10t3 8.5q60 28 120 60.5t127.5 71.5t105.5 59q15 7 78 -24q41 -20 38 -27q0 -2 -4 -3q-220 -55 -454 -157zM1251 1280q5 0 5 -12.5t-5 -12.5q-76 0 -147.5 -48t-128.5 -136l-289 -438v-467q0 -38 4 -60.5t13.5 -40t31 -25.5t51.5 -11.5 t80 -3.5q6 0 6 -12.5t-6 -12.5q-28 0 -106.5 2t-128.5 2q-48 0 -129 -2t-109 -2q-6 0 -6 12.5t6 12.5q117 0 151 26t34 115v436l-351 508q-54 80 -105.5 112.5t-125.5 32.5q-6 0 -6 12.5t6 12.5q24 0 75 -3t74 -3q59 0 151 3t122 3q4 0 4 -12.5t-4 -12.5q-85 0 -106.5 -18.5 t10.5 -62.5l344 -494l262 397q114 178 -66 178q-4 0 -4 12.5t4 12.5q32 0 103 -3t127 -3q35 0 82 3t77 3z" />
<glyph unicode="&#xde;" horiz-adv-x="1095" d="M543 301q69 0 130.5 21t110.5 62t78 109t29 154q0 164 -101 257t-266 93q-76 0 -143 -18v-805q0 -39 5.5 -63t20 -42.5t44.5 -27t73 -12.5t113 -4q6 0 6 -12.5t-6 -12.5q-40 0 -142 2t-167 2q-47 0 -127.5 -2t-110.5 -2q-4 0 -4 12.5t4 12.5q116 0 149 25.5t33 115.5v948 q0 89 -33 115t-149 26q-4 0 -4 12.5t4 12.5q30 0 110.5 -3t127.5 -3q65 0 167 3t142 3q6 0 6 -12.5t-6 -12.5q-87 0 -134.5 -5.5t-76.5 -23.5t-37 -45t-8 -77v-98q88 16 194 16q94 0 171 -18t138.5 -56t96.5 -104t37 -156q2 -84 -24.5 -154.5t-72 -118t-105.5 -80.5 t-123.5 -48t-127.5 -15q-43 0 -100 11q-5 1 -5.5 8t2.5 13t7 5q50 -8 74 -8z" />
<glyph unicode="&#xdf;" horiz-adv-x="1005" d="M696 -23q-86 0 -155 64q-13 9 -13 25l-4 172q0 5 12 5.5t13 -3.5q65 -224 209 -224q55 0 90 43.5t29 114.5q-3 49 -30 99.5t-55 82t-81 84.5q-42 42 -66.5 69.5t-54.5 69t-44 84t-14 87.5q0 54 20.5 102t50 86t59.5 77t50.5 91.5t20.5 112.5q0 40 -7.5 77t-26.5 76 t-58 62.5t-94 23.5q-123 0 -192.5 -144.5t-69.5 -400.5v-747q0 -90 25 -115.5t112 -25.5q4 0 4 -12.5t-4 -12.5q-33 0 -93 1t-91 1q-38 0 -105.5 -1t-91.5 -1q-6 0 -6 12.5t6 12.5q92 0 118.5 26t26.5 115l-2 752q0 270 108 419.5t298 149.5q54 0 98 -14t70.5 -35t44 -49 t24.5 -54t7 -51q0 -53 -23.5 -103.5t-56.5 -91t-66 -79.5t-56.5 -85.5t-23.5 -93.5q0 -36 13 -71.5t42.5 -74t53 -65t65.5 -69.5q44 -46 67.5 -73t54 -69t44 -82t13.5 -83q0 -103 -74 -185t-191 -82z" />
<glyph unicode="&#xe0;" horiz-adv-x="858" d="M438 971l-198 518q-3 7 12 7q35 1 76 -18q15 -7 16 -12l115 -491q3 -4 -6 -7q-13 -4 -15 3zM844 111q9 3 13 -8t-5 -15l-211 -100q-8 -4 -16 -4q-23 0 -42.5 37t-23.5 100l-135 -74q-67 -35 -104 -48t-74 -13q-63 0 -96 33.5t-33 82.5q0 52 41 86t143 70l258 92v172 q0 139 -37.5 192.5t-101.5 53.5q-52 0 -89.5 -29.5t-54 -66t-22.5 -76.5q-10 -68 -66 -68q-28 0 -44.5 15t-16.5 41q0 44 58.5 98t143 90.5t152.5 36.5q79 0 125.5 -56t46.5 -169v-363q0 -74 18 -107.5t60 -33.5q37 0 113 31zM408 70l151 75v7v176l-237 -90 q-45 -17 -63.5 -39.5t-18.5 -57.5q0 -42 25 -66t65 -24q34 0 78 19z" />
<glyph unicode="&#xe1;" horiz-adv-x="858" d="M422 971q-1 -4 -7 -4t-11.5 2.5t-4.5 5.5l117 491q3 13 59 26q50 10 46 -3zM844 111q9 3 13 -8t-5 -15l-211 -100q-8 -4 -16 -4q-23 0 -42.5 37t-23.5 100l-135 -74q-67 -35 -104 -48t-74 -13q-63 0 -96 33.5t-33 82.5q0 52 41 86t143 70l258 92v172q0 139 -37.5 192.5 t-101.5 53.5q-52 0 -89.5 -29.5t-54 -66t-22.5 -76.5q-10 -68 -66 -68q-28 0 -44.5 15t-16.5 41q0 44 58.5 98t143 90.5t152.5 36.5q79 0 125.5 -56t46.5 -169v-363q0 -74 18 -107.5t60 -33.5q37 0 113 31zM408 70l151 75v7v176l-237 -90q-45 -17 -63.5 -39.5t-18.5 -57.5 q0 -42 25 -66t65 -24q34 0 78 19z" />
<glyph unicode="&#xe2;" horiz-adv-x="858" d="M287 971q-1 -4 -7 -4t-11.5 2.5t-4.5 5.5l139 510q1 11 22.5 11t25.5 -11l137 -510q3 -4 -6 -7q-13 -4 -15 3l-139 366zM844 111q9 3 13 -8t-5 -15l-211 -100q-8 -4 -16 -4q-23 0 -42.5 37t-23.5 100l-135 -74q-67 -35 -104 -48t-74 -13q-63 0 -96 33.5t-33 82.5 q0 52 41 86t143 70l258 92v172q0 139 -37.5 192.5t-101.5 53.5q-52 0 -89.5 -29.5t-54 -66t-22.5 -76.5q-10 -68 -66 -68q-28 0 -44.5 15t-16.5 41q0 44 58.5 98t143 90.5t152.5 36.5q79 0 125.5 -56t46.5 -169v-363q0 -74 18 -107.5t60 -33.5q37 0 113 31zM408 70l151 75v7 v176l-237 -90q-45 -17 -63.5 -39.5t-18.5 -57.5q0 -42 25 -66t65 -24q34 0 78 19z" />
<glyph unicode="&#xe3;" horiz-adv-x="858" d="M168 987q-5 -3 -11.5 2.5t-2.5 11.5q90 117 172 117q32 0 117.5 -24.5t140.5 -24.5q25 0 45 9.5t30 18.5t25 27q5 3 11.5 -3.5t2.5 -10.5q-54 -70 -88 -94.5t-71 -24.5q-46 0 -132 25.5t-139 25.5q-13 0 -25 -2.5t-19.5 -5.5t-16.5 -10t-13 -10.5t-13.5 -13.5t-12.5 -13z M844 111q9 3 13 -8t-5 -15l-211 -100q-8 -4 -16 -4q-23 0 -42.5 37t-23.5 100l-135 -74q-67 -35 -104 -48t-74 -13q-63 0 -96 33.5t-33 82.5q0 52 41 86t143 70l258 92v172q0 139 -37.5 192.5t-101.5 53.5q-52 0 -89.5 -29.5t-54 -66t-22.5 -76.5q-10 -68 -66 -68 q-28 0 -44.5 15t-16.5 41q0 44 58.5 98t143 90.5t152.5 36.5q79 0 125.5 -56t46.5 -169v-363q0 -74 18 -107.5t60 -33.5q37 0 113 31zM408 70l151 75v7v176l-237 -90q-45 -17 -63.5 -39.5t-18.5 -57.5q0 -42 25 -66t65 -24q34 0 78 19z" />
<glyph unicode="&#xe4;" horiz-adv-x="858" d="M248 985q-38 0 -60 20.5t-22 57.5t22 57.5t60 20.5q37 0 57.5 -20.5t20.5 -57.5t-20.5 -57.5t-57.5 -20.5zM606 985q-37 0 -59.5 21t-22.5 57t22.5 57t59.5 21q38 0 59 -20.5t21 -57.5t-21 -57.5t-59 -20.5zM844 111q9 3 13 -8t-5 -15l-211 -100q-8 -4 -16 -4 q-23 0 -42.5 37t-23.5 100l-135 -74q-67 -35 -104 -48t-74 -13q-63 0 -96 33.5t-33 82.5q0 52 41 86t143 70l258 92v172q0 139 -37.5 192.5t-101.5 53.5q-52 0 -89.5 -29.5t-54 -66t-22.5 -76.5q-10 -68 -66 -68q-28 0 -44.5 15t-16.5 41q0 44 58.5 98t143 90.5t152.5 36.5 q79 0 125.5 -56t46.5 -169v-363q0 -74 18 -107.5t60 -33.5q37 0 113 31zM408 70l151 75v7v176l-237 -90q-45 -17 -63.5 -39.5t-18.5 -57.5q0 -42 25 -66t65 -24q34 0 78 19z" />
<glyph unicode="&#xe5;" horiz-adv-x="858" d="M408 958q-76 0 -123 48t-47 114q0 74 59 117t131 43q69 0 119.5 -48.5t50.5 -115.5q0 -71 -58 -114.5t-132 -43.5zM387 1260q-38 0 -55 -24t-17 -75q0 -70 34.5 -127t90.5 -57q40 0 59 24.5t19 77.5q0 73 -38 127t-93 54zM844 111q9 3 13 -8t-5 -15l-211 -100 q-8 -4 -16 -4q-23 0 -42.5 37t-23.5 100l-135 -74q-67 -35 -104 -48t-74 -13q-63 0 -96 33.5t-33 82.5q0 52 41 86t143 70l258 92v172q0 139 -37.5 192.5t-101.5 53.5q-52 0 -89.5 -29.5t-54 -66t-22.5 -76.5q-10 -68 -66 -68q-28 0 -44.5 15t-16.5 41q0 44 58.5 98 t143 90.5t152.5 36.5q79 0 125.5 -56t46.5 -169v-363q0 -74 18 -107.5t60 -33.5q37 0 113 31zM408 70l151 75v7v176l-237 -90q-45 -17 -63.5 -39.5t-18.5 -57.5q0 -42 25 -66t65 -24q34 0 78 19z" />
<glyph unicode="&#xe6;" horiz-adv-x="1206" d="M1120 111q6 3 13.5 -6t1.5 -15q-123 -115 -275 -115q-198 0 -274 156l-176 -90q-65 -33 -98 -44t-72 -11q-63 0 -100.5 33.5t-37.5 84.5q0 49 39.5 79.5t145.5 68.5l252 86v10q-3 68 -4.5 103t-5.5 86.5t-9 76t-13 57.5t-19 48t-27 30.5t-36.5 21t-47.5 5.5 q-38 0 -66 -15.5t-44 -43t-24.5 -56t-13.5 -65.5q-6 -68 -61 -68q-31 0 -47.5 17t-16.5 43q0 44 49.5 96t125 88.5t143.5 36.5q70 0 124.5 -41t69.5 -109q57 71 136.5 110.5t171.5 39.5q97 0 149.5 -54t52.5 -149q0 -45 -24 -45l-453 -2q-12 -52 -12 -119q1 -38 3 -64 t8.5 -71.5t17.5 -78t32 -71t49.5 -62t72.5 -40t98 -16.5q122 0 202 74zM856 768q-74 0 -127 -48.5t-76 -135.5l351 8q0 84 -41 130t-107 46zM393 61l185 89q-28 71 -37 165l-234 -86q-46 -15 -64 -33.5t-18 -50.5q0 -43 24.5 -68.5t65.5 -25.5q49 0 78 10z" />
<glyph unicode="&#xe7;" horiz-adv-x="833" d="M754 111q4 2 9 -1.5t6.5 -8t-1.5 -7.5q-133 -119 -297 -119h-14q-23 -68 -25 -95t10 -41t55 -38q16 -9 25 -14q111 -64 111 -158q0 -74 -52 -133t-151 -59q-54 0 -90.5 19.5t-36.5 54.5q0 25 16.5 40t40.5 15q21 0 35 -14t21 -31t25.5 -31t47.5 -14q76 0 76 84 q0 54 -38 95t-138 95q-30 17 -32 25.5t12 38.5q26 63 61 163q-90 6 -160 44t-111 96t-62 124.5t-21 137.5q0 99 39.5 182t103 136t140.5 82.5t155 29.5q88 0 161 -34.5t73 -82.5q0 -25 -16.5 -42t-43.5 -17q-48 0 -82 57q-28 39 -62.5 58.5t-94.5 19.5q-122 0 -189 -89.5 t-67 -240.5q0 -81 20.5 -151.5t61.5 -126.5t110 -88.5t158 -32.5q131 0 211 72z" />
<glyph unicode="&#xe8;" horiz-adv-x="829" d="M473 971l-199 518q-3 7 11 7q35 1 77 -18q16 -7 17 -12l115 -491q3 -4 -6 -7q-13 -4 -15 3zM731 111q3 2 7.5 -2t6.5 -9.5t0 -9.5q-135 -115 -292 -115q-120 0 -207.5 57.5t-128.5 145t-41 191.5q0 186 125 313t309 127q106 0 165.5 -54.5t59.5 -148.5q0 -25 -5 -35 t-19 -10l-508 -2q-10 -58 -10 -113q0 -179 86.5 -292t238.5 -113q119 0 213 70zM440 768q-179 0 -231 -186l403 10q0 84 -47 130t-125 46z" />
<glyph unicode="&#xe9;" horiz-adv-x="829" d="M457 971q-1 -4 -7 -4t-11.5 2.5t-4.5 5.5l117 491q3 13 60 26q48 10 44 -3zM731 111q3 2 7.5 -2t6.5 -9.5t0 -9.5q-135 -115 -292 -115q-120 0 -207.5 57.5t-128.5 145t-41 191.5q0 186 125 313t309 127q106 0 165.5 -54.5t59.5 -148.5q0 -25 -5 -35t-19 -10l-508 -2 q-10 -58 -10 -113q0 -179 86.5 -292t238.5 -113q119 0 213 70zM440 768q-179 0 -231 -186l403 10q0 84 -47 130t-125 46z" />
<glyph unicode="&#xea;" horiz-adv-x="829" d="M322 971q-1 -4 -7 -4t-11.5 2.5t-4.5 5.5l139 510q2 11 22.5 11t24.5 -11l138 -510q3 -4 -6 -7q-13 -4 -15 3l-139 366zM731 111q3 2 7.5 -2t6.5 -9.5t0 -9.5q-135 -115 -292 -115q-120 0 -207.5 57.5t-128.5 145t-41 191.5q0 186 125 313t309 127q106 0 165.5 -54.5 t59.5 -148.5q0 -25 -5 -35t-19 -10l-508 -2q-10 -58 -10 -113q0 -179 86.5 -292t238.5 -113q119 0 213 70zM440 768q-179 0 -231 -186l403 10q0 84 -47 130t-125 46z" />
<glyph unicode="&#xeb;" horiz-adv-x="829" d="M283 985q-38 0 -60 20.5t-22 57.5t22 57.5t60 20.5q37 0 57 -20.5t20 -57.5t-20 -57.5t-57 -20.5zM641 985q-37 0 -59.5 21t-22.5 57t22.5 57t59.5 21q38 0 59 -20.5t21 -57.5t-21 -57.5t-59 -20.5zM731 111q3 2 7.5 -2t6.5 -9.5t0 -9.5q-135 -115 -292 -115 q-120 0 -207.5 57.5t-128.5 145t-41 191.5q0 186 125 313t309 127q106 0 165.5 -54.5t59.5 -148.5q0 -25 -5 -35t-19 -10l-508 -2q-10 -58 -10 -113q0 -179 86.5 -292t238.5 -113q119 0 213 70zM440 768q-179 0 -231 -186l403 10q0 84 -47 130t-125 46z" />
<glyph unicode="&#xec;" horiz-adv-x="563" d="M96 1489q-3 7 11 7q35 1 77 -18q16 -7 17 -12l114 -491q3 -4 -6 -7q-11 -2 -14 3zM117 0q-5 0 -5 12.5t5 12.5q85 0 110 26t25 115v387q0 75 -15 108t-53 33q-42 0 -98 -30q-9 -3 -13.5 8t3.5 16l254 119l8 2q5 0 9.5 -4t4.5 -10q0 -5 -1 -39.5t-2 -89.5t-1 -111v-389 q0 -90 23.5 -115.5t109.5 -25.5q6 0 6 -12.5t-6 -12.5q-21 0 -82.5 2t-99.5 2t-99 -2t-83 -2z" />
<glyph unicode="&#xed;" horiz-adv-x="563" d="M279 971q-1 -4 -7 -4t-11.5 2.5t-4.5 5.5l117 491q3 13 60 26q48 10 44 -3zM117 0q-5 0 -5 12.5t5 12.5q85 0 110 26t25 115v387q0 75 -15 108t-53 33q-42 0 -98 -30q-9 -3 -13.5 8t3.5 16l254 119l8 2q5 0 9.5 -4t4.5 -10q0 -5 -1 -39.5t-2 -89.5t-1 -111v-389 q0 -90 23.5 -115.5t109.5 -25.5q6 0 6 -12.5t-6 -12.5q-21 0 -82.5 2t-99.5 2t-99 -2t-83 -2z" />
<glyph unicode="&#xee;" horiz-adv-x="563" d="M444 975q3 -4 -6 -7q-11 -2 -14 3l-139 366l-142 -366q-1 -4 -7 -4t-11 2.5t-4 5.5l139 510q2 11 22.5 11t24.5 -11zM117 0q-5 0 -5 12.5t5 12.5q85 0 110 26t25 115v387q0 75 -15 108t-53 33q-42 0 -98 -30q-9 -3 -13.5 8t3.5 16l254 119l8 2q5 0 9.5 -4t4.5 -10 q0 -5 -1 -39.5t-2 -89.5t-1 -111v-389q0 -90 23.5 -115.5t109.5 -25.5q6 0 6 -12.5t-6 -12.5q-21 0 -82.5 2t-99.5 2t-99 -2t-83 -2z" />
<glyph unicode="&#xef;" horiz-adv-x="563" d="M139 985q-37 0 -59.5 21t-22.5 57t22.5 57t59.5 21q38 0 59 -20.5t21 -57.5t-21 -57.5t-59 -20.5zM428 985q-38 0 -60 20.5t-22 57.5t22 57.5t60 20.5q37 0 57.5 -20.5t20.5 -57.5t-20.5 -57.5t-57.5 -20.5zM117 0q-5 0 -5 12.5t5 12.5q85 0 110 26t25 115v387 q0 75 -15 108t-53 33q-42 0 -98 -30q-9 -3 -13.5 8t3.5 16l254 119l8 2q5 0 9.5 -4t4.5 -10q0 -5 -1 -39.5t-2 -89.5t-1 -111v-389q0 -90 23.5 -115.5t109.5 -25.5q6 0 6 -12.5t-6 -12.5q-21 0 -82.5 2t-99.5 2t-99 -2t-83 -2z" />
<glyph unicode="&#xf0;" horiz-adv-x="962" d="M616 1163q130 -154 200.5 -335.5t70.5 -362.5q0 -126 -34.5 -223t-94.5 -154.5t-136 -86t-165 -28.5q-171 0 -276 119.5t-105 288.5q0 107 39.5 193.5t102 137.5t134 78t142.5 27q121 0 223 -76q-60 203 -182 383l-279 -133q-5 -2 -10.5 6.5t-6 17.5t4.5 13l268 127 q-145 199 -328 311q-9 4 1 15q6 6 12 4q226 -106 393 -293l215 102q5 2 10.5 -7t6 -18t-4.5 -12zM514 10q59 0 104 19t79.5 62t52.5 118t18 182q0 105 -23 227q-40 77 -113 119.5t-165 42.5q-119 0 -196.5 -90.5t-77.5 -249.5q0 -179 89.5 -304.5t231.5 -125.5z" />
<glyph unicode="&#xf1;" horiz-adv-x="1054" d="M293 987q-5 -3 -11.5 2.5t-2.5 11.5q90 117 172 117q32 0 117.5 -24.5t140.5 -24.5q25 0 45 9.5t30 18.5t25 27q6 4 13 -5q5 -5 1 -9q-54 -70 -88 -94.5t-71 -24.5q-46 0 -132 25.5t-139 25.5q-13 0 -25 -2.5t-19.5 -5.5t-16.5 -10t-13 -10.5t-13.5 -13.5t-12.5 -13z M1008 25q6 0 6 -12.5t-6 -12.5q-21 0 -82.5 2t-98.5 2q-38 0 -99.5 -2t-82.5 -2q-6 0 -6 12.5t6 12.5q85 0 109 26t24 115v342q0 124 -47 182t-147 58q-65 0 -134 -37.5t-126 -104.5v-440q0 -90 23.5 -115.5t109.5 -25.5q6 0 6 -12.5t-6 -12.5q-21 0 -82.5 2t-98.5 2 q-38 0 -99.5 -2t-82.5 -2q-6 0 -6 12.5t6 12.5q85 0 109 26t24 115v409q0 71 -16.5 102.5t-56.5 31.5q-31 0 -115 -31q-9 -3 -14 7.5t4 14.5l227 107q4 2 10 2q10 0 23 -18t24 -57.5t11 -88.5v-8q82 95 158 137.5t157 42.5q114 0 174.5 -62t60.5 -186v-403q0 -90 24 -115.5 t110 -25.5z" />
<glyph unicode="&#xf2;" d="M303 1489q-3 7 11 7q35 1 77 -18q16 -7 17 -12l114 -491q3 -4 -6 -7q-12 -4 -14 3zM471 -27q-176 0 -285.5 127t-109.5 306q0 102 39.5 183t103.5 129.5t138 73.5t151 25q118 0 209.5 -61.5t137.5 -157t46 -203.5q0 -190 -125 -306t-305 -116zM528 10q120 0 187 80.5 t67 251.5q0 188 -95 312t-247 124q-118 0 -182.5 -81t-64.5 -232q0 -122 41 -225.5t118.5 -166.5t175.5 -63z" />
<glyph unicode="&#xf3;" d="M485 971q-1 -4 -7 -4t-11 2.5t-4 5.5l117 491q3 13 60 26q48 10 44 -3zM471 -27q-176 0 -285.5 127t-109.5 306q0 102 39.5 183t103.5 129.5t138 73.5t151 25q118 0 209.5 -61.5t137.5 -157t46 -203.5q0 -190 -125 -306t-305 -116zM528 10q120 0 187 80.5t67 251.5 q0 188 -95 312t-247 124q-118 0 -182.5 -81t-64.5 -232q0 -122 41 -225.5t118.5 -166.5t175.5 -63z" />
<glyph unicode="&#xf4;" d="M651 975q3 -4 -6 -7q-12 -4 -14 3l-139 366l-142 -366q-1 -4 -7 -4t-11 2.5t-4 5.5l139 510q1 11 22 11t25 -11zM471 -27q-176 0 -285.5 127t-109.5 306q0 102 39.5 183t103.5 129.5t138 73.5t151 25q118 0 209.5 -61.5t137.5 -157t46 -203.5q0 -190 -125 -306t-305 -116 zM528 10q120 0 187 80.5t67 251.5q0 188 -95 312t-247 124q-118 0 -182.5 -81t-64.5 -232q0 -122 41 -225.5t118.5 -166.5t175.5 -63z" />
<glyph unicode="&#xf5;" d="M647 1069q25 0 45.5 9t30.5 18.5t25 27.5q5 3 11.5 -3.5t2.5 -10.5q-53 -69 -88 -94t-72 -25q-46 0 -131.5 25.5t-138.5 25.5q-13 0 -25 -2.5t-19.5 -5t-17 -10t-13 -10.5t-14 -14t-12.5 -13q-5 -3 -11.5 2.5t-2.5 11.5q90 117 172 117q32 0 117.5 -24.5t140.5 -24.5z M471 -27q-176 0 -285.5 127t-109.5 306q0 102 39.5 183t103.5 129.5t138 73.5t151 25q118 0 209.5 -61.5t137.5 -157t46 -203.5q0 -190 -125 -306t-305 -116zM528 10q120 0 187 80.5t67 251.5q0 188 -95 312t-247 124q-118 0 -182.5 -81t-64.5 -232q0 -122 41 -225.5 t118.5 -166.5t175.5 -63z" />
<glyph unicode="&#xf6;" d="M311 985q-38 0 -60 20.5t-22 57.5t22 57.5t60 20.5q37 0 57.5 -20.5t20.5 -57.5t-20.5 -57.5t-57.5 -20.5zM670 985q-37 0 -59.5 21t-22.5 57t22.5 57t59.5 21q38 0 59 -20.5t21 -57.5t-21 -57.5t-59 -20.5zM471 -27q-176 0 -285.5 127t-109.5 306q0 102 39.5 183 t103.5 129.5t138 73.5t151 25q118 0 209.5 -61.5t137.5 -157t46 -203.5q0 -190 -125 -306t-305 -116zM528 10q120 0 187 80.5t67 251.5q0 188 -95 312t-247 124q-118 0 -182.5 -81t-64.5 -232q0 -122 41 -225.5t118.5 -166.5t175.5 -63z" />
<glyph unicode="&#xf7;" horiz-adv-x="815" d="M406 655q-38 0 -60 21.5t-22 58.5q0 35 22 55.5t60 20.5q36 0 56.5 -20.5t20.5 -55.5q0 -37 -20.5 -58.5t-56.5 -21.5zM70 350q-6 0 -8 19t-0.5 38t6.5 19h677q9 0 9 -38t-9 -38h-675zM406 -23q-38 0 -60 21.5t-22 58.5q0 35 22 55.5t60 20.5q36 0 56.5 -20.5t20.5 -55.5 q0 -37 -20.5 -58.5t-56.5 -21.5z" />
<glyph unicode="&#xf8;" d="M795 688q106 -118 106 -293q0 -190 -125 -306t-305 -116q-156 0 -266 107l-105 -109q-3 -4 -11 1.5t-13.5 14t-1.5 13.5l104 109q-102 121 -102 297q0 102 39.5 183t103.5 129.5t138 73.5t151 25q152 0 260 -100l96 98q4 3 13 -1t15 -11t1 -12zM193 465q0 -157 65 -275 l438 451q-45 65 -111 101t-145 36q-118 0 -182.5 -81t-64.5 -232zM528 10q120 0 187 80.5t67 251.5q0 157 -65 266l-438 -452q98 -146 249 -146z" />
<glyph unicode="&#xf9;" horiz-adv-x="1003" d="M489 971l-198 518q-3 7 12 7q35 1 76 -18q15 -7 16 -12l115 -491q3 -4 -6 -7q-13 -4 -15 3zM987 113q9 3 13.5 -7.5t-3.5 -15.5l-229 -106q-4 -2 -8 -2q-11 0 -24 17.5t-23.5 57t-10.5 88.5v19q-161 -178 -333 -178q-101 0 -157 63.5t-56 186.5v317q0 84 -13.5 120 t-46.5 36q-26 0 -73 -21q-6 -3 -11 2.5t-5 11.5t5 9l215 96q4 2 9 2q4 0 10 -4.5t6 -9.5v-498q0 -124 42.5 -183t129.5 -59q72 0 145 38t133 106v354q0 85 -13 120.5t-48 35.5q-27 0 -74 -21q-6 -3 -10 2t-4 12t6 9l215 96q4 2 6 2q5 0 11 -4t6 -10v-580q0 -70 17 -101.5 t58 -31.5q27 0 115 31z" />
<glyph unicode="&#xfa;" horiz-adv-x="1003" d="M473 971q-1 -4 -7 -4t-11 2.5t-4 5.5l116 491q3 13 59 26q50 10 46 -3zM987 113q9 3 13.5 -7.5t-3.5 -15.5l-229 -106q-4 -2 -8 -2q-11 0 -24 17.5t-23.5 57t-10.5 88.5v19q-161 -178 -333 -178q-101 0 -157 63.5t-56 186.5v317q0 84 -13.5 120t-46.5 36q-26 0 -73 -21 q-6 -3 -11 2.5t-5 11.5t5 9l215 96q4 2 9 2q4 0 10 -4.5t6 -9.5v-498q0 -124 42.5 -183t129.5 -59q72 0 145 38t133 106v354q0 85 -13 120.5t-48 35.5q-27 0 -74 -21q-6 -3 -10 2t-4 12t6 9l215 96q4 2 6 2q5 0 11 -4t6 -10v-580q0 -70 17 -101.5t58 -31.5q27 0 115 31z" />
<glyph unicode="&#xfb;" horiz-adv-x="1003" d="M338 971q-1 -4 -7 -4t-11.5 2.5t-4.5 5.5l140 510q1 11 22 11t25 -11l137 -510q3 -4 -6 -7q-13 -4 -15 3l-139 366zM987 113q9 3 13.5 -7.5t-3.5 -15.5l-229 -106q-4 -2 -8 -2q-11 0 -24 17.5t-23.5 57t-10.5 88.5v19q-161 -178 -333 -178q-101 0 -157 63.5t-56 186.5 v317q0 84 -13.5 120t-46.5 36q-26 0 -73 -21q-6 -3 -11 2.5t-5 11.5t5 9l215 96q4 2 9 2q4 0 10 -4.5t6 -9.5v-498q0 -124 42.5 -183t129.5 -59q72 0 145 38t133 106v354q0 85 -13 120.5t-48 35.5q-27 0 -74 -21q-6 -3 -10 2t-4 12t6 9l215 96q4 2 6 2q5 0 11 -4t6 -10v-580 q0 -70 17 -101.5t58 -31.5q27 0 115 31z" />
<glyph unicode="&#xfc;" horiz-adv-x="1003" d="M299 985q-38 0 -60 20.5t-22 57.5t22 57.5t60 20.5q37 0 57.5 -20.5t20.5 -57.5t-20.5 -57.5t-57.5 -20.5zM657 985q-37 0 -59.5 21t-22.5 57t22.5 57t59.5 21q38 0 59 -20.5t21 -57.5t-21 -57.5t-59 -20.5zM987 113q9 3 13.5 -7.5t-3.5 -15.5l-229 -106q-4 -2 -8 -2 q-11 0 -24 17.5t-23.5 57t-10.5 88.5v19q-161 -178 -333 -178q-101 0 -157 63.5t-56 186.5v317q0 84 -13.5 120t-46.5 36q-26 0 -73 -21q-6 -3 -11 2.5t-5 11.5t5 9l215 96q4 2 9 2q4 0 10 -4.5t6 -9.5v-498q0 -124 42.5 -183t129.5 -59q72 0 145 38t133 106v354 q0 85 -13 120.5t-48 35.5q-27 0 -74 -21q-6 -3 -10 2t-4 12t6 9l215 96q4 2 6 2q5 0 11 -4t6 -10v-580q0 -70 17 -101.5t58 -31.5q27 0 115 31z" />
<glyph unicode="&#xfd;" horiz-adv-x="894" d="M457 971q-1 -4 -7 -4t-11.5 2.5t-4.5 5.5l117 491q3 13 60 26q48 10 44 -3zM879 791q6 0 6 -12.5t-6 -12.5q-50 0 -84.5 -30.5t-63.5 -110.5l-256 -682q-76 -199 -143 -311t-138 -159.5t-165 -47.5q-42 0 -70.5 19t-28.5 56q0 24 16.5 37.5t39.5 13.5q42 0 82 -23.5 t73 -23.5q75 0 144 105.5t174 384.5l-307 627q-46 89 -72 117t-64 28q-4 0 -4 12.5t4 12.5q20 0 63 -2.5t64 -2.5q48 0 116 2.5t91 2.5q4 0 4 -12.5t-4 -12.5q-72 0 -104.5 -18t-9.5 -62l278 -569l174 499q30 88 -1 119t-148 31q-5 0 -5 12.5t5 12.5q29 0 92 -2.5t114 -2.5 q29 0 70 2.5t64 2.5z" />
<glyph unicode="&#xfe;" horiz-adv-x="1003" d="M616 817q129 0 220.5 -102t91.5 -275q0 -94 -29 -173.5t-75.5 -132.5t-105.5 -90t-117 -54t-112 -17q-69 0 -121.5 15t-107.5 51v-436q0 -88 39.5 -115t171.5 -27q6 0 6 -12t-6 -12q-33 0 -119 2t-137 2q-38 0 -100 -2t-84 -2q-5 0 -5 12t5 12q84 0 109.5 27t25.5 115 v1626q0 75 -15 108t-53 33q-31 0 -98 -31q-6 -3 -11 2.5t-4.5 11.5t5.5 9l248 121q4 2 8 2q5 0 9.5 -4.5t4.5 -10.5v-843q178 190 356 190zM555 14q112 0 186 98.5t74 264.5q0 176 -77 274.5t-197 98.5q-78 0 -144.5 -40.5t-136.5 -115.5v-440q60 -68 128 -104t167 -36z" />
<glyph unicode="&#xff;" horiz-adv-x="894" d="M283 985q-38 0 -60 20.5t-22 57.5t22 57.5t60 20.5q37 0 57 -20.5t20 -57.5t-20 -57.5t-57 -20.5zM641 985q-37 0 -59.5 21t-22.5 57t22.5 57t59.5 21q38 0 59 -20.5t21 -57.5t-21 -57.5t-59 -20.5zM879 791q6 0 6 -12.5t-6 -12.5q-50 0 -84.5 -30.5t-63.5 -110.5 l-256 -682q-76 -199 -143 -311t-138 -159.5t-165 -47.5q-42 0 -70.5 19t-28.5 56q0 24 16.5 37.5t39.5 13.5q42 0 82 -23.5t73 -23.5q75 0 144 105.5t174 384.5l-307 627q-46 89 -72 117t-64 28q-4 0 -4 12.5t4 12.5q20 0 63 -2.5t64 -2.5q48 0 116 2.5t91 2.5q4 0 4 -12.5 t-4 -12.5q-72 0 -104.5 -18t-9.5 -62l278 -569l174 499q30 88 -1 119t-148 31q-5 0 -5 12.5t5 12.5q29 0 92 -2.5t114 -2.5q29 0 70 2.5t64 2.5z" />
<glyph unicode="&#x152;" horiz-adv-x="1863" d="M1735 297q0 6 11 6t11 -6q-18 -162 -18 -266q0 -18 -6.5 -24.5t-24.5 -6.5h-598q-45 0 -150 -4t-155 -4q-152 0 -284 48t-224 131.5t-144.5 198.5t-52.5 246q0 150 56.5 277t152 211.5t223 132t269.5 47.5q36 0 142 -2t155 -2h573q21 0 21 -18l4 -248q0 -6 -12.5 -6 t-12.5 6q0 102 -55.5 164.5t-145.5 62.5h-141q-113 0 -144.5 -23.5t-31.5 -105.5v-426h270q94 0 131 31.5t37 109.5q0 5 11.5 5t11.5 -5q0 -44 -1 -92t-1 -69q0 -30 2 -90t2 -95q0 -5 -11.5 -5t-11.5 5q0 92 -39 129t-139 37h-262v-473q0 -86 31.5 -110.5t144.5 -24.5h191 q79 0 138.5 71t76.5 187zM1044 168v919q0 92 -46 131t-177 39q-173 0 -305 -67.5t-208.5 -203.5t-76.5 -324q0 -134 41 -252t115 -205t183 -137t239 -50q133 0 184 28.5t51 121.5z" />
<glyph unicode="&#x153;" horiz-adv-x="1402" d="M1317 111q6 3 13 -6t1 -15q-123 -115 -268 -115q-120 0 -204.5 50t-125.5 137q-51 -90 -133 -139.5t-180 -49.5q-161 0 -264 127t-103 306q0 101 37.5 182.5t97.5 130t129.5 73.5t139.5 25q110 0 189.5 -58t117.5 -155q59 94 151.5 149.5t204.5 55.5q97 0 150 -54 t53 -149q0 -45 -25 -45l-485 -2q-16 -66 -16 -135q0 -178 90 -280.5t241 -102.5q114 0 189 70zM475 10q100 0 158.5 88t58.5 250q0 194 -83.5 312t-217.5 118q-104 0 -163.5 -81t-59.5 -232q0 -123 39.5 -227t110.5 -166t157 -62zM1051 768q-85 0 -144.5 -48.5t-87.5 -135.5 l381 8q0 84 -40.5 130t-108.5 46z" />
<glyph unicode="&#x178;" horiz-adv-x="1243" d="M469 1475q-38 0 -60 20t-22 57t22 57.5t60 20.5q37 0 57.5 -20.5t20.5 -57.5t-20.5 -57t-57.5 -20zM827 1475q-37 0 -59.5 20.5t-22.5 56.5t22.5 57t59.5 21q38 0 59 -20.5t21 -57.5t-21 -57t-59 -20zM1251 1280q5 0 5 -12.5t-5 -12.5q-76 0 -147.5 -48t-128.5 -136 l-289 -438v-467q0 -38 4 -60.5t13.5 -40t31 -25.5t51.5 -11.5t80 -3.5q6 0 6 -12.5t-6 -12.5q-28 0 -106.5 2t-128.5 2q-48 0 -129 -2t-109 -2q-6 0 -6 12.5t6 12.5q117 0 151 26t34 115v436l-351 508q-54 80 -105.5 112.5t-125.5 32.5q-6 0 -6 12.5t6 12.5q24 0 75 -3 t74 -3q59 0 151 3t122 3q4 0 4 -12.5t-4 -12.5q-85 0 -106.5 -18.5t10.5 -62.5l344 -494l262 397q114 178 -66 178q-4 0 -4 12.5t4 12.5q32 0 103 -3t127 -3q35 0 82 3t77 3z" />
<glyph unicode="&#x2c6;" horiz-adv-x="536" d="M442 975q3 -4 -6 -7q-11 -2 -14 3l-139 366l-142 -366q-1 -4 -7 -4t-11 2.5t-4 5.5l139 510q2 11 22.5 11t24.5 -11z" />
<glyph unicode="&#x2dc;" horiz-adv-x="786" d="M553 1069q25 0 45 9.5t30 18.5t25 27q3 2 8 -0.5t7 -6.5t0 -7q-53 -69 -88 -94t-72 -25q-46 0 -131.5 25.5t-138.5 25.5q-13 0 -25 -2.5t-19.5 -5t-17 -10t-13 -10.5t-14 -14t-12.5 -13q-5 -3 -11.5 2.5t-2.5 11.5q90 117 172 117q32 0 117.5 -24.5t140.5 -24.5z" />
<glyph unicode="&#x2000;" horiz-adv-x="841" />
<glyph unicode="&#x2001;" horiz-adv-x="1683" />
<glyph unicode="&#x2002;" horiz-adv-x="841" />
<glyph unicode="&#x2003;" horiz-adv-x="1683" />
<glyph unicode="&#x2004;" horiz-adv-x="561" />
<glyph unicode="&#x2005;" horiz-adv-x="420" />
<glyph unicode="&#x2006;" horiz-adv-x="280" />
<glyph unicode="&#x2007;" horiz-adv-x="280" />
<glyph unicode="&#x2008;" horiz-adv-x="210" />
<glyph unicode="&#x2009;" horiz-adv-x="336" />
<glyph unicode="&#x200a;" horiz-adv-x="93" />
<glyph unicode="&#x2010;" horiz-adv-x="661" d="M66 344q-6 -1 -8.5 18.5t-1.5 40t5 21.5l535 96q6 1 8 -18.5t0 -40t-8 -21.5z" />
<glyph unicode="&#x2011;" horiz-adv-x="661" d="M66 344q-6 -1 -8.5 18.5t-1.5 40t5 21.5l535 96q6 1 8 -18.5t0 -40t-8 -21.5z" />
<glyph unicode="&#x2012;" horiz-adv-x="661" d="M66 344q-6 -1 -8.5 18.5t-1.5 40t5 21.5l535 96q6 1 8 -18.5t0 -40t-8 -21.5z" />
<glyph unicode="&#x2013;" horiz-adv-x="1054" d="M70 350q-6 0 -8 19t-0.5 38t6.5 19h917q9 0 9 -38t-9 -38h-915z" />
<glyph unicode="&#x2014;" horiz-adv-x="1699" d="M70 350q-6 0 -8 19t-0.5 38t6.5 19h1562q9 0 9 -38t-9 -38h-1560z" />
<glyph unicode="&#x2018;" horiz-adv-x="401" d="M229 946q35 0 54.5 -19.5t19.5 -52.5q0 -71 -84 -71q-60 0 -93.5 44t-33.5 130q0 162 141 319q7 6 14.5 -1t2.5 -13q-43 -63 -57.5 -118t-14.5 -124q0 -53 21 -100q15 6 30 6z" />
<glyph unicode="&#x2019;" horiz-adv-x="397" d="M178 1300q60 0 93.5 -44t33.5 -130q0 -162 -141 -319q-7 -6 -14.5 1t-2.5 13q43 63 57.5 118t14.5 124q0 55 -20 100q-15 -6 -31 -6q-35 0 -54.5 19.5t-19.5 52.5q0 71 84 71z" />
<glyph unicode="&#x201a;" horiz-adv-x="397" d="M178 127q60 0 93.5 -44t33.5 -130q0 -163 -141 -320q-7 -6 -14.5 1.5t-2.5 13.5q43 63 57.5 118t14.5 123q0 56 -20 101q-15 -6 -31 -6q-35 0 -54.5 19t-19.5 52q0 72 84 72z" />
<glyph unicode="&#x201c;" horiz-adv-x="686" d="M231 946q35 0 54.5 -19.5t19.5 -52.5q0 -71 -84 -71q-60 0 -93.5 44t-33.5 130q0 161 142 319q7 6 14 -1t2 -13q-43 -63 -57.5 -118t-14.5 -124q0 -53 21 -100q15 6 30 6zM518 946q35 0 54.5 -19.5t19.5 -52.5q0 -71 -84 -71q-60 0 -93.5 44t-33.5 130q0 162 141 319 q7 6 14.5 -1t2.5 -13q-43 -63 -57.5 -118t-14.5 -124q0 -55 20 -100q15 6 31 6z" />
<glyph unicode="&#x201d;" horiz-adv-x="686" d="M178 1300q60 0 93.5 -44t33.5 -130q0 -162 -141 -319q-7 -6 -14.5 1t-2.5 13q43 63 57.5 118t14.5 124q0 55 -20 100q-15 -6 -31 -6q-35 0 -54.5 19.5t-19.5 52.5q0 71 84 71zM465 1300q60 0 93.5 -44t33.5 -130q0 -162 -141 -319q-7 -6 -14.5 1t-2.5 13q43 63 57.5 118 t14.5 124q0 53 -21 100q-15 -6 -30 -6q-35 0 -54.5 19.5t-19.5 52.5q0 71 84 71z" />
<glyph unicode="&#x201e;" horiz-adv-x="686" d="M178 127q60 0 93.5 -44t33.5 -130q0 -163 -141 -320q-7 -6 -14.5 1.5t-2.5 13.5q43 63 57.5 118t14.5 123q0 56 -20 101q-15 -6 -31 -6q-35 0 -54.5 19t-19.5 52q0 72 84 72zM465 127q60 0 93.5 -44t33.5 -130q0 -163 -141 -320q-7 -6 -14.5 1.5t-2.5 13.5 q43 63 57.5 118t14.5 123q0 54 -21 101q-15 -6 -30 -6q-35 0 -54.5 19t-19.5 52q0 72 84 72z" />
<glyph unicode="&#x2022;" horiz-adv-x="616" d="M309 319q-80 0 -135 55t-55 134q0 77 55.5 131.5t134.5 54.5q77 0 132 -55t55 -131q0 -79 -55 -134t-132 -55z" />
<glyph unicode="&#x2026;" horiz-adv-x="1357" d="M201 -23q-37 0 -59.5 21.5t-22.5 58.5q0 35 22.5 55.5t59.5 20.5q38 0 59 -20t21 -56q0 -37 -21 -58.5t-59 -21.5zM680 -23q-37 0 -59.5 21.5t-22.5 58.5q0 35 22.5 55.5t59.5 20.5q38 0 59 -20t21 -56q0 -37 -21 -58.5t-59 -21.5zM1159 -23q-37 0 -59.5 21.5t-22.5 58.5 q0 35 22.5 55.5t59.5 20.5q38 0 59 -20t21 -56q0 -37 -21 -58.5t-59 -21.5z" />
<glyph unicode="&#x202f;" horiz-adv-x="336" />
<glyph unicode="&#x2039;" horiz-adv-x="622" d="M481 82l-356 305q-9 9 -9 23.5t9 23.5l356 305q2 3 6.5 2t7.5 -5t1 -7l-267 -317l267 -318q2 -7 -7 -13q-6 -3 -8 1z" />
<glyph unicode="&#x203a;" horiz-adv-x="622" d="M141 739l357 -305q9 -9 9 -23.5t-9 -23.5l-357 -305q-4 -7 -11 1q-5 6 -3 11l266 316l-266 319q-2 5 6 11q6 2 8 -1z" />
<glyph unicode="&#x205f;" horiz-adv-x="420" />
<glyph unicode="&#x20ac;" horiz-adv-x="1202" d="M111 518q-15 0 -15 20.5t15 20.5h90q31 186 185.5 305t373.5 119q198 0 301 -68q10 -6 14 -8t10 -7t7.5 -9t1.5 -10.5t-4 -14.5l-76 -172q-2 -2 -8 -2t-11.5 4t-3.5 9q27 69 -11 128.5t-112 91t-157 31.5q-157 0 -267 -112.5t-122 -284.5h634q13 0 6 -20q-9 -21 -24 -21 h-827zM1087 264q1 6 13 4t12 -8l-29 -192q-3 -18 -7 -24t-21 -13q-163 -56 -330 -56q-118 0 -212.5 34.5t-155 93t-97.5 126t-53 144.5h-94q-13 0 -13 20.5t13 20.5h790q14 0 5 -21q-8 -20 -21 -20h-553q36 -161 142.5 -267t268.5 -106q129 0 219 65.5t123 198.5z" />
<glyph unicode="&#x2122;" horiz-adv-x="1464" d="M582 1311q2 5 13 5t11 -5q-8 -172 -8 -187q0 -4 -11.5 -4t-11.5 4q0 86 -20.5 109.5t-89.5 23.5q-54 0 -71 -15.5t-17 -59.5v-379q0 -45 18.5 -59.5t83.5 -14.5q3 0 3 -12t-3 -12q-17 0 -64.5 1t-78.5 1q-27 0 -74 -1t-65 -1q-3 0 -3 12t3 12q64 0 83 14.5t19 59.5v381 q0 45 -16.5 59t-71.5 14q-70 0 -94 -24t-33 -109q0 -4 -12.5 -4t-12.5 4q13 72 13 181q0 6 12 6.5t12 -6.5q0 -23 56 -23q23 0 85.5 -1t98.5 -1q43 0 95 1t69 1q41 0 59.5 5t22.5 24zM1399 729q3 0 3 -12t-3 -12q-15 0 -58 1t-67 1q-31 0 -77.5 -1t-63.5 -1q-3 0 -3 12t3 12 q70 0 90.5 14.5t17.5 59.5l-12 399l-217 -487q-3 -6 -9.5 -6t-9.5 6l-229 454l-12 -338q-3 -54 13 -78t54 -24q3 0 3 -12t-3 -12q-13 0 -42 1t-48 1q-18 0 -49 -1t-45 -1q-3 0 -3 12t3 12q44 0 62 23.5t20 78.5l12 388q-34 36 -82 36q-5 0 -5 12.5t5 12.5q9 0 31 -2t29 -2 q13 0 31.5 2t21.5 2q16 0 29 -12.5t34 -50.5l199 -400l190 430q4 14 16 23.5t23 9.5q1 0 23 -2t39 -2q19 0 44 2t36 2q3 0 3 -12.5t-3 -12.5q-52 0 -74 -16.5t-21 -67.5l13 -368q2 -45 18 -59.5t70 -14.5z" />
<glyph unicode="&#x25fc;" horiz-adv-x="788" d="M0 788h788v-788h-788v788z" />
</font>
</defs>
</svg>
