<?xml version="1.0" standalone="no"?>
<!DOCTYPE svg PUBLIC "-//W3C//DTD SVG 1.1//EN" "http://www.w3.org/Graphics/SVG/1.1/DTD/svg11.dtd" >
<svg xmlns="http://www.w3.org/2000/svg" xmlns:xlink="http://www.w3.org/1999/xlink" version="1.1">
<metadata></metadata>
<defs>
<font id="cormorant_uprightlight" horiz-adv-x="948" >
<font-face units-per-em="2048" ascent="1638" descent="-410" />
<missing-glyph horiz-adv-x="479" />
<glyph unicode="&#xfb01;" horiz-adv-x="1015" d="M1001 158q4 6 16 -2.5t9 -14.5q-65 -83 -112.5 -121t-98.5 -38q-53 0 -81.5 38.5t-28.5 112.5l2 457q0 107 -61 127t-336 20h-36l25 -780q9 -294 -37 -407t-178 -113q-70 0 -106.5 24t-38.5 58q-3 24 13.5 40.5t49.5 16.5q29 0 48.5 -16t28.5 -35t25.5 -35t40.5 -16 q22 0 34 15.5t20 61.5t7 130.5t-5 222.5l-23 723q-4 76 -29 94t-124 18q-7 0 -7 12.5t7 12.5q84 0 114.5 19.5t30.5 72.5q0 151 21 264.5t54.5 182t84 111t102 58t115.5 15.5q104 0 164.5 -38t62.5 -91q0 -53 -53 -53q-29 0 -51.5 24t-36.5 52.5t-46 52.5t-79 24 q-122 0 -186 -142.5t-54 -416.5l4 -125q181 1 328.5 9t167.5 8q26 0 30.5 -11.5t3.5 -66.5v-52t1 -71v-408q0 -64 13.5 -94.5t45.5 -30.5q51 0 139 101z" />
<glyph unicode="&#xfb02;" horiz-adv-x="1077" d="M1044 158q4 6 16 -2.5t9 -14.5q-65 -83 -112.5 -121t-98.5 -38q-53 0 -81.5 38.5t-28.5 112.5l12 1184q-42 56 -113.5 98.5t-140.5 42.5q-122 0 -183.5 -145t-54.5 -414l4 -129q103 2 234 12q18 0 18 -16q-2 -21 -21.5 -44.5t-41.5 -19.5q-154 18 -187 19l25 -764 q9 -294 -37 -407t-178 -113q-70 0 -107.5 24t-37.5 58q0 25 15.5 41t47.5 16q29 0 48.5 -16t28.5 -35t25.5 -35t40.5 -16q22 0 34 15.5t20 61.5t7 130.5t-5 222.5l-23 723q-2 42 -6.5 61t-22 32.5t-43.5 16t-81 2.5q-7 0 -7 12.5t7 12.5q84 0 114.5 19.5t30.5 72.5 q-1 147 17 257t50 180.5t82 114.5t107.5 61.5t132.5 17.5q125 0 238 -62q34 24 37 99q0 5 6.5 6.5t13 -0.5t6.5 -8l-14 -1340q0 -64 13.5 -94.5t45.5 -30.5q51 0 139 101z" />
<glyph unicode="&#xfb03;" horiz-adv-x="1562" d="M1548 158q4 6 16 -2.5t9 -14.5q-65 -83 -112.5 -121t-98.5 -38q-53 0 -82 38.5t-29 112.5l2 457q0 107 -60.5 127t-335.5 20h-36l25 -780q9 -294 -37 -407t-178 -113q-70 0 -107 24t-39 58q-3 24 14 40.5t50 16.5q29 0 48.5 -16t28.5 -35t25.5 -35t40.5 -16q22 0 34 15.5 t20 61.5t7 130.5t-5 222.5l-23 723v4l-2 -4q-4 66 -24 79.5t-103 16.5q-222 6 -322 6l25 -772q9 -294 -37 -407t-178 -113q-70 0 -106.5 24t-38.5 58q-5 24 12.5 40.5t50.5 16.5q29 0 48.5 -16t28.5 -35t25.5 -35t40.5 -16q22 0 34 15.5t20 61.5t7 130.5t-5 222.5l-23 723 q-3 55 -13.5 76t-38 28.5t-97.5 7.5q-6 0 -8.5 6.5t-1 12.5t5.5 6q84 0 114.5 19.5t30.5 72.5q4 148 32 249.5t79.5 158t116.5 80.5t153 24q132 0 244 -63q90 182 299 182q104 0 164.5 -38t62.5 -91q0 -53 -53 -53q-29 0 -51.5 24t-36.5 52.5t-46 52.5t-79 24 q-122 0 -186 -142.5t-54 -416.5l4 -125q181 1 328.5 9t167.5 8q26 0 30.5 -11.5t3.5 -66.5v-52t1 -71v-408q0 -64 13.5 -94.5t45.5 -30.5q51 0 139 101zM268 899l4 -133q256 0 332 2q113 6 113 88q0 207 39 344q-43 56 -113.5 97.5t-138.5 41.5q-113 0 -174 -113.5 t-62 -326.5z" />
<glyph unicode="&#xfb04;" horiz-adv-x="1624" d="M1591 158q4 6 16 -2.5t9 -14.5q-65 -83 -112.5 -121t-98.5 -38q-53 0 -82 38.5t-29 112.5l13 1184q-42 56 -113.5 98.5t-140.5 42.5q-122 0 -183.5 -145t-54.5 -414l4 -129q103 2 234 12q18 0 18 -16q-2 -21 -21.5 -44.5t-41.5 -19.5q-154 18 -187 19l25 -764 q9 -294 -37 -407t-178 -113q-71 0 -108.5 24t-37.5 58q0 25 16 41t48 16q29 0 48.5 -16t28.5 -35t25.5 -35t40.5 -16q22 0 34 15.5t20 61.5t7 130.5t-5 222.5l-23 723v4l-2 -4q-4 66 -24 79.5t-103 16.5q-222 6 -322 6l25 -772q9 -294 -37 -407t-178 -113q-70 0 -106.5 24 t-38.5 58q-5 24 12.5 40.5t50.5 16.5q29 0 48.5 -16t28.5 -35t25.5 -35t40.5 -16q22 0 34 15.5t20 61.5t7 130.5t-5 222.5l-23 723q-3 55 -13.5 76t-38 28.5t-97.5 7.5q-6 0 -8.5 6.5t-1 12.5t5.5 6q84 0 114.5 19.5t30.5 72.5q4 148 32 249.5t79.5 158t116.5 80.5t153 24 q124 0 240 -61q49 97 127 138.5t188 41.5q124 0 237 -62q34 24 37 99q0 5 7 6.5t13.5 -0.5t6.5 -8l-14 -1340q0 -64 13.5 -94.5t45.5 -30.5q51 0 139 101zM268 899l4 -133q256 0 332 2q113 6 113 88q0 215 37 348q-44 54 -113 94.5t-137 40.5q-113 0 -174 -113.5t-62 -326.5 z" />
<glyph horiz-adv-x="0" />
<glyph horiz-adv-x="682" />
<glyph horiz-adv-x="0" />
<glyph horiz-adv-x="0" />
<glyph unicode="&#xd;" horiz-adv-x="479" />
<glyph unicode=" "  horiz-adv-x="479" />
<glyph unicode="&#x09;" horiz-adv-x="479" />
<glyph unicode="&#xa0;" horiz-adv-x="479" />
<glyph unicode="!" horiz-adv-x="497" d="M168 1272q0 6 25.5 11t56.5 5q63 0 78 -12l2 -4q-47 -269 -74 -885q0 -5 -10 -5t-10 5q-22 612 -68 885zM242 -23q-37 0 -59.5 21.5t-22.5 58.5q0 35 22.5 55.5t59.5 20.5q38 0 59 -20t21 -56q0 -37 -21 -58.5t-59 -21.5z" />
<glyph unicode="&#x22;" horiz-adv-x="546" d="M100 748l-16 499q-1 26 63 51q58 21 74 12q3 -2 2 -5l-100 -555q-2 -3 -7.5 -5t-10.5 -1.5t-5 4.5zM365 748l-17 499q-1 26 63 51q58 21 74 12q3 -2 2 -5l-100 -555q-2 -3 -7.5 -5t-10 -1.5t-4.5 4.5z" />
<glyph unicode="#" horiz-adv-x="1077" d="M948 641q9 0 9 -38t-9 -38h-153l-60 -329h142q9 0 9 -39t-9 -39h-156l-55 -318q0 -6 -17.5 -6t-34.5 3.5t-16 8.5l55 312h-315l-55 -318q0 -6 -17.5 -6t-34.5 3.5t-16 8.5l55 312h-141q-6 0 -8 19.5t-0.5 39t6.5 19.5h158l57 329h-141q-6 0 -8 19t-0.5 38t6.5 19h157 l62 346q2 5 17 5t32 -5.5t16 -11.5l-59 -334h315l62 346q0 10 38 2q30 -6 27 -14l-59 -334h141zM668 236l57 329h-313l-60 -329h316z" />
<glyph unicode="$" horiz-adv-x="835" d="M737 246q0 -105 -74.5 -179.5t-207.5 -89.5v-186q0 -13 -20.5 -13t-20.5 13v184h-15q-129 0 -229 70q-15 8 -18 39l-25 195q-1 6 5 8.5t12.5 1.5t7.5 -6q20 -109 93.5 -187t168.5 -90v445l-19 10q-48 25 -74.5 40.5t-63.5 43t-56.5 52.5t-34 61.5t-14.5 78.5 q0 108 75 172t187 72v168q0 15 20.5 15t20.5 -15v-166q85 0 184 -47q19 -9 24.5 -14.5t6.5 -18.5l18 -174q0 -9 -11 -10.5t-13 6.5q-13 77 -71 143.5t-138 83.5v-409l30 -17q35 -18 53.5 -28t49.5 -28.5t48.5 -33t39.5 -37t33.5 -44t19.5 -50t8 -59.5zM244 786 q0 -75 44.5 -125.5t125.5 -95.5v391h-2q-78 0 -123 -47.5t-45 -122.5zM455 4q74 2 128 45.5t54 134.5q0 81 -48 137t-134 107v-424z" />
<glyph unicode="%" horiz-adv-x="1175" d="M307 621q-107 0 -177.5 76.5t-70.5 189.5q0 108 71 184t177 76t174 -77t68 -189q0 -110 -68.5 -185t-173.5 -75zM215 -10q-2 -3 -14 1t-22.5 10.5t-8.5 10.5l760 1114q3 4 15 -0.5t22 -12t8 -11.5zM322 641q38 0 62 16t36 49t16 69.5t4 90.5q0 260 -145 260 q-38 0 -64 -18t-39.5 -52t-18.5 -72.5t-5 -90.5q0 -252 154 -252zM874 -10q-106 0 -176.5 77.5t-70.5 188.5q0 109 70.5 185.5t176.5 76.5q105 0 173.5 -77.5t68.5 -188.5t-68.5 -186.5t-173.5 -75.5zM889 12q30 0 52 11.5t35 30.5t20 49.5t9.5 61t2.5 73.5q0 258 -146 258 q-38 0 -63.5 -17.5t-39 -51.5t-19 -72.5t-5.5 -90.5q0 -252 154 -252z" />
<glyph unicode="&#x26;" horiz-adv-x="1529" d="M1483 768q23 0 35 -12.5t12 -46.5q0 -75 -57 -136t-134 -61q-58 0 -149 43q-37 -284 -187.5 -432t-375.5 -148q-156 0 -274.5 85t-168.5 222t-20 287q36 163 169 273t273 110q106 0 168 -65q129 142 129 254q0 35 -11 59.5t-23.5 35t-23.5 26t-11 34.5q0 26 15 42t40 16 q41 0 69.5 -39.5t28.5 -104.5q0 -51 -21 -106.5t-54.5 -105.5t-86 -106.5t-102.5 -102.5t-118 -101t-120 -94.5t-120 -91t-107 -82.5q35 -166 158.5 -270.5t275.5 -104.5q193 0 317 134t150 392q-11 6 -54.5 28t-61 30.5t-51 22t-58 19t-47.5 5.5q-30 0 -47 -12.5t-17 -30.5 q0 -21 14.5 -56t14.5 -53t-10.5 -31.5t-34.5 -13.5q-49 0 -49 62q0 78 68 138t153 60q47 0 110 -24t115 -53.5t111.5 -53.5t99.5 -24q26 0 43 11.5t17 25.5q0 19 -19.5 50.5t-19.5 53.5q0 43 47 43zM258 635q-17 -93 -4 -184q17 14 183 143.5t245 202.5q-58 102 -178 102 q-83 0 -151 -76t-95 -188z" />
<glyph unicode="'" horiz-adv-x="282" d="M100 748l-16 499q-1 26 63 51q58 21 74 12q3 -2 2 -5l-100 -555q-2 -3 -7.5 -5t-10.5 -1.5t-5 4.5z" />
<glyph unicode="(" horiz-adv-x="632" d="M143 623q0 291 110.5 522t307.5 340q3 2 7.5 -3t0.5 -9q-305 -279 -305 -850t305 -850q4 -3 -0.5 -9t-7.5 -4q-198 111 -308 342t-110 521z" />
<glyph unicode=")" horiz-adv-x="632" d="M489 623q0 -291 -110 -522.5t-307 -340.5q-3 -2 -8 3.5t-1 9.5q306 280 306 850t-306 850q-3 2 -1.5 5t5 5.5t5.5 1.5q197 -111 307 -341.5t110 -520.5z" />
<glyph unicode="*" horiz-adv-x="917" d="M463 1083l18 263q1 27 71 51q58 20 68 10q2 -1 1 -4l-138 -320q-1 -6 -10.5 -6t-9.5 6zM418 1047l-246 98q-28 11 -27 93q1 58 12 59q2 0 3 -1l264 -231q4 -3 3.5 -7t-3.5 -8t-6 -3zM862 999l-348 31q-4 0 -6.5 10t0.5 11l258 63q26 7 70 -52q35 -47 30 -61q-1 -2 -4 -2z M268 793q-18 -23 -93 1q-52 17 -54 30q0 2 2 3l299 179q4 4 11.5 -2t4.5 -11zM555 645l-78 340q-1 3 3 7t8.5 6.5t5.5 0.5l141 -225q14 -25 -32 -88q-32 -45 -45 -44q-2 0 -3 3z" />
<glyph unicode="+" horiz-adv-x="815" d="M745 426q9 0 9 -38t-9 -38h-299v-299q0 -6 -19 -8.5t-38.5 -1t-19.5 5.5v303h-299q-6 0 -8 19t-0.5 38t6.5 19h301v299q0 9 38.5 9t38.5 -9v-299h299z" />
<glyph unicode="," horiz-adv-x="454" d="M209 127q59 0 93 -44t34 -126q0 -80 -35.5 -147.5t-105.5 -135.5q-5 -4 -11 -1.5t-7.5 7.5t1.5 9q101 104 101 241q0 52 -21 84q-15 -30 -59 -30q-35 0 -54.5 19t-19.5 52q0 72 84 72z" />
<glyph unicode="-" horiz-adv-x="661" d="M66 344q-6 -1 -8.5 20t-1.5 43.5t5 24.5l535 94q6 1 8 -20t0 -43t-8 -23z" />
<glyph unicode="." horiz-adv-x="399" d="M201 -23q-37 0 -59.5 21.5t-22.5 58.5q0 35 22.5 55.5t59.5 20.5q38 0 59 -20t21 -56q0 -37 -21 -58.5t-59 -21.5z" />
<glyph unicode="/" horiz-adv-x="694" d="M127 -334q-3 -7 -39.5 4t-34.5 19l516 1806q2 3 10 3t19.5 -3t21.5 -7.5t16.5 -9.5t4.5 -8z" />
<glyph unicode="0" horiz-adv-x="976" d="M492 -27q-182 0 -299 120.5t-117 307.5q0 183 117.5 299.5t300.5 116.5q180 0 293.5 -118.5t113.5 -303.5t-114.5 -303.5t-294.5 -118.5zM514 -2q131 0 197.5 101t66.5 272q0 206 -87.5 314t-219.5 108q-129 0 -201.5 -104.5t-72.5 -270.5q0 -183 86.5 -301.5 t230.5 -118.5z" />
<glyph unicode="1" horiz-adv-x="679" d="M119 0q-5 0 -5 12.5t5 12.5q130 0 168.5 26t38.5 115v385q0 46 -2 72.5t-10.5 46t-20 25t-37.5 1.5t-56 -16t-81 -35q-5 -3 -10 2t-5 10.5t5 8.5l292 143q7 4 14 -1.5t7 -12.5v-629q0 -63 15 -91t56.5 -39t133.5 -11q6 0 6 -12.5t-6 -12.5q-30 0 -115.5 2t-138.5 2 q-50 0 -136 -2t-118 -2z" />
<glyph unicode="2" horiz-adv-x="823" d="M76 25q269 209 373 331t104 234q0 86 -53 136t-135 50q-83 0 -144 -62.5t-94 -185.5q-2 -3 -8 -3t-12 3t-5 7l78 301q2 8 17 2q8 -4 6 -7q-12 -53 28 -53q14 0 83 19.5t124 19.5q103 0 163.5 -56.5t60.5 -148.5q0 -101 -96.5 -212.5t-344.5 -301.5q-7 -6 -4 -10t12 -4 q330 0 407.5 20t100.5 121q1 4 13 3.5t12 -5.5l-29 -200q0 -8 -5.5 -15.5t-12.5 -7.5h-625q-8 0 -14 9t0 16z" />
<glyph unicode="3" horiz-adv-x="794" d="M432 266q133 -10 204 -91t71 -191q0 -75 -35.5 -153t-104.5 -152.5t-183.5 -138.5t-260.5 -103q-8 -2 -13 11q-2 9 3 11q106 31 189.5 78t134.5 98t84.5 110t46 111.5t12.5 104.5q0 50 -12 95t-38 83.5t-72.5 61t-109.5 22.5q-57 0 -104 -12q-4 -1 -7.5 4.5t-3.5 12 t5 8.5q164 42 230.5 115t66.5 198q0 105 -48 166t-145 61q-91 0 -152 -59.5t-96 -188.5q-3 -3 -8.5 -3t-11 3t-4.5 7l75 299q3 4 9 4t11.5 -3t4.5 -6q-8 -31 2.5 -44t28.5 -13q13 0 83 22.5t126 22.5q111 0 174 -68t63 -165q0 -99 -58 -187t-157 -131z" />
<glyph unicode="4" horiz-adv-x="921" d="M844 88q9 0 9 -43t-9 -43q-66 4 -182 8v-334q0 -21 -17 -28l-65 -33q-10 -6 -14.5 -3.5t-4.5 15.5v385q-129 4 -504 4q-10 0 -15.5 8t1.5 17l588 770q5 6 18 3.5t13 -11.5v-719q50 0 182 4zM152 76q183 0 409 4v559l-420 -549q-6 -6 -2 -10t13 -4z" />
<glyph unicode="5" horiz-adv-x="837" d="M244 686q-28 0 -31 -31l-45 -254q144 -1 250.5 -29t170.5 -80t95 -120t31 -154q0 -171 -133.5 -304t-442.5 -277q-8 -3 -13.5 7.5t1.5 14.5q260 125 365.5 252.5t105.5 272.5q0 169 -118.5 263.5t-340.5 94.5q-10 0 -16 8t-4 17l65 364q2 14 6 18t21 5q372 43 433 60 q46 12 57 36l6 16q1 4 7 5t11 -1.5t4 -7.5l-41 -131q-7 -25 -18.5 -31t-38.5 -6z" />
<glyph unicode="6" horiz-adv-x="952" d="M606 578q72 0 126 -21.5t84.5 -58t45.5 -80t15 -92.5q0 -146 -119.5 -249.5t-286.5 -103.5q-172 0 -271.5 119t-99.5 334q0 191 84 372.5t249 330t386 225.5q7 1 11.5 -8.5t-1.5 -14.5q-150 -66 -269.5 -167.5t-194 -217.5t-113.5 -239.5t-39 -243.5q0 -127 36 -228.5 t108.5 -163t170.5 -61.5q106 0 171 70.5t65 191.5q0 112 -55 183t-162 71q-58 0 -107.5 -24t-111.5 -80q-4 -3 -9.5 -1.5t-10 6.5t-1.5 9q114 142 299 142z" />
<glyph unicode="7" horiz-adv-x="878" d="M326 -451q-3 -8 -6 -14t-9 -11.5t-7.5 -7.5t-10.5 -8.5t-10 -7.5l-86 -63q-3 -2 -9.5 4t-5.5 10l549 1241q6 15 -10 15q-118 0 -194 -0.5t-146.5 -4t-109.5 -6.5t-75.5 -12t-52.5 -16.5t-31 -25t-21.5 -32.5t-14.5 -43q-1 -4 -7 -4.5t-11.5 2.5t-4.5 8l66 273 q2 3 8.5 3.5t11.5 -1t4 -4.5q-7 -35 10.5 -44t86.5 -9h542q9 0 15.5 -9.5t3.5 -17.5z" />
<glyph unicode="8" horiz-adv-x="1001" d="M602 702q50 -27 79.5 -44t73 -45.5t69 -55t51 -61.5t37.5 -76.5t12 -89.5q0 -152 -125.5 -254.5t-302.5 -102.5q-175 0 -285.5 98.5t-110.5 233.5q0 121 92 228t218 163q-95 51 -146 105.5t-51 132.5q0 59 30 106.5t78.5 76.5t103.5 44t110 15q117 0 189.5 -66.5 t72.5 -144.5q0 -60 -53.5 -132t-141.5 -131zM309 989q0 -28 8.5 -54t20 -46t35.5 -42t41.5 -36t52.5 -34.5t55 -31.5t60 -32q60 54 86 107.5t26 121.5q0 81 -60 142t-136 61q-89 0 -139 -41t-50 -115zM553 8q118 0 194 70t76 192q0 34 -7 66t-16 57.5t-28 51.5t-34.5 44 t-43.5 40t-46 35t-52.5 32.5t-52 29t-55 29t-52.5 27.5q-106 -50 -163.5 -134t-57.5 -190q0 -140 96 -245t242 -105z" />
<glyph unicode="9" horiz-adv-x="952" d="M369 213q-76 0 -135 26t-92 69.5t-49.5 92t-16.5 99.5q0 138 107 227.5t263 89.5q185 0 295.5 -132.5t110.5 -348.5q0 -139 -49 -277t-139 -258.5t-227.5 -216.5t-303.5 -147q-6 -2 -10.5 8t2.5 14q149 59 269 156.5t193.5 211t112.5 233.5t39 235q0 62 -10.5 126 t-35.5 129.5t-61 116t-93 82t-127 31.5q-102 0 -163 -64t-61 -179q0 -116 62 -194.5t176 -78.5q57 0 100 18t99 62q6 6 15.5 -1t6.5 -13q-105 -117 -278 -117z" />
<glyph unicode=":" horiz-adv-x="399" d="M201 553q-37 0 -59.5 21.5t-22.5 58.5q0 35 22.5 55.5t59.5 20.5q38 0 59 -20t21 -56q0 -37 -21 -58.5t-59 -21.5zM201 -23q-37 0 -59.5 21.5t-22.5 58.5q0 35 22.5 55.5t59.5 20.5q38 0 59 -20t21 -56q0 -37 -21 -58.5t-59 -21.5z" />
<glyph unicode=";" horiz-adv-x="454" d="M205 553q-37 0 -59.5 21.5t-22.5 58.5q0 35 22.5 55.5t59.5 20.5q38 0 59 -20t21 -56q0 -37 -21 -58.5t-59 -21.5zM209 127q59 0 93 -44t34 -126q0 -80 -35.5 -147.5t-105.5 -135.5q-5 -4 -11 -1.5t-7.5 7.5t1.5 9q101 104 101 241q0 52 -21 84q-15 -30 -59 -30 q-35 0 -54.5 19t-19.5 52q0 72 84 72z" />
<glyph unicode="&#x3c;" horiz-adv-x="833" d="M758 131q14 -6 13 -50q-2 -33 -13 -30l-684 303q-10 6 -10 36t10 34l684 301q8 4 12 -11q7 -31 -5 -57q-3 -8 -7 -10l-602 -258z" />
<glyph unicode="=" horiz-adv-x="958" d="M70 494q-6 0 -8 19t-0.5 37.5t6.5 18.5h821q9 0 9 -37.5t-9 -37.5h-819zM70 207q-6 0 -8 19t-0.5 38t6.5 19h821q9 0 9 -38t-9 -38h-819z" />
<glyph unicode="&#x3e;" horiz-adv-x="833" d="M760 422q10 -6 10 -36t-10 -34l-684 -301q-8 -4 -12 11q-7 31 5 57q3 8 7 10l602 258l-602 258q-14 6 -13 50q2 33 13 30z" />
<glyph unicode="?" horiz-adv-x="669" d="M322 1255q-28 0 -47.5 -8t-29 -24.5t-13.5 -30.5t-7 -35q-7 -37 -22 -57.5t-47 -20.5q-28 0 -45 19.5t-17 44.5q0 56 70 96.5t166 40.5q117 0 192.5 -63.5t75.5 -182.5q0 -47 -11 -86t-37.5 -75.5t-42.5 -54.5t-54 -56q-73 -73 -102 -128.5t-29 -125.5q0 -48 12 -113 q1 -4 -4.5 -6.5t-11.5 -2t-7 4.5q-23 54 -38 126t-15 118q0 40 12.5 74t32 58.5t43.5 47.5t47.5 47t43 50.5t32 64t12.5 82.5q0 88 -44.5 142t-114.5 54zM299 -23q-37 0 -59.5 21.5t-22.5 58.5q0 35 22.5 55.5t59.5 20.5q38 0 59 -20t21 -56q0 -37 -21 -58.5t-59 -21.5z" />
<glyph unicode="@" horiz-adv-x="1468" d="M956 102q-66 0 -91.5 47.5t-12.5 129.5l25 129q-72 -139 -162 -224.5t-168 -85.5q-53 0 -82 39t-19 119q16 110 83.5 220t157.5 179.5t169 69.5q61 0 94 -39q23 23 29 53q5 7 30 2q7 -2 7 -4l-84 -458q-6 -41 -7.5 -72t16.5 -49.5t58 -18.5q93 0 170.5 95t77.5 249 q0 198 -145 336.5t-357 138.5q-154 0 -272 -78t-177.5 -202.5t-59.5 -271.5q0 -242 156.5 -390.5t408.5 -148.5q98 0 171.5 19.5t168.5 72.5q3 2 7 -1.5t5.5 -8t-0.5 -6.5q-177 -138 -416 -138q-163 0 -294 64.5t-209 190.5t-78 294q0 139 55 262t146 207.5t210 133.5 t244 49q147 0 263 -64t177.5 -169.5t61.5 -231.5q0 -113 -49 -214.5t-132 -163t-176 -61.5zM590 166q87 0 184 122.5t129 262.5q11 55 -13.5 91.5t-82.5 35.5q-80 -2 -164.5 -111.5t-107.5 -253.5q-11 -76 1 -111.5t54 -35.5z" />
<glyph unicode="A" horiz-adv-x="1325" d="M1325 25q6 0 6 -12.5t-6 -12.5q-34 0 -107 4t-118 4q-44 0 -111 -4t-102 -4q-7 0 -7 12.5t7 12.5q107 0 130.5 30.5t-9.5 116.5l-187 522h-348l-172 -422q-26 -65 -34.5 -110t-3 -71.5t28 -41.5t50.5 -19.5t72 -4.5q6 0 8 -6.5t-0.5 -12.5t-9.5 -6q-26 0 -102.5 4 t-116.5 4q-47 0 -110 -4t-99 -4q-8 0 -8.5 12.5t8.5 12.5q149 0 243 221l447 1054q3 8 21 7.5t22 -9.5l401 -1126q23 -62 42 -90t57 -42.5t108 -14.5zM489 733h318l-148 414z" />
<glyph unicode="B" horiz-adv-x="1120" d="M655 723q160 -10 255.5 -105.5t95.5 -238.5q0 -167 -109 -277t-274 -110q-43 0 -149 6t-152 6q-48 0 -126 -2t-108 -2q-4 0 -4 12.5t4 12.5q116 0 148 25.5t32 115.5v948q0 47 -5.5 72t-25.5 42t-53 22t-94 5q-4 0 -4 12.5t4 12.5q30 0 107 -3t125 -3q36 0 122 6t117 6 q163 0 240.5 -76.5t77.5 -195.5q0 -100 -61 -175.5t-163 -115.5zM512 1260q-44 0 -64.5 -3t-39.5 -17.5t-25 -45t-6 -84.5v-389q53 -2 94 -2q155 0 226 76t71 204q0 115 -61.5 188t-194.5 73zM594 25q147 0 220 79t73 224q0 156 -92.5 252.5t-251.5 99.5q-75 3 -166 -4v-510 q0 -55 16.5 -83.5t63 -43t137.5 -14.5z" />
<glyph unicode="C" horiz-adv-x="1294" d="M780 -25q-145 0 -264 40.5t-196.5 107t-130.5 156t-76 183t-23 191.5q0 141 58 264t154.5 206.5t222.5 131.5t261 48q102 0 202 -20t161 -56q13 -7 18 -13.5t6.5 -12.5t2.5 -23l24 -215q0 -8 -9.5 -10t-12.5 5q-81 302 -463 302q-228 0 -363 -150.5t-135 -400.5 q0 -194 75 -357t206.5 -257.5t289.5 -94.5q136 0 244 82.5t166 245.5q2 7 12.5 5.5t10.5 -7.5l-23 -224q-5 -25 -9.5 -32.5t-21.5 -14.5q-189 -80 -387 -80z" />
<glyph unicode="D" horiz-adv-x="1341" d="M590 -8q-34 0 -133.5 6t-145.5 6q-48 0 -124.5 -2t-102.5 -2q-6 0 -6.5 12.5t6.5 12.5q108 0 140 26t32 115v948q-2 88 -33.5 114.5t-138.5 26.5q-6 0 -6.5 12.5t6.5 12.5q26 0 102.5 -3t122.5 -3q43 0 132.5 5t121.5 5q151 0 280 -48t218 -131t139.5 -197.5t50.5 -245.5 q0 -150 -53.5 -277t-144 -212.5t-210.5 -133t-253 -47.5zM569 18q246 0 398.5 157.5t152.5 440.5q0 180 -64.5 324.5t-188 230.5t-285.5 86q-126 0 -173 -27.5t-47 -119.5v-922q0 -93 42.5 -131.5t164.5 -38.5z" />
<glyph unicode="E" horiz-adv-x="1126" d="M1030 301q1 5 8 6t13.5 -2t5.5 -8q-17 -102 -17 -266q0 -17 -7 -24t-25 -7h-914q-6 0 -6 12.5t6 12.5q109 0 140.5 26t31.5 115v948q-3 62 -16.5 90t-48.5 39.5t-111 11.5q-4 0 -4 12.5t4 12.5h860q15 0 15 -18q2 -44 5 -145t3 -105q0 -9 -13.5 -8.5t-13.5 8.5 q-2 107 -51.5 173t-134.5 66h-223q-74 0 -107.5 -11t-45.5 -38.5t-13 -89.5v-426h334q87 0 120 31t31 110q0 9 15 7q8 -2 8 -7v-161q0 -29 3 -90t3 -97q0 -9 -12.5 -9t-12.5 9q0 93 -36.5 130.5t-129.5 37.5h-323v-473q0 -87 30 -112t136 -25h294q74 0 128 72.5t71 191.5z " />
<glyph unicode="F" horiz-adv-x="1062" d="M961 1262q6 -221 8 -250q0 -9 -13.5 -8.5t-13.5 8.5q-3 107 -53.5 173t-134.5 66h-222q-57 0 -87.5 -4.5t-49.5 -21.5t-24 -41.5t-6 -71.5v-450h313q87 0 120 31.5t31 109.5q0 10 14 9q10 -2 9 -9q2 -35 2 -63t-1 -55.5t-1 -43.5q0 -29 3 -89.5t3 -96.5q0 -9 -12 -9 t-12 9q0 93 -36.5 130.5t-129.5 37.5h-303v-449q2 -41 6.5 -62.5t17.5 -41.5t41 -28t71.5 -12.5t114.5 -4.5q4 0 4 -12.5t-4 -12.5q-36 0 -140 2t-169 2q-44 0 -119 -2t-100 -2q-4 0 -4 12.5t4 12.5q107 0 138.5 26t31.5 115v948q-2 88 -33.5 114.5t-138.5 26.5 q-5 0 -6 12.5t6 12.5h858q17 0 17 -18z" />
<glyph unicode="G" horiz-adv-x="1396" d="M811 -25q-164 0 -299 50.5t-224.5 138.5t-138.5 208t-49 259q0 194 99.5 348t274 239t390.5 85q196 0 312 -78q16 -13 20 -21t6 -26l23 -215q0 -9 -12.5 -9.5t-14.5 7.5q-33 146 -141 222.5t-271 76.5q-265 0 -413 -150t-148 -405q0 -153 47.5 -283t131.5 -220 t201.5 -141t254.5 -51q76 0 122 9t80.5 36t48 75.5t13.5 127.5q0 56 -1.5 85.5t-10 58t-20.5 40.5t-39.5 21.5t-60.5 11.5t-89 2q-7 0 -9.5 8.5t-0.5 16.5t8 8q207 -16 422 -4q8 0 9 -14.5t-9 -14.5q-25 1 -40.5 -1t-28 -12t-18.5 -24t-10.5 -44t-5.5 -64.5t-1 -93.5 q0 -60 3.5 -100t7 -57.5t3.5 -23.5q0 -10 -4.5 -14.5t-16.5 -9.5q-227 -58 -401 -58z" />
<glyph unicode="H" horiz-adv-x="1484" d="M1399 25q6 0 6 -12.5t-6 -12.5q-25 0 -100.5 2t-122.5 2q-45 0 -121.5 -2t-104.5 -2q-6 0 -6 12.5t6 12.5q109 0 139.5 25.5t30.5 115.5l-2 481h-756v-481q0 -48 5 -73t24 -41.5t50.5 -21.5t90.5 -5q4 0 4 -12.5t-4 -12.5q-27 0 -104 2t-127 2q-43 0 -117 -2t-100 -2 q-6 0 -6.5 12.5t6.5 12.5q108 0 140 26t32 115v948q-1 62 -13.5 90t-46.5 39.5t-108 11.5q-5 0 -5.5 12.5t5.5 12.5q25 0 99.5 -3t119.5 -3t123.5 3t104.5 3q5 0 5 -12.5t-5 -12.5q-75 0 -110.5 -12.5t-48.5 -41.5t-14 -91v-424h756v424q2 90 -28 117.5t-138 27.5 q-4 0 -5.5 6.5t-0.5 12.5t4 6q28 0 103.5 -3t120.5 -3q44 0 121 3t102 3q5 0 7 -6t0.5 -12.5t-5.5 -6.5q-107 0 -139.5 -26.5t-32.5 -114.5v-948q1 -47 7 -72.5t26 -42t51 -21.5t88 -5z" />
<glyph unicode="I" horiz-adv-x="653" d="M102 0q-4 0 -5.5 6t-0.5 12.5t4 6.5q110 0 142.5 26t29.5 115v948q0 88 -32 114.5t-140 26.5q-4 0 -4 12.5t4 12.5q26 0 102 -3t122 -3q52 0 127.5 3t99.5 3q7 0 7 -12.5t-7 -12.5q-73 0 -108 -12.5t-48 -41.5t-14 -91v-944q1 -63 14 -91t47 -39t109 -11q5 0 7 -6.5 t0.5 -12.5t-5.5 -6q-26 0 -99 2t-124 2q-45 0 -122.5 -2t-105.5 -2z" />
<glyph unicode="J" horiz-adv-x="587" d="M96 -397q-6 -2 -12.5 9t0.5 15q90 55 129 167.5t37 287.5v1032q0 88 -32 114.5t-142 26.5q-4 0 -4 12.5t4 12.5q29 0 103 -3t120 -3q52 0 128.5 3t100.5 3q7 0 6.5 -12.5t-6.5 -12.5q-74 0 -109.5 -12.5t-48.5 -41.5t-14 -91v-973q0 -162 -24.5 -261t-79.5 -161.5 t-156 -111.5z" />
<glyph unicode="K" horiz-adv-x="1298" d="M1276 25q6 0 6 -12.5t-6 -12.5h-180h-16q-36 0 -49.5 0.5t-35.5 15.5t-37.5 34.5t-57.5 72.5q-23 30 -38 48.5t-44 54.5t-58 71l-328 399l-70 -65v-465v-13q0 -34 0.5 -48t5 -32.5t12.5 -24.5t25 -13t40 -8.5t61 -1.5q4 0 4 -12.5t-4 -12.5q-25 0 -90 2t-115 2 q-43 0 -117 -2t-100 -2q-6 0 -6.5 12.5t6.5 12.5q108 0 140 26t32 115v948q-1 62 -13.5 90t-46.5 39.5t-108 11.5q-5 0 -5.5 12.5t5.5 12.5q25 0 99.5 -3t119.5 -3t123.5 3t104.5 3q5 0 5 -12.5t-5 -12.5q-75 0 -110.5 -12.5t-48.5 -41.5t-14 -91v-434l469 450 q73 78 64 103.5t-109 25.5q-6 0 -6 12.5t6 12.5q24 0 89.5 -3t123.5 -3q53 0 114.5 3t82.5 3q4 0 4 -12.5t-4 -12.5q-183 0 -319 -141l-369 -348l297 -358q94 -114 158.5 -185t107.5 -112.5t80.5 -59.5t60 -22t64.5 -4z" />
<glyph unicode="L" horiz-adv-x="1087" d="M86 0q-5 0 -6 12.5t6 12.5q107 0 138.5 26t31.5 115v948q-1 62 -13.5 90t-46.5 39.5t-108 11.5q-5 0 -5.5 12.5t5.5 12.5q25 0 99.5 -3t119.5 -3t123.5 3t104.5 3q5 0 5 -12.5t-5 -12.5q-75 0 -110.5 -12t-48.5 -40.5t-14 -90.5v-938q1 -61 13 -88t45.5 -38t107.5 -11 h269q116 0 172 68t75 196q0 4 7 5t13.5 -1t6.5 -6q-14 -126 -14 -268q0 -17 -8 -24t-27 -7h-936z" />
<glyph unicode="M" horiz-adv-x="1619" d="M1559 25q6 0 6 -12.5t-6 -12.5q-24 0 -100.5 2t-125.5 2q-46 0 -120.5 -2t-100.5 -2q-6 0 -6.5 12.5t6.5 12.5q109 0 141 26t29 115l-29 973l-450 -1125q-1 -8 -14.5 -7.5t-16.5 9.5l-467 1094l-6 14l-4 -911q2 -106 31.5 -147t109.5 -41q5 0 6 -12.5t-6 -12.5 q-22 0 -75 2t-91 2q-31 0 -88 -2t-80 -2q-4 0 -5.5 6t-0.5 12.5t4 6.5q82 0 117 42.5t35 145.5l6 977q-56 65 -154 65q-4 0 -5.5 6.5t-0.5 12.5t4 6q21 0 64.5 -2t56.5 -2q20 0 50 2t34 2q25 0 42 -20t48 -86l426 -1000l424 1055q7 23 25 37t39 14q4 0 32 -2t46 -2 q37 0 85 2t68 2q6 0 6 -12.5t-6 -12.5q-101 0 -144.5 -27.5t-39.5 -109.5l28 -952q2 -48 8.5 -73t26 -41.5t50.5 -21.5t88 -5z" />
<glyph unicode="N" horiz-adv-x="1441" d="M1356 1280q4 0 4 -12.5t-4 -12.5q-83 0 -118 -43.5t-34 -146.5v-1088q-2 -6 -10 -6.5t-16 6.5l-865 1135q-15 21 -30 39l2 -938q2 -105 33 -146.5t110 -41.5q6 0 6 -12.5t-6 -12.5q-21 0 -75 2t-89 2q-33 0 -90 -2t-80 -2q-6 0 -6 12.5t6 12.5q81 0 116 42.5t34 145.5 v977q-70 65 -148 65q-6 0 -6 12.5t6 12.5q22 0 69 -2t64 -2q22 0 53 2t37 2q12 0 20 -6.5t14 -16.5t20.5 -34.5t32.5 -48.5l761 -1012l-4 903q-2 106 -32.5 148t-110.5 42q-4 0 -4 12.5t4 12.5q22 0 76 -3t90 -3q32 0 89 3t81 3z" />
<glyph unicode="O" horiz-adv-x="1495" d="M709 -25q-180 0 -319.5 83.5t-214.5 226t-75 319.5q0 146 54.5 276t148 222.5t223.5 146.5t275 54q136 0 250 -47.5t190.5 -131t119 -198.5t42.5 -248q0 -204 -95 -366t-253 -249.5t-346 -87.5zM801 29q227 0 361.5 151.5t137.5 399.5q2 192 -72.5 346t-208.5 240.5 t-302 86.5q-224 0 -366.5 -149.5t-149.5 -401.5q-4 -190 73.5 -344.5t216.5 -241.5t310 -87z" />
<glyph unicode="P" horiz-adv-x="1091" d="M86 0q-5 0 -6 12.5t6 12.5q108 0 140 26t32 115v948q-2 88 -33.5 114.5t-138.5 26.5q-5 0 -6 12.5t6 12.5q25 0 99.5 -3t119.5 -3q27 0 121 6t156 6q68 0 129.5 -12t117 -38t96 -64.5t64 -95.5t23.5 -126q0 -83 -30.5 -153.5t-80.5 -117t-113.5 -79.5t-128.5 -48 t-127 -15q-60 0 -96 10q-4 1 -4.5 8t2 13t6.5 5q31 -8 68 -8q70 0 135.5 21t120.5 62t88 108.5t33 152.5q0 160 -103.5 255.5t-244.5 95.5q-42 0 -63.5 -1t-45 -6t-33 -13.5t-19 -26.5t-11.5 -41.5t-3 -61.5l3 -944q0 -48 5 -73t24 -41.5t50.5 -21.5t90.5 -5q5 0 5 -12.5 t-5 -12.5q-26 0 -103.5 2t-126.5 2q-44 0 -119 -2t-100 -2z" />
<glyph unicode="Q" horiz-adv-x="1495" d="M1606 -365q3 1 6.5 -4t4 -9.5t-2.5 -6.5q-102 -25 -170 -25q-116 0 -265.5 109.5t-273.5 302.5q-103 -27 -196 -27q-180 0 -319.5 83.5t-214.5 226t-75 319.5q0 146 54.5 276t148 222.5t223.5 146.5t275 54q136 0 250 -47.5t190.5 -131t119 -198.5t42.5 -248 q0 -217 -105.5 -384t-281.5 -251q107 -180 254.5 -297t259.5 -117q46 0 76 6zM201 702q-4 -190 73.5 -344.5t216.5 -241.5t310 -87q227 0 361.5 151.5t137.5 399.5q2 192 -72.5 346t-208.5 240.5t-302 86.5q-224 0 -366.5 -149.5t-149.5 -401.5z" />
<glyph unicode="R" horiz-adv-x="1347" d="M1374 25q8 0 8 -12.5t-8 -12.5h-215q-53 0 -197.5 177.5t-351.5 494.5q-75 -21 -135 -21q-38 0 -84 4l-4 -489q2 -49 7 -73t24.5 -41.5t51.5 -22t93 -4.5q5 0 7 -6.5t0.5 -12.5t-5.5 -6q-29 0 -106.5 2t-128.5 2q-46 0 -126.5 -2t-109.5 -2q-8 0 -8 12.5t8 12.5 q116 0 152.5 26.5t36.5 114.5v948q-1 62 -14.5 90t-51 39.5t-117.5 11.5q-8 0 -8 12.5t8 12.5q30 0 108.5 -3t125.5 -3q35 0 121 6t114 6q161 0 246.5 -68t85.5 -188q0 -98 -56.5 -183.5t-150.5 -139.5q261 -387 406.5 -534.5t273.5 -147.5zM387 705q92 -9 123 -9 q147 0 211.5 62.5t64.5 202.5q0 157 -70.5 228t-193.5 71q-44 0 -64 -3t-38.5 -17.5t-24.5 -44.5t-8 -85v-405z" />
<glyph unicode="S" horiz-adv-x="1011" d="M285 1032q0 -57 21 -105t56 -83.5t80.5 -67t96 -59.5t101 -56.5t96 -62t80.5 -72t56 -90.5t21 -114q0 -149 -109 -248t-307 -99q-145 0 -282 70q-14 8 -21 39l-31 266q-1 6 5 8.5t12.5 1.5t7.5 -6q8 -64 33 -123.5t67 -111.5t108 -83.5t146 -31.5q50 0 94 13t82 40.5 t60 77t22 115.5q0 79 -33 143t-86 107.5t-117 82l-128 77t-117 81t-86 105t-33 139.5t31.5 139t84 100.5t117.5 58.5t136 20q110 0 233 -50q33 -13 33 -34l16 -218q0 -6 -6 -8.5t-12 -1t-6 7.5q-4 48 -21.5 94t-50 88.5t-88 68.5t-125.5 26q-64 0 -111.5 -21t-74 -57.5 t-39 -77.5t-12.5 -88z" />
<glyph unicode="T" horiz-adv-x="1220" d="M395 0q-5 0 -7 6t-0.5 12.5t5.5 6.5q109 0 141 26t31 115v948q0 83 -28.5 108t-124.5 25h-60q-140 0 -198 -61t-78 -225q0 -4 -6 -4.5t-12.5 1.5t-6.5 5q12 80 31 362q0 4 7 5t13.5 -1t6.5 -6q0 -43 92 -43q167 -6 415 -6q98 0 226 3t170 3q68 0 99 10t38 41q2 4 8.5 5 t12 -1.5t4.5 -7.5q-20 -257 -17 -362q0 -6 -13.5 -6t-13.5 6q0 162 -52 222t-201 60h-62q-92 0 -118.5 -26.5t-26.5 -110.5l4 -944q1 -48 6.5 -73t24.5 -42t50.5 -21.5t90.5 -4.5q4 0 4 -12.5t-4 -12.5q-28 0 -103 2t-125 2q-45 0 -121 -2t-102 -2z" />
<glyph unicode="U" horiz-adv-x="1536" d="M1464 25q6 0 6.5 -12.5t-6.5 -12.5q-28 0 -83.5 1t-86.5 1q-20 0 -52 -1t-46 -1q-22 0 -28.5 6.5t-6.5 32.5v151q-118 -114 -227 -164.5t-234 -50.5q-201 0 -329.5 110.5t-128.5 295.5v733q-1 62 -13.5 90t-47 39.5t-109.5 11.5q-4 0 -4 12.5t4 12.5q25 0 99.5 -3 t119.5 -3q47 0 124.5 3t102.5 3q4 0 4 -12.5t-4 -12.5q-74 0 -109 -12.5t-47.5 -41.5t-13.5 -91l2 -657q0 -203 101.5 -314.5t291.5 -111.5q112 0 209.5 45t208.5 155l-4 883q2 47 -2.5 72.5t-23 43.5t-50.5 23.5t-90 5.5q-5 0 -5 12.5t5 12.5q25 0 100.5 -3t120.5 -3 q44 0 122.5 3t103.5 3q4 0 4 -12.5t-4 -12.5q-106 0 -138 -26.5t-32 -114.5v-948q0 -90 34.5 -115.5t161.5 -25.5z" />
<glyph unicode="V" horiz-adv-x="1308" d="M1298 1280q8 0 8 -12.5t-8 -12.5q-66 0 -110.5 -29.5t-73.5 -111.5l-420 -1112q-3 -9 -22.5 -8.5t-22.5 8.5l-471 1108q-31 79 -69 112t-97 33q-6 0 -6.5 12.5t6.5 12.5q25 0 80.5 -3t79.5 -3q50 0 120.5 3t94.5 3q8 0 8.5 -12.5t-8.5 -12.5q-76 0 -104.5 -28t0.5 -97 l428 -989l360 985q25 71 -3.5 100t-131.5 29q-4 0 -4 12.5t4 12.5q25 0 84 -3t106 -3q36 0 87 3t85 3z" />
<glyph unicode="W" horiz-adv-x="1824" d="M1812 1280q9 0 9 -12.5t-9 -12.5q-65 0 -109.5 -29.5t-74.5 -111.5l-422 -1112q-2 -8 -19 -8t-20 8l-252 588l-221 -588q-3 -8 -22.5 -8t-22.5 8l-471 1108q-31 79 -69 112t-97 33q-8 0 -8.5 12.5t8.5 12.5q25 0 80.5 -3t79.5 -3q50 0 120.5 3t94.5 3q8 0 8.5 -12.5 t-8.5 -12.5q-76 0 -104.5 -28t0.5 -97l428 -989l184 496l-203 473q-33 81 -69.5 113t-98.5 32q-8 0 -8 12.5t8 12.5q25 0 81 -3t83 -3q35 0 84.5 3t63.5 3q10 0 10 -12.5t-10 -12.5q-62 0 -67.5 -20t32.5 -105l155 -362l131 358q29 70 13.5 99.5t-84.5 29.5q-8 0 -8.5 12.5 t8.5 12.5q17 0 55.5 -3t69.5 -3q35 0 86 3t84 3q7 0 8 -12.5t-8 -12.5q-65 0 -110 -29.5t-75 -111.5l-149 -395l248 -578l366 985q27 71 -3 100t-136 29q-6 0 -8 6.5t-0.5 12.5t6.5 6q27 0 86 -3t106 -3q36 0 87.5 3t82.5 3z" />
<glyph unicode="X" horiz-adv-x="1282" d="M1245 25q7 0 7 -12.5t-7 -12.5q-24 0 -85.5 2t-98.5 2q-55 0 -135.5 -2t-106.5 -2q-10 0 -9.5 12.5t9.5 12.5q79 0 99.5 17.5t-9.5 61.5l-303 488l-270 -404q-108 -163 70 -163q6 0 6 -12.5t-6 -12.5q-29 0 -94.5 2t-118.5 2q-32 0 -78 -2t-74 -2q-7 0 -7 12.5t7 12.5 q135 0 252 163l295 437l-301 485q-47 79 -95.5 112t-119.5 33q-8 0 -8 12.5t8 12.5q23 0 70.5 -3t68.5 -3q60 0 147 3t113 3q9 0 9 -12.5t-9 -12.5q-78 0 -97.5 -18.5t9.5 -62.5l285 -461l237 360q119 182 -57 182q-6 0 -8 6.5t-0.5 12.5t6.5 6q30 0 95.5 -3t119.5 -3 q30 0 74.5 3t70.5 3q10 0 10 -12.5t-10 -12.5q-66 0 -132.5 -47.5t-123.5 -136.5l-264 -387l320 -514q51 -82 103.5 -113.5t135.5 -31.5z" />
<glyph unicode="Y" horiz-adv-x="1163" d="M1171 1280q7 0 7 -12.5t-7 -12.5q-144 0 -258 -184l-272 -438v-467q3 -91 32 -116t136 -25q9 0 9 -12.5t-9 -12.5q-26 0 -99.5 2t-119.5 2q-49 0 -125 -2t-103 -2q-8 0 -8 12.5t8 12.5q109 0 142 26t33 115l-2 448l-328 496q-52 80 -99 112.5t-116 32.5q-6 0 -6 12.5 t6 12.5q23 0 70.5 -3t68.5 -3q55 0 141 3t113 3q9 0 9 -12.5t-9 -12.5q-78 0 -97 -18.5t13 -62.5l326 -504l239 403q107 182 -59 182q-7 0 -7 12.5t7 12.5q31 0 96 -3t117 -3q32 0 78 3t73 3z" />
<glyph unicode="Z" horiz-adv-x="1204" d="M1092 -4q-299 4 -969 4q-9 0 -13.5 10t1.5 17l819 1202q6 11 4 13.5t-16 2.5q-432 0 -546 -13q-126 -13 -172 -60q-30 -31 -58 -118q-3 -8 -8 -25v-1l-1 -2q-6 -9 -19 -4q-9 4 -5 10l77 309q2 3 9 2.5t14 -3.5t6 -7q-6 -35 14 -44t97 -9h739q9 0 15 -10.5t3 -16.5 l-811 -1198q-8 -11 -5.5 -13.5t14.5 -2.5h538q141 0 207 51.5t86 177.5q2 7 15.5 4.5t13.5 -8.5l-29 -248q2 -6 -5 -13t-15 -7z" />
<glyph unicode="[" horiz-adv-x="561" d="M193 -217v1681q0 14 3 17.5t15 3.5h272q6 0 6 -12.5t-6 -12.5q-84 0 -123.5 -12.5t-54 -41.5t-14.5 -91v-1385q0 -62 14.5 -91t54 -41.5t123.5 -12.5q6 0 6 -12.5t-6 -12.5h-272q-12 0 -15 4t-3 19z" />
<glyph unicode="\" horiz-adv-x="694" d="M567 -334l-514 1804q-2 3 4.5 8t16.5 9.5t21.5 7.5t19.5 3t10 -3l516 -1806q1 -3 -5.5 -7.5t-17 -8t-22 -6.5t-19.5 -3.5t-10 2.5z" />
<glyph unicode="]" horiz-adv-x="561" d="M369 -217q0 -15 -3.5 -19t-15.5 -4h-272q-6 0 -6 12.5t6 12.5q84 0 123.5 12.5t54 41.5t14.5 91v1385q0 62 -14.5 91t-54 41.5t-123.5 12.5q-6 0 -6 12.5t6 12.5h272q12 0 15.5 -4t3.5 -17v-1681z" />
<glyph unicode="^" horiz-adv-x="802" d="M682 778q2 -3 -2 -6.5t-8.5 -4.5t-7.5 1l-263 373l-262 -373q-4 -4 -13 0.5t-7 9.5l260 510q1 10 21.5 10t23.5 -10z" />
<glyph unicode="_" horiz-adv-x="815" d="M70 -154q-6 0 -8 19.5t-0.5 39t6.5 19.5h677q9 0 9 -39t-9 -39h-675z" />
<glyph unicode="`" horiz-adv-x="339" d="M252 973l-170 516q-4 14 42 3q53 -13 58 -26l86 -491q1 -3 -3 -5t-8.5 -1.5t-4.5 4.5z" />
<glyph unicode="a" d="M952 158q5 3 11.5 1t11.5 -8t2 -10q-63 -82 -111.5 -120.5t-99.5 -38.5q-107 0 -104 151l4 281q-72 -197 -183.5 -319t-236.5 -122q-76 0 -123 53.5t-47 172.5q0 144 66 288t175.5 237t223.5 93q97 0 157 -57q32 32 35 71q0 5 13.5 5t13.5 -5l-6 -649q0 -125 61 -125 q53 0 137 101zM299 61q89 0 173.5 87.5t133.5 211t49 234.5q0 72 -49 117.5t-121 40.5q-128 -5 -221.5 -141.5t-93.5 -338.5q0 -107 31.5 -159t97.5 -52z" />
<glyph unicode="b" horiz-adv-x="946" d="M651 817q105 0 169.5 -85t64.5 -218q0 -102 -31.5 -191.5t-82.5 -152t-115.5 -108.5t-130.5 -67.5t-128 -21.5q-111 0 -178.5 49t-66.5 132l16 1130q0 140 -178 55q-7 -5 -12 9q-4 11 4 14l249 123q7 3 17 -4.5t10 -12.5l-4 -1034q44 169 152 276t245 107zM481 25 q116 0 203.5 116.5t87.5 309.5q0 128 -45 206t-143 78q-145 0 -238 -149t-94 -389q0 -75 64.5 -123.5t164.5 -48.5z" />
<glyph unicode="c" horiz-adv-x="722" d="M420 -27q-73 0 -134 25.5t-101 67t-67.5 95.5t-39.5 109.5t-12 110.5q0 103 35 188t91.5 138t126 81.5t142.5 28.5q82 0 145.5 -32.5t69.5 -84.5q2 -26 -11 -42.5t-42 -16.5q-48 0 -84 59q-47 76 -146 76q-78 0 -129.5 -48t-72 -118t-21.5 -159q-2 -79 17.5 -152t58 -132 t102 -94.5t144.5 -35.5q90 0 194 59q3 3 9 -0.5t9.5 -9.5t0.5 -10q-134 -103 -285 -103z" />
<glyph unicode="d" horiz-adv-x="974" d="M977 158q6 6 16.5 -2.5t7.5 -14.5q-65 -83 -112 -121t-98 -38q-53 0 -81.5 39.5t-27.5 111.5l4 260q-66 -195 -162.5 -307.5t-216.5 -112.5q-95 0 -163 72t-68 219q0 109 41 211.5t108 177t156 119.5t180 45q78 0 131 -33l8 500q2 68 -40 83.5t-136 -28.5q-7 -4 -12.5 1 t-5.5 11.5t6 10.5l254 123q6 3 16.5 -4.5t10.5 -12.5l-15 -1286q0 -125 60 -125q51 0 139 101zM352 61q73 0 139 56.5t107.5 139t65.5 169.5t24 154q0 172 -178 172q-145 0 -242.5 -111.5t-97.5 -304.5q0 -136 50.5 -205.5t131.5 -69.5z" />
<glyph unicode="e" horiz-adv-x="739" d="M696 109q6 3 15.5 -5t5.5 -14q-137 -115 -295 -115q-87 0 -156.5 32.5t-112 87t-65 122t-22.5 141.5q0 119 54 224.5t151 170t214 64.5q81 0 124.5 -29t41.5 -81q-3 -59 -68 -113.5t-172.5 -93.5t-238.5 -58v-2q0 -182 81.5 -290.5t229.5 -108.5q125 0 213 68zM401 762 q-112 0 -167.5 -80t-61.5 -213q331 51 352 195q7 50 -27 74t-96 24z" />
<glyph unicode="f" horiz-adv-x="561" d="M494 1487q73 0 121.5 -32t48.5 -73q0 -53 -60 -53q-25 0 -46 20t-34.5 44.5t-38.5 44.5t-57 20q-181 0 -160 -559l4 -129q103 2 234 12q18 0 18 -16q-2 -21 -21.5 -44.5t-41.5 -19.5q-154 18 -187 19l25 -764q9 -294 -37 -407t-178 -113q-70 0 -107.5 24t-37.5 58 q0 25 15.5 41t47.5 16q29 0 48.5 -16t28.5 -35t25.5 -35t40.5 -16q22 0 34 15.5t20 61.5t7 130.5t-5 222.5l-23 723q-4 76 -28.5 94t-122.5 18q-6 0 -8 6.5t0 12.5t6 6q84 0 114.5 19.5t30.5 72.5q-1 153 8 256.5t30 179t60 117t92.5 60t133.5 18.5z" />
<glyph unicode="g" horiz-adv-x="888" d="M733 834q0 4 6.5 5t13.5 -1t7 -7l-6 -974q0 -193 -101.5 -312.5t-285.5 -119.5q-107 0 -180.5 45t-73.5 110q0 51 55 51q24 0 42.5 -16.5t35.5 -39.5t40 -46.5t65.5 -40t101.5 -16.5q45 0 79.5 14t65.5 48.5t47.5 103.5t16.5 169v607q-71 -199 -180.5 -320t-231.5 -121 q-160 0 -174 213q-3 110 36.5 224.5t104 203.5t151.5 146t173 57q95 0 155 -57q34 34 37 74zM655 580q6 74 -39.5 123.5t-130.5 48.5q-82 -2 -155 -66t-118 -178t-42 -248q3 -199 129 -199q83 0 165.5 79t134.5 200t56 240z" />
<glyph unicode="h" horiz-adv-x="974" d="M979 158q6 6 17 -2.5t8 -14.5q-65 -83 -112.5 -121t-98.5 -38q-107 0 -107 151l4 375q3 240 -131 240q-123 0 -207.5 -194.5t-91.5 -541.5q0 -28 -51 -28q-43 0 -49 12q0 2 1.5 26t3 61t1.5 69l14 1132q0 140 -176 55q-6 -3 -11.5 2.5t-5 11.5t4.5 9l254 123q6 3 16 -4.5 t10 -12.5l-10 -1140q37 230 127 359.5t221 129.5q89 0 132 -64.5t40 -205.5l-2 -365q0 -64 14.5 -94.5t47.5 -30.5q53 0 137 101z" />
<glyph unicode="i" horiz-adv-x="532" d="M254 1059q-38 0 -60 21t-22 59q0 35 22 55t60 20q37 0 57.5 -20t20.5 -55q0 -38 -20.5 -59t-57.5 -21zM330 -18q-54 0 -83 38.5t-26 112.5l6 475q3 125 -61 125q-51 0 -143 -102q-6 -4 -12.5 -2.5t-10.5 7.5t0 11q60 81 113 121.5t108 40.5q53 0 78 -37.5t25 -116.5 l-5 -473q0 -125 60 -125q51 0 139 101q4 3 10 1t11 -8t2 -10q-63 -82 -111.5 -120.5t-99.5 -38.5z" />
<glyph unicode="j" horiz-adv-x="509" d="M254 1059q-38 0 -60 21t-22 59q0 35 22 55t60 20q37 0 57.5 -20t20.5 -55q0 -38 -20.5 -59t-57.5 -21zM123 -563q-65 0 -101 24t-38 58q0 28 15 42.5t40 14.5q21 0 37 -17.5t24.5 -38t25 -38t38.5 -17.5q52 0 69 88.5t17 315.5l-6 739q0 125 -62 125q-48 0 -143 -102 q-7 -7 -17.5 0.5t-5.5 15.5q124 162 222 162q52 0 76 -37t24 -117l2 -741q1 -193 -17 -292.5t-64 -142t-136 -42.5z" />
<glyph unicode="k" horiz-adv-x="923" d="M942 154q5 4 11 2t10 -8.5t0 -10.5q-60 -80 -110 -117.5t-103 -37.5q-44 0 -88 30.5t-107 106.5l-172 209q-30 36 -54 47.5t-61 5.5l-8 -369q0 -28 -51 -28q-43 0 -49 12q0 2 1.5 26t3 61t1.5 69l14 1132q0 140 -176 55q-6 -3 -11.5 2.5t-5 11.5t4.5 9l254 123 q6 3 16 -4.5t10 -12.5l-4 -847q68 90 163 143t192 53q39 0 68.5 -9.5t45 -23t24.5 -32t11 -31.5t2 -27q-1 -73 -92 -142t-252 -124l201 -244q101 -123 164 -123q66 0 147 93zM547 762q-111 0 -191.5 -94t-87.5 -242v-16q201 44 286.5 99.5t86.5 154.5q0 49 -20.5 73.5 t-73.5 24.5z" />
<glyph unicode="l" horiz-adv-x="505" d="M285 -18q-54 0 -83 38.5t-28 112.5l14 1151q0 69 -37.5 83.5t-132.5 -28.5q-5 -3 -10 2t-5 11t5 10l250 123q7 3 17 -4.5t10 -12.5l-13 -1286q0 -125 62 -125q53 0 137 101q6 6 17 -2.5t8 -14.5q-63 -82 -111.5 -120.5t-99.5 -38.5z" />
<glyph unicode="m" horiz-adv-x="1495" d="M1499 158q6 6 17 -2.5t8 -14.5q-65 -83 -112.5 -121t-98.5 -38q-109 0 -109 151l2 375q0 240 -121 240q-120 0 -201.5 -201t-82.5 -535q0 -12 -14.5 -20t-38.5 -8q-45 0 -48 12q0 2 1 28.5t2.5 63.5t1.5 64l2 356q-3 125 -32.5 182.5t-86.5 57.5q-118 0 -200 -201.5 t-83 -534.5q0 -12 -14.5 -20t-38.5 -8q-43 0 -49 12l6 143l4 469q0 125 -61 125q-52 0 -144 -102q-5 -5 -12 -2.5t-10 8t0 10.5q60 81 113 121.5t108 40.5q52 0 76 -37t24 -117v-301q36 217 122.5 340t209.5 123q84 0 124.5 -64t39.5 -206v-193q37 220 122.5 341.5 t209.5 121.5q88 0 127 -65t41 -205l-3 -365q0 -125 60 -125q51 0 139 101z" />
<glyph unicode="n" horiz-adv-x="1019" d="M1026 158q4 3 10 1t11 -8t2 -10q-63 -82 -111.5 -120.5t-99.5 -38.5q-107 0 -107 151l2 375q0 240 -127 240q-124 0 -209.5 -195t-89.5 -541q0 -12 -14.5 -20t-38.5 -8q-45 0 -51 12q0 2 1.5 26t3 61t1.5 69l4 456q0 125 -61 125q-52 0 -144 -102q-5 -5 -12 -2.5t-10 8 t0 10.5q60 81 113 121.5t108 40.5q52 0 76 -37t24 -117v-319q37 225 127.5 353t220.5 128q90 0 132.5 -64t41.5 -206l-2 -365q0 -125 60 -125q51 0 139 101z" />
<glyph unicode="o" horiz-adv-x="870" d="M410 -29q-155 0 -249.5 112t-94.5 286q0 192 112.5 320t286.5 128q149 0 245.5 -101.5t96.5 -287.5q0 -207 -116.5 -332t-280.5 -125zM471 23q107 0 179.5 85.5t72.5 233.5q0 108 -37 204.5t-110 159t-166 62.5q-110 0 -185 -84.5t-75 -228.5q0 -106 39 -204t114 -163 t168 -65z" />
<glyph unicode="p" horiz-adv-x="890" d="M371 -2q-51 0 -119 6v-369q0 -85 31.5 -110.5t126.5 -13.5q7 3 9 -8q3 -13 -5 -15l-369 -51q-4 -1 -7 4.5t-2.5 12t5.5 7.5q74 10 92.5 37t18.5 123l2 971q-17 -12 -48.5 -38.5t-37.5 -31.5q-4 -2 -10 2t-9.5 9.5t-1.5 7.5q64 60 107 94v156q0 4 18 23t36.5 52t18.5 70 q0 8 12.5 8t12.5 -8v-231q157 100 299 100q126 0 195 -78t69 -227q0 -140 -53 -253.5t-155 -181t-236 -67.5zM485 737q-114 0 -233 -75v-572q89 -35 176 -35q82 0 140.5 28t91 80.5t47 118.5t14.5 152q0 303 -236 303z" />
<glyph unicode="q" horiz-adv-x="901" d="M913 -489q5 2 8.5 -3.5t3 -12t-6.5 -7.5l-367 -51q-2 0 -4.5 1t-3.5 2.5t-2 4t-0.5 5.5t1 5t2 4t3.5 2q74 10 93 37.5t19 122.5v719q-52 -173 -153.5 -270t-212.5 -97q-102 0 -159.5 81t-57.5 206q0 99 37.5 200t99 179.5t147.5 128t177 49.5q101 0 159 -55q31 31 37 72 q0 4 6.5 4.5t13.5 -2t7 -5.5l-6 -1196q0 -78 33.5 -107t125.5 -17zM336 61q130 0 226.5 137t96.5 330q0 116 -46.5 173t-127.5 51q-138 0 -228.5 -116.5t-90.5 -313.5q0 -261 170 -261z" />
<glyph unicode="r" horiz-adv-x="733" d="M551 811q46 0 87.5 -30.5t41.5 -69.5q0 -26 -17.5 -41t-39.5 -15q-27 0 -45.5 15t-34 30t-33.5 15q-49 0 -98.5 -125t-79.5 -287.5t-33 -290.5q0 -28 -53 -28q-44 0 -47 12q0 2 1 28.5t2 63.5t1 64l4 358q2 223 -84 223q-68 0 -135 -71q-2 -2 -6.5 -0.5t-8 6t-2.5 8.5 q49 62 109.5 97.5t112.5 35.5q25 0 43 -10.5t34.5 -40t24 -92t6.5 -156.5v-234q15 102 39 194t55 170t71.5 124.5t84.5 46.5z" />
<glyph unicode="s" horiz-adv-x="649" d="M293 -23q-84 0 -152 36t-69 87q-1 23 14.5 36.5t36.5 13.5q23 0 43.5 -21t37 -46t52.5 -46t86 -21q66 0 100.5 33.5t34.5 93.5q0 46 -21 86t-54 69.5t-73 56.5t-80.5 54t-73.5 55.5t-54 67.5t-21 84q0 92 78 143.5t174 51.5q73 0 132 -29.5t59 -70.5q0 -21 -14.5 -33 t-36.5 -12q-23 0 -46.5 16t-41.5 35t-51 35t-74 16q-105 0 -105 -88q0 -52 40 -100t97 -87.5t113 -80t94.5 -94.5t36.5 -115q-3 -91 -75.5 -158.5t-186.5 -67.5z" />
<glyph unicode="t" horiz-adv-x="636" d="M610 139q3 2 9 -1t8.5 -7.5t-0.5 -7.5q-84 -79 -152 -113.5t-135 -34.5q-75 0 -122.5 39t-47.5 125l2 488q-1 42 -3 61t-13.5 32.5t-29 16t-54.5 2.5q-8 0 -8 12.5t8 12.5q72 0 116.5 42t47.5 109q-2 3 5 5q20 5 28 -3q1 -1 1 -2v-147q79 2 289 14q19 0 19 -16 q-2 -21 -22 -44.5t-44 -19.5q-159 19 -242 21l-2 -514q0 -87 29.5 -126.5t103.5 -39.5q62 0 108 24.5t101 71.5z" />
<glyph unicode="u" horiz-adv-x="1017" d="M1004 158q6 6 16.5 -2.5t7.5 -14.5q-65 -83 -112.5 -121t-98.5 -38q-108 0 -108 151v320q-37 -225 -128.5 -352.5t-222.5 -127.5q-56 0 -92.5 23.5t-53 66t-21.5 84.5t-3 97l11 364q1 62 -16 93.5t-46 31.5q-45 0 -137 -102q-7 -7 -17.5 0.5t-5.5 15.5q124 162 222 162 q99 0 96 -154l-12 -372q-6 -240 129 -240q127 0 210.5 200.5t86.5 534.5q0 12 14.5 20.5t38.5 8.5q46 0 49 -12q0 -2 -1 -26t-2 -61t-1 -69l-2 -457q0 -64 13.5 -94.5t45.5 -30.5q52 0 140 101z" />
<glyph unicode="v" horiz-adv-x="942" d="M477 -27q-106 0 -173.5 80.5t-67.5 210.5q0 58 13 119.5t40 147.5t35 118q9 28 1.5 39.5t-32.5 11.5h-121q-87 0 -111 -17t-36 -91q-2 -10 -17 -7q-12 5 -10 13q9 48 15.5 76t17 52.5t21 35.5t30.5 19t41.5 10t58.5 2h199q20 0 23.5 -5t-3.5 -20q-71 -248 -71 -426 q0 -149 51.5 -216t136.5 -67q84 0 151.5 61t101.5 151t34 186q0 158 -103 221q-65 38 -65 80q0 27 21 40t47 13q48 0 82.5 -54t49 -124t15.5 -144q3 -118 -29.5 -217.5t-87 -163.5t-122 -99.5t-136.5 -35.5z" />
<glyph unicode="w" horiz-adv-x="1366" d="M1128 811q48 0 83 -52t50 -125.5t15 -156.5q0 -111 -30 -208t-78 -160.5t-105 -99.5t-113 -36q-58 0 -113 39.5t-98 110.5q-54 -72 -121.5 -111t-136.5 -39q-114 0 -179.5 81.5t-65.5 221.5q0 56 15 122.5t41 147t32 103.5q9 28 1.5 39.5t-32.5 11.5h-121 q-86 0 -110.5 -18.5t-36.5 -93.5q-1 -6 -9 -6t-14.5 4.5t-3.5 11.5q9 48 15.5 76t17 52.5t21 35.5t30.5 19t41.5 10t58.5 2h199q20 0 23.5 -5t-3.5 -20q-63 -220 -63 -424q0 -157 51 -225t133 -68q119 0 195 111q-72 147 -72 342q0 124 29 211.5t84 87.5q44 0 75 -64.5 t31 -191.5q0 -200 -82 -357q88 -129 201 -129q93 0 167.5 93t74.5 254q0 61 -11 110.5t-33 84t-35.5 50.5t-35.5 37q-16 12 -24 20.5t-15.5 21.5t-7.5 28q0 25 20 38t45 13zM678 535q0 -163 78 -306q53 115 53 281q0 180 -66 180q-65 0 -65 -155z" />
<glyph unicode="x" horiz-adv-x="919" d="M899 154q3 5 10 2t10 -9t-1 -10q-125 -155 -222 -155q-39 0 -71.5 25.5t-69.5 96.5l-121 240l-104 -215q-44 -93 -72.5 -120t-79.5 -27q-43 0 -83 28.5t-40 63.5q0 41 45 41q23 0 50.5 -17.5t48.5 -17.5q60 0 96 65l125 228l-115 225q-68 131 -139 131q-66 0 -143 -92 q-7 -9 -19 3q-8 8 -2 13q129 156 223 156q83 0 154 -143l96 -189l92 185q47 94 75 120.5t79 26.5q43 0 84 -28.5t41 -63.5q0 -41 -49 -41q-23 0 -49.5 17.5t-47.5 17.5q-58 0 -96 -66l-112 -203l139 -272q53 -109 121 -109q63 0 147 93z" />
<glyph unicode="y" d="M758 807q46 0 49 -12q0 -2 -1 -26t-2 -61t-1 -69l-6 -782q-2 -192 -98.5 -312t-264.5 -120q-105 0 -175.5 44.5t-70.5 108.5q0 30 15 43.5t35 13.5t38.5 -17t36 -41.5t39.5 -49.5t61.5 -42t90.5 -17q35 0 63 8t55 31t45 60t28.5 98t9.5 142l-3 637 q-37 -220 -127.5 -345.5t-220.5 -125.5q-183 0 -172 271l13 364q1 62 -16 93.5t-48 31.5q-47 0 -135 -102q-7 -7 -17.5 0.5t-5.5 15.5q62 81 115 121.5t107 40.5q99 0 96 -154l-12 -372q-4 -121 30 -180.5t99 -59.5q125 0 209 197t88 524v14q0 13 14 21t39 8z" />
<glyph unicode="z" horiz-adv-x="749" d="M739 182q3 3 9.5 3t12.5 -3t5 -8q-17 -90 -32 -127t-36.5 -47.5t-70.5 -9.5q-61 1 -218.5 27t-226.5 28q-35 0 -59.5 -12.5t-52.5 -46.5q-2 -2 -8 1.5t-10 8t-1 6.5l524 682q-26 -18 -83 -18q-52 0 -178 24.5t-160 24.5q-37 0 -55 -22.5t-29 -76.5q-1 -6 -8.5 -7t-14 3 t-4.5 11q12 68 22 103t28.5 54.5t38.5 23.5t61 3q47 -3 182.5 -27.5t199.5 -27.5q37 0 60.5 11.5t50.5 45.5q4 4 13.5 -2.5t7.5 -11.5l-519 -676q22 12 78 12q60 0 206 -23.5t183 -23.5q38 0 55.5 21.5t28.5 76.5z" />
<glyph unicode="{" horiz-adv-x="591" d="M66 610q-6 0 -6 13.5t6 13.5q45 5 78 34.5t51 70t28.5 102t13.5 115t3 124.5q0 107 7.5 174.5t24 115t50 70.5t77 32.5t113.5 9.5q8 0 8 -12.5t-8 -12.5q-78 0 -121.5 -56.5t-46.5 -160.5q-2 -117 -4 -169t-6.5 -126.5t-13.5 -104t-23.5 -71.5t-38.5 -62t-55.5 -42 t-77.5 -43q149 -68 181 -172t38 -451q3 -104 46.5 -160.5t121.5 -56.5q8 0 8 -12.5t-8 -12.5q-60 0 -99.5 6t-71.5 23.5t-50 44t-30.5 74t-16.5 107.5t-4 149q0 72 -3 126t-13.5 115t-28.5 101.5t-51 69.5t-78 34z" />
<glyph unicode="|" horiz-adv-x="344" d="M137 -315v1812q0 13 38 13t38 -13v-1812q0 -15 -38 -15t-38 15z" />
<glyph unicode="}" horiz-adv-x="579" d="M514 610q-45 -5 -78 -34t-51 -69.5t-28.5 -101.5t-13.5 -115t-3 -126q0 -89 -4 -149t-16.5 -107.5t-30.5 -74t-50 -44t-71.5 -23.5t-99.5 -6q-8 0 -8 12.5t8 12.5q78 0 121.5 56.5t46.5 160.5q6 347 38 451t181 172q-46 21 -77.5 43t-55.5 42t-38.5 62t-23.5 71.5 t-13.5 104t-6.5 126.5t-4 169q-3 104 -46.5 160.5t-121.5 56.5q-8 0 -8 12.5t8 12.5q70 0 113.5 -9.5t77 -32.5t50 -70.5t24 -115t7.5 -174.5q0 -71 3 -124.5t13.5 -115t28.5 -102t51 -70t78 -34.5q6 0 6 -13.5t-6 -13.5z" />
<glyph unicode="~" horiz-adv-x="907" d="M641 397q41 0 73 13.5t46.5 27t36.5 39.5q5 3 11.5 -3.5t2.5 -10.5q-70 -84 -114.5 -112.5t-98.5 -28.5q-59 0 -164 36.5t-168 36.5q-20 0 -37 -3.5t-26.5 -5.5t-25.5 -13.5t-19 -14t-22.5 -21.5t-22.5 -22q-4 -4 -13 6q-4 6 -2 9q114 141 228 141q43 0 148 -37t167 -37z " />
<glyph unicode="&#xa1;" horiz-adv-x="497" d="M256 748q37 0 59.5 -21.5t22.5 -58.5q0 -35 -22.5 -55.5t-59.5 -20.5q-38 0 -59 20t-21 56q0 37 21 58.5t59 21.5zM330 -547q0 -6 -25.5 -11t-56.5 -5q-63 0 -78 12l-2 4q47 269 74 885q0 4 10 4t10 -4q22 -612 68 -885z" />
<glyph unicode="&#xa2;" horiz-adv-x="1105" d="M991 287q1 7 13 5.5t12 -7.5l-29 -217q-2 -18 -6.5 -24t-22.5 -13q-160 -56 -327 -56h-23v-184q0 -13 -20.5 -13t-20.5 13v186q-105 8 -190.5 44.5t-140.5 87.5t-92 116.5t-52.5 129.5t-15.5 128q0 196 139 335t352 161v170q0 15 20.5 15t20.5 -15v-166h31 q78 0 167 -15.5t144 -43.5q14 -6 18.5 -12.5t6.5 -22.5l22 -211q0 -6 -11.5 -7.5t-12.5 5.5q-27 138 -123 207.5t-242 72.5v-954q14 -2 41 -2q130 0 219.5 71t122.5 216zM199 514q0 -116 39.5 -221t125 -185t203.5 -102v950q-159 -11 -263.5 -135.5t-104.5 -306.5z" />
<glyph unicode="&#xa3;" horiz-adv-x="884" d="M754 252q0 3 6 3.5t12 -1t6 -4.5q-18 -103 -18 -219q0 -17 -7 -24t-24 -7h-655q-4 0 -4 12t4 13q92 25 129 57q51 43 51 135q0 105 -39 234h-102q-13 0 -13 20.5t13 20.5h88q-35 115 -35 190q0 76 27.5 135.5t75.5 94.5t107.5 53t127.5 18q96 0 184 -35q30 -9 33 -39 l14 -204q0 -9 -10.5 -9t-13.5 9q-3 44 -18.5 86.5t-42 80.5t-71 61t-98.5 23q-109 0 -160 -61.5t-51 -149.5q0 -23 2.5 -47t5 -41t9 -44.5t9 -38t12 -43t11.5 -39.5h242q13 0 13 -20.5t-13 -20.5h-229q20 -78 20 -150q0 -80 -28.5 -129.5t-79.5 -89.5h270q130 0 173.5 31 t66.5 139z" />
<glyph unicode="&#xa4;" horiz-adv-x="847" d="M739 127l-53 -51l-98 110q-83 -53 -187 -53q-89 0 -153 45l-90 -102l-43 43l90 94q-38 39 -59 92.5t-21 108.5q0 113 82 188l-103 103l54 47l102 -111q80 45 172 45q90 0 164 -49l100 108l41 -40l-100 -103q78 -78 78 -190q0 -106 -76 -185zM440 166q77 0 122.5 53.5 t45.5 149.5q0 114 -60.5 199t-162.5 85q-73 0 -116.5 -49.5t-43.5 -146.5q0 -71 21.5 -135t72 -110t121.5 -46z" />
<glyph unicode="&#xa5;" horiz-adv-x="976" d="M952 958q6 0 6 -12t-6 -12q-67 0 -131.5 -47.5t-118.5 -136.5l-170 -279v-35h218q14 0 14 -20.5t-14 -20.5h-218v-76h218q14 0 14 -20t-14 -20h-218v-113q0 -48 5.5 -73t26.5 -41.5t54.5 -21.5t96.5 -5q5 0 5 -12.5t-5 -12.5q-29 0 -107 2t-129 2q-44 0 -124 -2t-111 -2 q-4 0 -4 12.5t4 12.5q117 0 150.5 26t33.5 115v113h-221q-15 0 -15 20t15 20h221v76h-221q-15 0 -15 20.5t15 20.5h221v4l-229 348q-55 82 -99 114t-110 32q-4 0 -4 12t4 12q20 0 63.5 -3t63.5 -3q54 0 134.5 3t106.5 3q6 0 6 -12t-6 -12q-123 0 -71 -82l231 -350l146 250 q48 85 32 133.5t-78 48.5q-6 0 -6 12t6 12q28 0 89 -3t112 -3q30 0 70 3t63 3z" />
<glyph unicode="&#xa6;" horiz-adv-x="344" d="M137 737v760q0 13 38 13t38 -13v-760q0 -13 -38 -13t-38 13zM137 -315v757q0 15 38 15t38 -15v-757q0 -15 -38 -15t-38 15z" />
<glyph unicode="&#xa7;" horiz-adv-x="878" d="M637 59q82 -75 82 -174q0 -68 -25.5 -121.5t-69 -85t-95 -47.5t-107.5 -16q-108 0 -180 37q-20 13 -25 35l-14 190q0 6 12 6t12 -6q10 -75 90.5 -145t180.5 -70q64 0 102.5 37t38.5 117q0 57 -27.5 105t-71 83t-96.5 68.5t-106 70t-96.5 79t-71 104t-27.5 135.5 q0 78 27 135.5t102 130.5q-79 76 -79 174q0 68 25.5 121t68 85t94 48t108.5 16q111 0 179 -38q22 -11 22 -33l17 -193q0 -5 -12.5 -5t-12.5 5q-10 76 -90 146.5t-180 70.5q-63 0 -102.5 -37t-39.5 -116q0 -57 27.5 -105t71 -83t96.5 -68.5t106 -70t96.5 -79t71 -104 t27.5 -135.5q0 -78 -27 -136.5t-102 -130.5zM227 524q0 -61 19.5 -113.5t49.5 -89t73.5 -72t83 -59.5t87.5 -56t78 -58q64 69 64 184q0 73 -25.5 132.5t-72 103.5t-92.5 76t-106.5 71t-94.5 68q-64 -69 -64 -187z" />
<glyph unicode="&#xa8;" horiz-adv-x="563" d="M129 985q-37 0 -59.5 21t-22.5 57t22.5 57t59.5 21q38 0 59 -20.5t21 -57.5t-21 -57.5t-59 -20.5zM434 985q-38 0 -60 20.5t-22 57.5t22 57.5t60 20.5q37 0 57.5 -20.5t20.5 -57.5t-20.5 -57.5t-57.5 -20.5z" />
<glyph unicode="&#xa9;" horiz-adv-x="1468" d="M750 -207q-79 0 -160 22.5t-159.5 70.5t-139 116.5t-98 169.5t-37.5 219q0 136 54 254.5t144 199.5t208 127t245 46q114 0 210 -37t160 -100.5t100 -148.5t36 -179q0 -95 -38.5 -182t-103.5 -151t-157.5 -102t-194.5 -38q-93 0 -165 28t-114.5 74.5t-63.5 101.5t-21 115 q0 80 31 147t81.5 109.5t112.5 66t125 23.5q70 0 127.5 -28t60.5 -68q0 -21 -15 -37t-36 -16q-36 0 -70 49q-17 24 -28.5 36t-35.5 23t-56 11q-183 0 -183 -266q0 -52 9.5 -97.5t32.5 -86t57.5 -69.5t88 -46t120.5 -17q72 0 136.5 21.5t117.5 63.5t84.5 114t31.5 164 q0 198 -145 336.5t-357 138.5q-161 0 -278 -73t-174 -192.5t-57 -269.5q0 -117 37.5 -216t96.5 -164.5t135 -112t151 -67.5t145 -21q124 0 212 18t199 74q3 2 8 -4.5t1 -10.5q-108 -81 -219 -110t-252 -29z" />
<glyph unicode="&#xaa;" horiz-adv-x="598" d="M592 864q3 2 8 0t9 -6.5t1 -7.5q-79 -105 -145 -105q-35 0 -47 28.5t-12 103.5v147q-47 -128 -121 -206.5t-154 -78.5q-50 0 -81.5 35.5t-31.5 112.5q0 92 44 187.5t116.5 158.5t147.5 63q64 0 100 -36q13 19 16 49q0 2 7 2t13.5 -1.5t6.5 -4.5l-2 -428q0 -76 41 -76 q18 0 36 14.5t48 48.5zM401 1141q3 47 -27.5 80t-86.5 32q-79 -2 -142 -98.5t-63 -222.5q0 -129 76 -129t156.5 109.5t86.5 228.5zM547 641q7 0 9.5 -12.5t0.5 -25.5t-8 -13h-508q-6 0 -8 13t-0.5 25.5t6.5 12.5h508z" />
<glyph unicode="&#xab;" horiz-adv-x="923" d="M481 82l-356 305q-9 9 -9 23.5t9 23.5l356 305q2 3 6.5 2t7.5 -5t1 -7l-267 -317l267 -318q2 -7 -7 -13q-6 -3 -8 1zM782 82l-356 305q-9 9 -9 23.5t9 23.5l356 305q6 8 14 -2q4 -5 1 -8l-265 -317l265 -318q2 -3 -0.5 -7.5t-7 -6t-7.5 1.5z" />
<glyph unicode="&#xac;" horiz-adv-x="808" d="M745 547v-389q0 -6 -19.5 -8t-38.5 -0.5t-19 6.5v313h-598q-6 0 -8 19.5t-0.5 39t6.5 19.5h677z" />
<glyph unicode="&#xad;" horiz-adv-x="661" d="M66 344q-6 -1 -8.5 20t-1.5 43.5t5 24.5l535 94q6 1 8 -20t0 -43t-8 -23z" />
<glyph unicode="&#xae;" horiz-adv-x="1540" d="M807 1485q129 0 239 -45.5t183 -122.5t114 -178.5t41 -214.5q0 -132 -50.5 -251.5t-136 -204.5t-201.5 -135t-242 -50q-87 0 -172 24t-162 74t-135.5 120t-93.5 168t-35 212q0 170 92 310t240.5 217t318.5 77zM805 342q232 0 373 141.5t141 382.5q0 158 -74.5 289 t-206.5 207t-293 76q-121 0 -219 -41.5t-160.5 -112.5t-96 -162.5t-33.5 -193.5q0 -112 35 -209.5t92.5 -165.5t131.5 -116.5t153 -71.5t157 -23zM1157 573q3 0 3 -9t-3 -9h-151q-36 0 -211 336q-56 -13 -121 -10v-211q0 -60 18.5 -75t89.5 -15q4 0 4 -12.5t-4 -12.5 q-17 0 -66 2t-81 2q-25 0 -78 -2t-68 -2q-5 0 -5 12.5t5 12.5q74 0 93.5 15t19.5 75v442q0 56 -20.5 73t-92.5 17q-5 0 -5 12.5t5 12.5q19 0 70 -1t76 -1q26 0 86 3t82 3q182 0 182 -133q0 -123 -113 -183q104 -200 139 -250q55 -78 116 -89q14 -3 30 -3zM674 920 q115 -18 174 10.5t59 118.5q0 155 -139 155q-59 0 -76.5 -15t-17.5 -83v-186z" />
<glyph unicode="&#xaf;" horiz-adv-x="681" d="M98 983q-10 0 -10 26.5t10 26.5h492q10 0 10 -26.5t-10 -26.5h-492z" />
<glyph unicode="&#xb0;" horiz-adv-x="679" d="M342 764q-126 0 -204.5 76t-78.5 190q0 108 79 184t204 76t202 -75.5t77 -188.5q0 -112 -77.5 -187t-201.5 -75zM356 786q50 0 82.5 16t48 49t20.5 69t5 92q0 258 -182 258q-49 0 -81.5 -17.5t-49 -51.5t-23 -72.5t-6.5 -92.5q0 -117 41.5 -183.5t144.5 -66.5z" />
<glyph unicode="&#xb1;" horiz-adv-x="815" d="M70 479q-6 0 -8 19t-0.5 38t6.5 19h301v301q0 8 38.5 8t38.5 -8v-301h299q9 0 9 -38t-9 -38h-299v-299q0 -6 -19 -8t-38.5 -0.5t-19.5 6.5v301h-299zM745 72q9 0 9 -35t-9 -35h-675q-6 0 -8 17.5t-0.5 35t6.5 17.5h677z" />
<glyph unicode="&#xb2;" horiz-adv-x="512" d="M70 836q12 37 56 103.5t88 127t79 135t35 129.5q0 56 -29.5 88.5t-77.5 32.5q-51 0 -88 -34t-49 -87q-1 -4 -7.5 -4.5t-12.5 2.5t-5 8q46 156 193 156q76 0 118 -41t42 -104q0 -49 -38.5 -116t-85.5 -122.5t-95 -117.5t-62 -97q0 -6 6 -6h110.5t72 5.5t49.5 9t27 21.5 t20 31.5t16 49.5q0 4 5 4t5 -4l-2 -172q0 -11 -8 -11h-356q-10 0 -6 13z" />
<glyph unicode="&#xb3;" horiz-adv-x="514" d="M276 1171q76 -17 119 -53t43 -106q0 -83 -54 -142t-148 -59q-79 0 -126 39t-63 102q-1 5 5 8.5t12.5 3t7.5 -5.5q11 -43 49 -77.5t104 -34.5q129 0 129 139q0 77 -43.5 124.5t-109.5 47.5q-5 0 -5 12.5t5 12.5q59 0 93 48.5t34 100.5q0 51 -30.5 86t-80.5 35 q-47 0 -84 -34.5t-49 -86.5q-1 -4 -7.5 -4.5t-12.5 2.5t-5 8q19 70 66 113t125 43q74 0 118 -41.5t44 -105.5q0 -57 -37 -104.5t-99 -70.5z" />
<glyph unicode="&#xb4;" horiz-adv-x="434" d="M143 969q-3 -4 -8.5 -3.5t-11 3.5t-4.5 6l117 491q3 13 60 26q48 10 44 -3z" />
<glyph unicode="&#xb6;" horiz-adv-x="1298" d="M670 -395q-45 0 -75 24t-30 56q0 29 15.5 46t40.5 17q28 0 45.5 -15t24.5 -33t27.5 -33t55.5 -15q61 0 87 84t26 280v240q-83 -6 -180 -6q-88 0 -169.5 16.5t-160.5 57t-137 100.5t-93.5 154.5t-35.5 212.5q0 243 143 369t397 126q42 0 141.5 -6t163.5 -6q39 0 116 3 t110 3q4 0 4 -12.5t-4 -12.5q-89 0 -136 -42.5t-47 -122.5l2 -977q0 -266 -77.5 -387t-253.5 -121z" />
<glyph unicode="&#xb7;" horiz-adv-x="399" d="M201 330q-37 0 -59.5 21.5t-22.5 58.5q0 35 22.5 55t59.5 20q38 0 59 -20t21 -55q0 -37 -21 -58.5t-59 -21.5z" />
<glyph unicode="&#xb8;" horiz-adv-x="401" d="M170 -563q-47 0 -81.5 24t-33.5 68q0 37 43 37q24 0 44 -22.5t39 -45t40 -22.5q61 0 64 84q-3 64 -99 157q-75 75 -47 160l39 123h23q-21 -76 -11 -120.5t56 -92.5q46 -50 70.5 -90.5t23.5 -81.5q2 -64 -42 -121t-128 -57z" />
<glyph unicode="&#xb9;" horiz-adv-x="536" d="M100 823q-4 0 -4 12.5t4 12.5q97 0 119.5 22t22.5 119v242q0 122 -2 135q-5 34 -29 34t-125 -44q-5 -2 -10.5 2.5t-6 10t4.5 9.5l225 111q7 4 13.5 -1.5t6.5 -12.5v-486q0 -53 2.5 -77t18 -41t39 -20t74.5 -3q6 0 6 -12.5t-6 -12.5q-21 0 -78 3t-92 3q-36 0 -98.5 -3 t-84.5 -3z" />
<glyph unicode="&#xba;" horiz-adv-x="581" d="M264 735q-107 0 -176.5 84.5t-69.5 200.5q0 67 24.5 120.5t64.5 85t85 48t91 16.5q110 0 177.5 -84t67.5 -192q0 -116 -78.5 -197.5t-185.5 -81.5zM297 772q69 0 114.5 54t45.5 153q0 116 -60 196t-155 80q-70 0 -111 -48.5t-41 -147.5q0 -122 58 -204.5t149 -82.5z M51 590q-6 0 -8.5 13t-1 25.5t5.5 12.5h500q7 0 9.5 -12.5t0.5 -25.5t-8 -13h-498z" />
<glyph unicode="&#xbb;" horiz-adv-x="923" d="M141 739l357 -305q9 -9 9 -23.5t-9 -23.5l-357 -305q-4 -7 -11 1q-5 6 -3 11l266 316l-266 319q-2 5 6 11q6 2 8 -1zM442 739l359 -305q7 -9 7 -23.5t-7 -23.5l-359 -305q-4 -7 -11 1q-5 6 -3 11l266 316l-266 319q-2 5 6 11q6 4 8 -1z" />
<glyph unicode="&#xbc;" horiz-adv-x="1224" d="M453 655q6 0 6 -11t-6 -11q-21 0 -78 2t-92 2q-36 0 -98.5 -2t-84.5 -2q-4 0 -4 11t4 11q97 0 119.5 22.5t22.5 119.5v243v48q1 107 -18.5 117t-137.5 -42q-5 -2 -10.5 3t-6 11t4.5 9l225 112q7 3 13.5 -3t6.5 -11v-487q0 -98 20.5 -120t113.5 -22zM901 1282q4 3 14 0.5 t21 -8t10 -8.5l-573 -1266q-3 -3 -13 0t-21.5 9t-10.5 9zM1165 23q1 0 1 -12.5t-1 -12.5q-17 0 -55.5 1t-65.5 1q-32 0 -84 -1t-71 -1q-3 0 -3 12.5t3 12.5q74 0 93 10t19 51v104q-175 5 -256 5q-4 0 -7 3.5t1 6.5l316 461q3 3 9.5 1t6.5 -6v-430l94 7q5 0 5 -28t-5 -28 q-62 4 -94 4v-100q0 -29 4.5 -39.5t23.5 -16t66 -5.5zM821 223q82 0 180 4v316l-184 -314q-3 -6 4 -6z" />
<glyph unicode="&#xbd;" horiz-adv-x="1247" d="M100 633q-4 0 -4 11t4 11q97 0 119.5 22.5t22.5 119.5v243v48q1 107 -18.5 117t-137.5 -42q-5 -2 -10.5 3t-6 11t4.5 9l225 112q7 3 13.5 -3t6.5 -11v-487q0 -98 20.5 -120t113.5 -22q6 0 6 -11t-6 -11q-21 0 -78 2t-92 2q-36 0 -98.5 -2t-84.5 -2zM373 0q-3 -3 -13 0 t-21.5 9t-10.5 9l573 1264q4 3 14 0.5t21 -8t10 -8.5zM805 12q12 37 56 103.5t88 127t79 135t35 130.5q0 55 -29.5 87t-77.5 32q-51 0 -88 -33t-49 -86q-1 -5 -7.5 -5.5t-12 2.5t-4.5 7q46 156 192 156q77 0 118.5 -40.5t41.5 -103.5q0 -49 -38.5 -115.5t-85.5 -122 t-95 -117.5t-62 -97q0 -6 6 -6h86t63.5 2.5t48.5 3.5t32.5 9.5t24.5 13t14.5 21.5t13.5 27.5t12 38.5q0 3 5.5 3t5.5 -3l-2 -172q0 -10 -9 -10h-356q-9 0 -6 12z" />
<glyph unicode="&#xbe;" horiz-adv-x="1202" d="M438 819q0 -81 -54 -139.5t-148 -58.5q-79 0 -126 38.5t-63 102.5q-1 5 5 8t12.5 2t7.5 -6q12 -43 49.5 -78t103.5 -35q58 0 93.5 33.5t35.5 106.5q0 78 -43.5 125t-109.5 47q-5 0 -5 12t5 12q59 0 93 49t34 103q0 49 -31 84t-80 35q-46 0 -83.5 -34t-49.5 -85 q-1 -5 -7.5 -6t-12.5 2t-5 8q19 69 66 112t125 43q74 0 118 -40.5t44 -104.5q0 -57 -36.5 -104.5t-96.5 -69.5q159 -35 159 -162zM879 1282q4 3 14 0.5t21 -8t10 -8.5l-574 -1266q-3 -3 -13 0t-21.5 9t-10.5 9zM1143 23q1 0 1 -12.5t-1 -12.5q-17 0 -55.5 1t-65.5 1 q-32 0 -84 -1t-72 -1q-3 0 -3 12.5t3 12.5q74 0 93.5 10t19.5 51v104q-175 5 -256 5q-4 0 -7 3.5t1 6.5l315 461q3 3 10 1t7 -6v-430l94 7q5 0 5 -28t-5 -28q-62 4 -94 4v-100q0 -29 4.5 -39.5t23.5 -16t66 -5.5zM799 223q82 0 180 4v316l-184 -314q-3 -6 4 -6z" />
<glyph unicode="&#xbf;" horiz-adv-x="669" d="M371 739q37 0 59.5 -21.5t22.5 -58.5q0 -35 -22.5 -55t-59.5 -20q-38 0 -59 20t-21 55q0 37 21 58.5t59 21.5zM348 -539q28 0 47.5 8.5t29 25t13 30t6.5 35.5q15 78 70 78q28 0 44.5 -19.5t16.5 -44.5q0 -56 -69.5 -96.5t-165.5 -40.5q-117 0 -192.5 63.5t-75.5 182.5 q0 47 11 86t37.5 75.5t42.5 54.5t54 56q73 73 102 128.5t29 125.5q0 49 -12 113q-1 4 4 6.5t11 2t7 -4.5q24 -54 39 -126t15 -118q0 -40 -12.5 -74t-32 -58.5t-43.5 -47.5t-48 -47t-43.5 -50.5t-32 -64t-12.5 -82.5q0 -88 45 -142.5t115 -54.5z" />
<glyph unicode="&#xc0;" horiz-adv-x="1325" d="M477 1548q-16 3 21 22q60 30 96 33q5 0 8 -1q18 -12 66.5 -46t74.5 -51.5t68.5 -44.5t81.5 -49q10 -3 4 -15q-5 -9 -10 -5q-208 102 -410 157zM1325 25q6 0 6 -12.5t-6 -12.5q-34 0 -107 4t-118 4q-44 0 -111 -4t-102 -4q-7 0 -7 12.5t7 12.5q107 0 130.5 30.5 t-9.5 116.5l-187 522h-348l-172 -422q-26 -65 -34.5 -110t-3 -71.5t28 -41.5t50.5 -19.5t72 -4.5q6 0 8 -6.5t-0.5 -12.5t-9.5 -6q-26 0 -102.5 4t-116.5 4q-47 0 -110 -4t-99 -4q-8 0 -8.5 12.5t8.5 12.5q149 0 243 221l447 1054q3 8 21 7.5t22 -9.5l401 -1126 q23 -62 42 -90t57 -42.5t108 -14.5zM489 733h318l-148 414z" />
<glyph unicode="&#xc1;" horiz-adv-x="1325" d="M571 1391q-6 -3 -11 1.5t-5.5 10t2.5 8.5q55 28 108 60t116 72.5t93 58.5q14 7 84 -24q47 -21 43 -28q-1 -1 -4 -2q-218 -57 -426 -157zM1325 25q6 0 6 -12.5t-6 -12.5q-34 0 -107 4t-118 4q-44 0 -111 -4t-102 -4q-7 0 -7 12.5t7 12.5q107 0 130.5 30.5t-9.5 116.5 l-187 522h-348l-172 -422q-26 -65 -34.5 -110t-3 -71.5t28 -41.5t50.5 -19.5t72 -4.5q6 0 8 -6.5t-0.5 -12.5t-9.5 -6q-26 0 -102.5 4t-116.5 4q-47 0 -110 -4t-99 -4q-8 0 -8.5 12.5t8.5 12.5q149 0 243 221l447 1054q3 8 21 7.5t22 -9.5l401 -1126q23 -62 42 -90t57 -42.5 t108 -14.5zM489 733h318l-148 414z" />
<glyph unicode="&#xc2;" horiz-adv-x="1325" d="M512 1352q-4 -4 -12 5q-6 5 -2 9l180 188q8 9 19 9t20 -9l180 -188q2 -3 0 -7.5t-5.5 -6.5t-6.5 0l-195 127zM1325 25q6 0 6 -12.5t-6 -12.5q-34 0 -107 4t-118 4q-44 0 -111 -4t-102 -4q-7 0 -7 12.5t7 12.5q107 0 130.5 30.5t-9.5 116.5l-187 522h-348l-172 -422 q-26 -65 -34.5 -110t-3 -71.5t28 -41.5t50.5 -19.5t72 -4.5q6 0 8 -6.5t-0.5 -12.5t-9.5 -6q-26 0 -102.5 4t-116.5 4q-47 0 -110 -4t-99 -4q-8 0 -8.5 12.5t8.5 12.5q149 0 243 221l447 1054q3 8 21 7.5t22 -9.5l401 -1126q23 -62 42 -90t57 -42.5t108 -14.5zM489 733h318 l-148 414z" />
<glyph unicode="&#xc3;" horiz-adv-x="1325" d="M455 1427q-2 -2 -7.5 0.5t-9 7t-0.5 7.5q71 119 150 119q32 0 122.5 -26t145.5 -26q25 0 44 10t26 18t22 28q3 3 10.5 -3t6.5 -12q-41 -69 -71 -92.5t-69 -23.5q-44 0 -134.5 24.5t-145.5 24.5q-11 0 -20.5 -1t-18 -5.5t-13 -6.5t-12 -10t-9 -9.5t-9.5 -12.5zM1325 25 q6 0 6 -12.5t-6 -12.5q-34 0 -107 4t-118 4q-44 0 -111 -4t-102 -4q-7 0 -7 12.5t7 12.5q107 0 130.5 30.5t-9.5 116.5l-187 522h-348l-172 -422q-26 -65 -34.5 -110t-3 -71.5t28 -41.5t50.5 -19.5t72 -4.5q6 0 8 -6.5t-0.5 -12.5t-9.5 -6q-26 0 -102.5 4t-116.5 4 q-47 0 -110 -4t-99 -4q-8 0 -8.5 12.5t8.5 12.5q149 0 243 221l447 1054q3 8 21 7.5t22 -9.5l401 -1126q23 -62 42 -90t57 -42.5t108 -14.5zM489 733h318l-148 414z" />
<glyph unicode="&#xc4;" horiz-adv-x="1325" d="M541 1475q-37 0 -59.5 20.5t-22.5 56.5t22.5 57t59.5 21q38 0 59 -20.5t21 -57.5t-21 -57t-59 -20zM846 1475q-38 0 -60 20t-22 57t22 57.5t60 20.5q37 0 57.5 -20.5t20.5 -57.5t-20.5 -57t-57.5 -20zM1325 25q6 0 6 -12.5t-6 -12.5q-34 0 -107 4t-118 4q-44 0 -111 -4 t-102 -4q-7 0 -7 12.5t7 12.5q107 0 130.5 30.5t-9.5 116.5l-187 522h-348l-172 -422q-26 -65 -34.5 -110t-3 -71.5t28 -41.5t50.5 -19.5t72 -4.5q6 0 8 -6.5t-0.5 -12.5t-9.5 -6q-26 0 -102.5 4t-116.5 4q-47 0 -110 -4t-99 -4q-8 0 -8.5 12.5t8.5 12.5q149 0 243 221 l447 1054q3 8 21 7.5t22 -9.5l401 -1126q23 -62 42 -90t57 -42.5t108 -14.5zM489 733h318l-148 414z" />
<glyph unicode="&#xc5;" horiz-adv-x="1325" d="M684 1362q-76 0 -123 49t-47 115q0 73 59.5 115t131.5 42q69 0 119 -47t50 -114q0 -71 -58 -115.5t-132 -44.5zM664 1665q-38 0 -55 -23.5t-17 -74.5q0 -70 34.5 -127.5t90.5 -57.5q40 0 59 24.5t19 78.5q0 73 -38 126.5t-93 53.5zM1325 25q6 0 6 -12.5t-6 -12.5 q-34 0 -107 4t-118 4q-44 0 -111 -4t-102 -4q-7 0 -7 12.5t7 12.5q107 0 130.5 30.5t-9.5 116.5l-187 522h-348l-172 -422q-26 -65 -34.5 -110t-3 -71.5t28 -41.5t50.5 -19.5t72 -4.5q6 0 8 -6.5t-0.5 -12.5t-9.5 -6q-26 0 -102.5 4t-116.5 4q-47 0 -110 -4t-99 -4 q-8 0 -8.5 12.5t8.5 12.5q149 0 243 221l447 1054q3 8 21 7.5t22 -9.5l401 -1126q23 -62 42 -90t57 -42.5t108 -14.5zM489 733h318l-148 414z" />
<glyph unicode="&#xc6;" horiz-adv-x="1705" d="M1612 301q0 8 17 3q9 -2 7 -7q-16 -144 -16 -266q0 -17 -7 -24t-26 -7h-844q-11 0 -11 12.5t11 12.5q114 0 150 26.5t35 114.5l-25 481h-350l-254 -395q-82 -114 -65 -170.5t151 -56.5q10 0 9.5 -12.5t-9.5 -12.5q-37 0 -109 4t-126 4q-49 0 -114.5 -4t-103.5 -4 q-9 0 -9.5 12.5t9.5 12.5q85 0 149 49.5t165 195.5l581 906q31 47 19 61q-15 17 -126 18h-30q-10 0 -10 12.5t10 12.5h834q11 0 14.5 -4t3.5 -14l8 -250q-2 -8 -19 -6q-7 3 -7 6q-2 108 -59.5 173.5t-159.5 65.5h-99q-78 0 -119.5 -4.5t-66 -21.5t-31 -41.5t-6.5 -71.5 l23 -426h274q90 0 125 33t37 112q0 7 12 7t12 -7v-165q0 -30 2 -90t2 -95q0 -5 -12 -5t-12 5q0 92 -39 129t-137 37h-262l26 -473q0 -87 31 -112t141 -25h193q80 0 137 72.5t76 191.5zM578 686h323l-22 465z" />
<glyph unicode="&#xc7;" horiz-adv-x="1294" d="M1198 328q2 7 12.5 5.5t10.5 -7.5l-23 -224q-5 -25 -9.5 -32.5t-21.5 -14.5q-189 -80 -387 -80q-14 -64 -2.5 -104t53.5 -84q47 -50 71.5 -91t23.5 -81q2 -64 -42 -121t-128 -57q-47 0 -81.5 24t-33.5 68q0 37 43 37q24 0 44 -22.5t39 -45t40 -22.5q60 0 63 84 q-3 65 -98 157q-75 75 -47 160l31 98q-140 3 -254 45t-189.5 109t-126.5 155t-73.5 180t-22.5 189q0 141 58 264t154.5 206.5t222.5 131.5t261 48q102 0 202 -20t161 -56q13 -7 18 -13.5t6.5 -12.5t2.5 -23l24 -215q0 -8 -9.5 -10t-12.5 5q-81 302 -463 302 q-228 0 -363 -150.5t-135 -400.5q0 -194 75 -357t206.5 -257.5t289.5 -94.5q136 0 244 82.5t166 245.5z" />
<glyph unicode="&#xc8;" horiz-adv-x="1126" d="M348 1548q-16 3 21 22q60 30 96 33q5 0 8 -1q18 -12 66.5 -46t74.5 -51.5t68.5 -44.5t81.5 -49q10 -3 4 -15q-5 -9 -10 -5q-208 102 -410 157zM1030 301q1 5 8 6t13.5 -2t5.5 -8q-17 -102 -17 -266q0 -17 -7 -24t-25 -7h-914q-6 0 -6 12.5t6 12.5q109 0 140.5 26 t31.5 115v948q-3 62 -16.5 90t-48.5 39.5t-111 11.5q-4 0 -4 12.5t4 12.5h860q15 0 15 -18q2 -44 5 -145t3 -105q0 -9 -13.5 -8.5t-13.5 8.5q-2 107 -51.5 173t-134.5 66h-223q-74 0 -107.5 -11t-45.5 -38.5t-13 -89.5v-426h334q87 0 120 31t31 110q0 9 15 7q8 -2 8 -7v-161 q0 -29 3 -90t3 -97q0 -9 -12.5 -9t-12.5 9q0 93 -36.5 130.5t-129.5 37.5h-323v-473q0 -87 30 -112t136 -25h294q74 0 128 72.5t71 191.5z" />
<glyph unicode="&#xc9;" horiz-adv-x="1126" d="M442 1391q-6 -3 -11 1.5t-5.5 10t2.5 8.5q55 28 108 60t116 72.5t93 58.5q14 7 84 -24q47 -21 43 -28q-1 -1 -4 -2q-218 -57 -426 -157zM1030 301q1 5 8 6t13.5 -2t5.5 -8q-17 -102 -17 -266q0 -17 -7 -24t-25 -7h-914q-6 0 -6 12.5t6 12.5q109 0 140.5 26t31.5 115v948 q-3 62 -16.5 90t-48.5 39.5t-111 11.5q-4 0 -4 12.5t4 12.5h860q15 0 15 -18q2 -44 5 -145t3 -105q0 -9 -13.5 -8.5t-13.5 8.5q-2 107 -51.5 173t-134.5 66h-223q-74 0 -107.5 -11t-45.5 -38.5t-13 -89.5v-426h334q87 0 120 31t31 110q0 9 15 7q8 -2 8 -7v-161q0 -29 3 -90 t3 -97q0 -9 -12.5 -9t-12.5 9q0 93 -36.5 130.5t-129.5 37.5h-323v-473q0 -87 30 -112t136 -25h294q74 0 128 72.5t71 191.5z" />
<glyph unicode="&#xca;" horiz-adv-x="1126" d="M383 1352q-4 -4 -12 5q-6 5 -2 9l180 188q7 9 18.5 9t20.5 -9l180 -188q2 -3 0 -7.5t-5.5 -6.5t-6.5 0l-195 127zM1030 301q1 5 8 6t13.5 -2t5.5 -8q-17 -102 -17 -266q0 -17 -7 -24t-25 -7h-914q-6 0 -6 12.5t6 12.5q109 0 140.5 26t31.5 115v948q-3 62 -16.5 90 t-48.5 39.5t-111 11.5q-4 0 -4 12.5t4 12.5h860q15 0 15 -18q2 -44 5 -145t3 -105q0 -9 -13.5 -8.5t-13.5 8.5q-2 107 -51.5 173t-134.5 66h-223q-74 0 -107.5 -11t-45.5 -38.5t-13 -89.5v-426h334q87 0 120 31t31 110q0 9 15 7q8 -2 8 -7v-161q0 -29 3 -90t3 -97 q0 -9 -12.5 -9t-12.5 9q0 93 -36.5 130.5t-129.5 37.5h-323v-473q0 -87 30 -112t136 -25h294q74 0 128 72.5t71 191.5z" />
<glyph unicode="&#xcb;" horiz-adv-x="1126" d="M412 1475q-37 0 -59.5 20.5t-22.5 56.5t22.5 57t59.5 21q38 0 59 -20.5t21 -57.5t-21 -57t-59 -20zM717 1475q-38 0 -60 20t-22 57t22 57.5t60 20.5q37 0 57.5 -20.5t20.5 -57.5t-20.5 -57t-57.5 -20zM1030 301q1 5 8 6t13.5 -2t5.5 -8q-17 -102 -17 -266q0 -17 -7 -24 t-25 -7h-914q-6 0 -6 12.5t6 12.5q109 0 140.5 26t31.5 115v948q-3 62 -16.5 90t-48.5 39.5t-111 11.5q-4 0 -4 12.5t4 12.5h860q15 0 15 -18q2 -44 5 -145t3 -105q0 -9 -13.5 -8.5t-13.5 8.5q-2 107 -51.5 173t-134.5 66h-223q-74 0 -107.5 -11t-45.5 -38.5t-13 -89.5v-426 h334q87 0 120 31t31 110q0 9 15 7q8 -2 8 -7v-161q0 -29 3 -90t3 -97q0 -9 -12.5 -9t-12.5 9q0 93 -36.5 130.5t-129.5 37.5h-323v-473q0 -87 30 -112t136 -25h294q74 0 128 72.5t71 191.5z" />
<glyph unicode="&#xcc;" horiz-adv-x="653" d="M516 1391q-208 102 -410 157q-16 3 21 22q60 30 96 33q5 0 8 -1q18 -12 66.5 -46t74.5 -51.5t68.5 -44.5t81.5 -49q10 -3 4 -15q-5 -9 -10 -5zM102 0q-4 0 -5.5 6t-0.5 12.5t4 6.5q110 0 142.5 26t29.5 115v948q0 88 -32 114.5t-140 26.5q-4 0 -4 12.5t4 12.5 q26 0 102 -3t122 -3q52 0 127.5 3t99.5 3q7 0 7 -12.5t-7 -12.5q-73 0 -108 -12.5t-48 -41.5t-14 -91v-944q1 -63 14 -91t47 -39t109 -11q5 0 7 -6.5t0.5 -12.5t-5.5 -6q-26 0 -99 2t-124 2q-45 0 -122.5 -2t-105.5 -2z" />
<glyph unicode="&#xcd;" horiz-adv-x="653" d="M201 1391q-6 -3 -11 1.5t-6 10t2 8.5q55 28 108 59.5t117 73t93 58.5q14 7 84 -24q47 -21 43 -28q-1 -1 -4 -2q-218 -57 -426 -157zM102 0q-4 0 -5.5 6t-0.5 12.5t4 6.5q110 0 142.5 26t29.5 115v948q0 88 -32 114.5t-140 26.5q-4 0 -4 12.5t4 12.5q26 0 102 -3t122 -3 q52 0 127.5 3t99.5 3q7 0 7 -12.5t-7 -12.5q-73 0 -108 -12.5t-48 -41.5t-14 -91v-944q1 -63 14 -91t47 -39t109 -11q5 0 7 -6.5t0.5 -12.5t-5.5 -6q-26 0 -99 2t-124 2q-45 0 -122.5 -2t-105.5 -2z" />
<glyph unicode="&#xce;" horiz-adv-x="653" d="M141 1352q-4 -4 -12 5q-6 5 -2 9l180 188q8 9 19 9t20 -9l180 -188q2 -3 0 -7.5t-5.5 -6.5t-6.5 0l-195 127zM102 0q-4 0 -5.5 6t-0.5 12.5t4 6.5q110 0 142.5 26t29.5 115v948q0 88 -32 114.5t-140 26.5q-4 0 -4 12.5t4 12.5q26 0 102 -3t122 -3q52 0 127.5 3t99.5 3 q7 0 7 -12.5t-7 -12.5q-73 0 -108 -12.5t-48 -41.5t-14 -91v-944q1 -63 14 -91t47 -39t109 -11q5 0 7 -6.5t0.5 -12.5t-5.5 -6q-26 0 -99 2t-124 2q-45 0 -122.5 -2t-105.5 -2z" />
<glyph unicode="&#xcf;" horiz-adv-x="653" d="M186 1475q-37 0 -59.5 20.5t-22.5 56.5t22.5 57t59.5 21q38 0 59 -20.5t21 -57.5t-21 -57t-59 -20zM457 1475q-37 0 -58.5 20.5t-21.5 56.5q0 37 21.5 57.5t58.5 20.5q38 0 59 -20.5t21 -57.5t-21 -57t-59 -20zM102 0q-4 0 -5.5 6t-0.5 12.5t4 6.5q110 0 142.5 26 t29.5 115v948q0 88 -32 114.5t-140 26.5q-4 0 -4 12.5t4 12.5q26 0 102 -3t122 -3q52 0 127.5 3t99.5 3q7 0 7 -12.5t-7 -12.5q-73 0 -108 -12.5t-48 -41.5t-14 -91v-944q1 -63 14 -91t47 -39t109 -11q5 0 7 -6.5t0.5 -12.5t-5.5 -6q-26 0 -99 2t-124 2q-45 0 -122.5 -2 t-105.5 -2z" />
<glyph unicode="&#xd0;" horiz-adv-x="1341" d="M563 1284q151 0 280 -48t218 -131t139.5 -197.5t50.5 -245.5q0 -150 -53.5 -277t-144 -212.5t-210.5 -133t-253 -47.5q-34 0 -133.5 6t-145.5 6q-48 0 -124.5 -2t-102.5 -2q-6 0 -6.5 12.5t6.5 12.5q108 0 140 26t32 115v452h-195q-7 0 -7 18.5t7 18.5h195v459 q-2 88 -33.5 114.5t-138.5 26.5q-6 0 -6.5 12.5t6.5 12.5q26 0 102.5 -3t122.5 -3q43 0 132.5 5t121.5 5zM569 18q246 0 398.5 157.5t152.5 440.5q0 180 -64.5 324.5t-188 230.5t-285.5 86q-126 0 -173 -27.5t-47 -119.5v-455h236q9 0 9 -18.5t-9 -18.5h-236v-430 q0 -93 42.5 -131.5t164.5 -38.5z" />
<glyph unicode="&#xd1;" horiz-adv-x="1441" d="M457 1427q-2 -2 -7.5 0.5t-9 7t-0.5 7.5q71 119 150 119q32 0 122.5 -26t145.5 -26q25 0 44 10t26 18t22 28q3 3 10.5 -3t6.5 -12q-41 -69 -71 -92.5t-69 -23.5q-44 0 -134.5 24.5t-145.5 24.5q-11 0 -20.5 -1t-18 -5.5t-13 -6.5t-12 -10t-9 -9.5t-9.5 -12.5zM1356 1280 q4 0 4 -12.5t-4 -12.5q-83 0 -118 -43.5t-34 -146.5v-1088q-2 -6 -10 -6.5t-16 6.5l-865 1135q-15 21 -30 39l2 -938q2 -105 33 -146.5t110 -41.5q6 0 6 -12.5t-6 -12.5q-21 0 -75 2t-89 2q-33 0 -90 -2t-80 -2q-6 0 -6 12.5t6 12.5q81 0 116 42.5t34 145.5v977 q-70 65 -148 65q-6 0 -6 12.5t6 12.5q22 0 69 -2t64 -2q22 0 53 2t37 2q12 0 20 -6.5t14 -16.5t20.5 -34.5t32.5 -48.5l761 -1012l-4 903q-2 106 -32.5 148t-110.5 42q-4 0 -4 12.5t4 12.5q22 0 76 -3t90 -3q32 0 89 3t81 3z" />
<glyph unicode="&#xd2;" horiz-adv-x="1495" d="M938 1391q-208 102 -410 157q-16 3 21 22q60 30 96 33q5 0 8 -1q18 -12 66.5 -46t74.5 -51.5t68.5 -44.5t81.5 -49q10 -3 4 -15q-5 -9 -10 -5zM709 -25q-180 0 -319.5 83.5t-214.5 226t-75 319.5q0 146 54.5 276t148 222.5t223.5 146.5t275 54q136 0 250 -47.5 t190.5 -131t119 -198.5t42.5 -248q0 -204 -95 -366t-253 -249.5t-346 -87.5zM801 29q227 0 361.5 151.5t137.5 399.5q2 192 -72.5 346t-208.5 240.5t-302 86.5q-224 0 -366.5 -149.5t-149.5 -401.5q-4 -190 73.5 -344.5t216.5 -241.5t310 -87z" />
<glyph unicode="&#xd3;" horiz-adv-x="1495" d="M623 1391q-6 -3 -11 1.5t-6 10t2 8.5q55 28 108 59.5t117 73t93 58.5q14 7 84 -24q47 -21 43 -28q-1 -1 -4 -2q-218 -57 -426 -157zM709 -25q-180 0 -319.5 83.5t-214.5 226t-75 319.5q0 146 54.5 276t148 222.5t223.5 146.5t275 54q136 0 250 -47.5t190.5 -131 t119 -198.5t42.5 -248q0 -204 -95 -366t-253 -249.5t-346 -87.5zM801 29q227 0 361.5 151.5t137.5 399.5q2 192 -72.5 346t-208.5 240.5t-302 86.5q-224 0 -366.5 -149.5t-149.5 -401.5q-4 -190 73.5 -344.5t216.5 -241.5t310 -87z" />
<glyph unicode="&#xd4;" horiz-adv-x="1495" d="M563 1352q-4 -4 -12 5q-6 5 -2 9l180 188q7 9 18.5 9t20.5 -9l180 -188q2 -3 0 -7.5t-5.5 -6.5t-6.5 0l-195 127zM709 -25q-180 0 -319.5 83.5t-214.5 226t-75 319.5q0 146 54.5 276t148 222.5t223.5 146.5t275 54q136 0 250 -47.5t190.5 -131t119 -198.5t42.5 -248 q0 -204 -95 -366t-253 -249.5t-346 -87.5zM801 29q227 0 361.5 151.5t137.5 399.5q2 192 -72.5 346t-208.5 240.5t-302 86.5q-224 0 -366.5 -149.5t-149.5 -401.5q-4 -190 73.5 -344.5t216.5 -241.5t310 -87z" />
<glyph unicode="&#xd5;" horiz-adv-x="1495" d="M506 1427q-2 -2 -7.5 0.5t-9 7t-0.5 7.5q71 119 150 119q32 0 122.5 -26t145.5 -26q25 0 44 10t26 18t22 28q3 3 10.5 -3t6.5 -12q-41 -69 -70.5 -92.5t-68.5 -23.5q-44 0 -135 24.5t-146 24.5q-11 0 -20.5 -1t-18 -5.5t-13 -6.5t-12 -10t-9 -9.5t-9.5 -12.5zM709 -25 q-180 0 -319.5 83.5t-214.5 226t-75 319.5q0 146 54.5 276t148 222.5t223.5 146.5t275 54q136 0 250 -47.5t190.5 -131t119 -198.5t42.5 -248q0 -204 -95 -366t-253 -249.5t-346 -87.5zM801 29q227 0 361.5 151.5t137.5 399.5q2 192 -72.5 346t-208.5 240.5t-302 86.5 q-224 0 -366.5 -149.5t-149.5 -401.5q-4 -190 73.5 -344.5t216.5 -241.5t310 -87z" />
<glyph unicode="&#xd6;" horiz-adv-x="1495" d="M592 1475q-37 0 -59.5 20.5t-22.5 56.5t22.5 57t59.5 21q38 0 59 -20.5t21 -57.5t-21 -57t-59 -20zM897 1475q-38 0 -60 20t-22 57t22 57.5t60 20.5q37 0 57.5 -20.5t20.5 -57.5t-20.5 -57t-57.5 -20zM709 -25q-180 0 -319.5 83.5t-214.5 226t-75 319.5q0 146 54.5 276 t148 222.5t223.5 146.5t275 54q136 0 250 -47.5t190.5 -131t119 -198.5t42.5 -248q0 -204 -95 -366t-253 -249.5t-346 -87.5zM801 29q227 0 361.5 151.5t137.5 399.5q2 192 -72.5 346t-208.5 240.5t-302 86.5q-224 0 -366.5 -149.5t-149.5 -401.5q-4 -190 73.5 -344.5 t216.5 -241.5t310 -87z" />
<glyph unicode="&#xd7;" horiz-adv-x="774" d="M442 389l211 -211q6 -8 -20.5 -34.5t-34.5 -20.5l-211 211l-213 -211q-3 -5 -18 7t-27.5 26.5t-9.5 17.5l215 215l-211 213q-5 3 7 18t26.5 27t17.5 8l213 -213l211 211q8 6 34.5 -20.5t20.5 -34.5z" />
<glyph unicode="&#xd8;" horiz-adv-x="1495" d="M1184 1178q105 -85 162 -214.5t57 -285.5q0 -204 -95 -366t-253 -249.5t-346 -87.5q-227 0 -387 131l-99 -120q-3 -4 -12 1t-15.5 13.5t-2.5 13.5l96 121q-90 85 -139.5 207t-49.5 262q0 146 54.5 276t148 222.5t223.5 146.5t275 54q199 0 350 -101l70 86q4 4 13.5 0 t16.5 -11t4 -11zM201 702q-3 -140 39 -262t122 -215l721 893q-154 135 -366 135q-224 0 -366.5 -149.5t-149.5 -401.5zM801 29q227 0 361.5 151.5t137.5 399.5q1 155 -47.5 286.5t-140.5 223.5l-721 -895q81 -79 186.5 -122.5t223.5 -43.5z" />
<glyph unicode="&#xd9;" horiz-adv-x="1536" d="M537 1548q-16 3 21 22q60 30 96 33q5 0 8 -1q20 -14 66.5 -46t73.5 -50.5t69 -45.5t81 -49q10 -3 4 -15q-5 -9 -10 -5q-210 102 -409 157zM1464 25q6 0 6.5 -12.5t-6.5 -12.5q-28 0 -83.5 1t-86.5 1q-20 0 -52 -1t-46 -1q-22 0 -28.5 6.5t-6.5 32.5v151 q-118 -114 -227 -164.5t-234 -50.5q-201 0 -329.5 110.5t-128.5 295.5v733q-1 62 -13.5 90t-47 39.5t-109.5 11.5q-4 0 -4 12.5t4 12.5q25 0 99.5 -3t119.5 -3q47 0 124.5 3t102.5 3q4 0 4 -12.5t-4 -12.5q-74 0 -109 -12.5t-47.5 -41.5t-13.5 -91l2 -657 q0 -203 101.5 -314.5t291.5 -111.5q112 0 209.5 45t208.5 155l-4 883q2 47 -2.5 72.5t-23 43.5t-50.5 23.5t-90 5.5q-5 0 -5 12.5t5 12.5q25 0 100.5 -3t120.5 -3q44 0 122.5 3t103.5 3q4 0 4 -12.5t-4 -12.5q-106 0 -138 -26.5t-32 -114.5v-948q0 -90 34.5 -115.5 t161.5 -25.5z" />
<glyph unicode="&#xda;" horiz-adv-x="1536" d="M631 1391q-6 -3 -11 1.5t-6 10t2 8.5q55 28 108 59.5t117 73t93 58.5q14 7 84 -24q47 -21 43 -28q-1 -1 -4 -2q-218 -57 -426 -157zM1464 25q6 0 6.5 -12.5t-6.5 -12.5q-28 0 -83.5 1t-86.5 1q-20 0 -52 -1t-46 -1q-22 0 -28.5 6.5t-6.5 32.5v151q-118 -114 -227 -164.5 t-234 -50.5q-201 0 -329.5 110.5t-128.5 295.5v733q-1 62 -13.5 90t-47 39.5t-109.5 11.5q-4 0 -4 12.5t4 12.5q25 0 99.5 -3t119.5 -3q47 0 124.5 3t102.5 3q4 0 4 -12.5t-4 -12.5q-74 0 -109 -12.5t-47.5 -41.5t-13.5 -91l2 -657q0 -203 101.5 -314.5t291.5 -111.5 q112 0 209.5 45t208.5 155l-4 883q2 47 -2.5 72.5t-23 43.5t-50.5 23.5t-90 5.5q-5 0 -5 12.5t5 12.5q25 0 100.5 -3t120.5 -3q44 0 122.5 3t103.5 3q4 0 4 -12.5t-4 -12.5q-106 0 -138 -26.5t-32 -114.5v-948q0 -90 34.5 -115.5t161.5 -25.5z" />
<glyph unicode="&#xdb;" horiz-adv-x="1536" d="M571 1352q-4 -4 -12 5q-6 5 -2 9l180 188q7 9 18.5 9t20.5 -9l180 -188q2 -3 0 -7.5t-5.5 -6.5t-6.5 0l-194 127zM1464 25q6 0 6.5 -12.5t-6.5 -12.5q-28 0 -83.5 1t-86.5 1q-20 0 -52 -1t-46 -1q-22 0 -28.5 6.5t-6.5 32.5v151q-118 -114 -227 -164.5t-234 -50.5 q-201 0 -329.5 110.5t-128.5 295.5v733q-1 62 -13.5 90t-47 39.5t-109.5 11.5q-4 0 -4 12.5t4 12.5q25 0 99.5 -3t119.5 -3q47 0 124.5 3t102.5 3q4 0 4 -12.5t-4 -12.5q-74 0 -109 -12.5t-47.5 -41.5t-13.5 -91l2 -657q0 -203 101.5 -314.5t291.5 -111.5q112 0 209.5 45 t208.5 155l-4 883q2 47 -2.5 72.5t-23 43.5t-50.5 23.5t-90 5.5q-5 0 -5 12.5t5 12.5q25 0 100.5 -3t120.5 -3q44 0 122.5 3t103.5 3q4 0 4 -12.5t-4 -12.5q-106 0 -138 -26.5t-32 -114.5v-948q0 -90 34.5 -115.5t161.5 -25.5z" />
<glyph unicode="&#xdc;" horiz-adv-x="1536" d="M600 1475q-37 0 -59.5 20.5t-22.5 56.5t22.5 57t59.5 21q38 0 59 -20.5t21 -57.5t-21 -57t-59 -20zM905 1475q-38 0 -60 20t-22 57t22 57.5t60 20.5q37 0 57.5 -20.5t20.5 -57.5t-20.5 -57t-57.5 -20zM1464 25q6 0 6.5 -12.5t-6.5 -12.5q-28 0 -83.5 1t-86.5 1 q-20 0 -52 -1t-46 -1q-22 0 -28.5 6.5t-6.5 32.5v151q-118 -114 -227 -164.5t-234 -50.5q-201 0 -329.5 110.5t-128.5 295.5v733q-1 62 -13.5 90t-47 39.5t-109.5 11.5q-4 0 -4 12.5t4 12.5q25 0 99.5 -3t119.5 -3q47 0 124.5 3t102.5 3q4 0 4 -12.5t-4 -12.5 q-74 0 -109 -12.5t-47.5 -41.5t-13.5 -91l2 -657q0 -203 101.5 -314.5t291.5 -111.5q112 0 209.5 45t208.5 155l-4 883q2 47 -2.5 72.5t-23 43.5t-50.5 23.5t-90 5.5q-5 0 -5 12.5t5 12.5q25 0 100.5 -3t120.5 -3q44 0 122.5 3t103.5 3q4 0 4 -12.5t-4 -12.5 q-106 0 -138 -26.5t-32 -114.5v-948q0 -90 34.5 -115.5t161.5 -25.5z" />
<glyph unicode="&#xdd;" horiz-adv-x="1163" d="M469 1391q-6 -3 -11 1.5t-5.5 10t2.5 8.5q55 28 108 60t116 72.5t93 58.5q14 7 84 -24q47 -21 43 -28q-1 -1 -4 -2q-218 -57 -426 -157zM1171 1280q7 0 7 -12.5t-7 -12.5q-144 0 -258 -184l-272 -438v-467q3 -91 32 -116t136 -25q9 0 9 -12.5t-9 -12.5q-26 0 -99.5 2 t-119.5 2q-49 0 -125 -2t-103 -2q-8 0 -8 12.5t8 12.5q109 0 142 26t33 115l-2 448l-328 496q-52 80 -99 112.5t-116 32.5q-6 0 -6 12.5t6 12.5q23 0 70.5 -3t68.5 -3q55 0 141 3t113 3q9 0 9 -12.5t-9 -12.5q-78 0 -97 -18.5t13 -62.5l326 -504l239 403q107 182 -59 182 q-7 0 -7 12.5t7 12.5q31 0 96 -3t117 -3q32 0 78 3t73 3z" />
<glyph unicode="&#xde;" horiz-adv-x="1171" d="M512 291q66 0 129 12.5t122 40t103.5 67.5t71.5 98.5t27 129.5q0 110 -60.5 195.5t-157 129.5t-210.5 44q-98 0 -175 -15l3 -827q0 -33 2 -52.5t10.5 -37.5t22 -26.5t40 -15t60.5 -8t88 -1.5q4 0 4 -12.5t-4 -12.5q-34 0 -126.5 2t-152.5 2q-44 0 -121 -2t-102 -2 q-5 0 -6 12.5t6 12.5q108 0 140 26t32 115v948q-1 62 -13 90t-46 39.5t-109 11.5q-5 0 -5.5 12.5t5.5 12.5q26 0 100 -3t119 -3q63 0 157.5 3t125.5 3q4 0 4 -12.5t-4 -12.5q-56 0 -88.5 -1.5t-61 -7.5t-42 -14t-23 -26t-12 -39.5t-3.5 -56.5v-90q92 14 220 14 q104 0 194 -22t161.5 -65.5t113 -114.5t41.5 -162q0 -84 -36 -154t-93.5 -116.5t-132 -78.5t-149 -46.5t-146.5 -14.5q-45 0 -97 10q-3 1 -3.5 8t1.5 13.5t6 5.5q35 -6 70 -6z" />
<glyph unicode="&#xdf;" horiz-adv-x="970" d="M55 -563q-70 0 -106.5 24t-38.5 58q-5 24 12 40.5t49 16.5q30 0 50 -16t29 -35t26 -35t41 -16q22 0 33 15.5t17.5 61.5t6 130.5t-1.5 222.5l-12 1014q-4 268 99 418.5t282 150.5q52 0 92.5 -14t65 -35t41 -49t22.5 -54t6 -51q0 -53 -22 -106t-53 -95.5t-62 -83t-52 -84.5 t-20 -84q0 -51 24.5 -103t60 -94t78 -90t78.5 -91.5t61 -98.5t26 -110q2 -61 -23 -120.5t-83 -103t-136 -43.5q-73 0 -118.5 31.5t-55.5 73.5q-3 26 11 41.5t42 15.5q22 0 38.5 -12t28.5 -29t25 -34t35 -29t51 -12q54 0 81 39t24 112q-3 65 -38 127.5t-81.5 113t-93 100.5 t-78.5 111t-31 124q1 53 20.5 101.5t46 86.5t53 77t45 91.5t18.5 112.5q0 41 -6.5 77.5t-23 75.5t-52.5 62.5t-88 23.5q-114 0 -180.5 -145.5t-63.5 -399.5l16 -956q6 -296 -39 -408t-176 -112z" />
<glyph unicode="&#xe0;" d="M530 973l-170 516q-4 14 44 3q54 -13 57 -26l86 -491q1 -3 -3.5 -5t-9 -1.5t-4.5 4.5zM952 158q5 3 11.5 1t11.5 -8t2 -10q-63 -82 -111.5 -120.5t-99.5 -38.5q-107 0 -104 151l4 281q-72 -197 -183.5 -319t-236.5 -122q-76 0 -123 53.5t-47 172.5q0 144 66 288 t175.5 237t223.5 93q97 0 157 -57q32 32 35 71q0 5 13.5 5t13.5 -5l-6 -649q0 -125 61 -125q53 0 137 101zM299 61q89 0 173.5 87.5t133.5 211t49 234.5q0 72 -49 117.5t-121 40.5q-128 -5 -221.5 -141.5t-93.5 -338.5q0 -107 31.5 -159t97.5 -52z" />
<glyph unicode="&#xe1;" d="M508 969q-3 -4 -9 -3.5t-11.5 3.5t-4.5 6l117 491q3 13 59 26q50 10 46 -3zM952 158q5 3 11.5 1t11.5 -8t2 -10q-63 -82 -111.5 -120.5t-99.5 -38.5q-107 0 -104 151l4 281q-72 -197 -183.5 -319t-236.5 -122q-76 0 -123 53.5t-47 172.5q0 144 66 288t175.5 237t223.5 93 q97 0 157 -57q32 32 35 71q0 5 13.5 5t13.5 -5l-6 -649q0 -125 61 -125q53 0 137 101zM299 61q89 0 173.5 87.5t133.5 211t49 234.5q0 72 -49 117.5t-121 40.5q-128 -5 -221.5 -141.5t-93.5 -338.5q0 -107 31.5 -159t97.5 -52z" />
<glyph unicode="&#xe2;" d="M416 971q-2 -6 -13.5 -2.5t-11.5 8.5l121 510q2 11 20 11t19 -11l117 -510q1 -2 -4 -4q-15 -4 -21 2l-115 340zM952 158q5 3 11.5 1t11.5 -8t2 -10q-63 -82 -111.5 -120.5t-99.5 -38.5q-107 0 -104 151l4 281q-72 -197 -183.5 -319t-236.5 -122q-76 0 -123 53.5 t-47 172.5q0 144 66 288t175.5 237t223.5 93q97 0 157 -57q32 32 35 71q0 5 13.5 5t13.5 -5l-6 -649q0 -125 61 -125q53 0 137 101zM299 61q89 0 173.5 87.5t133.5 211t49 234.5q0 72 -49 117.5t-121 40.5q-128 -5 -221.5 -141.5t-93.5 -338.5q0 -107 31.5 -159t97.5 -52z " />
<glyph unicode="&#xe3;" d="M274 987q-1 -2 -5.5 0t-8 6t-2.5 8q73 117 154 117q32 0 121 -24.5t145 -24.5q24 0 42.5 9t27.5 19t20 27q2 2 7 -0.5t8.5 -6.5t0.5 -7q-40 -69 -70.5 -94t-68.5 -25q-45 0 -135 25.5t-143 25.5q-16 0 -28 -2.5t-22 -9.5t-15 -11.5t-14.5 -16t-13.5 -15.5zM952 158 q5 3 11.5 1t11.5 -8t2 -10q-63 -82 -111.5 -120.5t-99.5 -38.5q-107 0 -104 151l4 281q-72 -197 -183.5 -319t-236.5 -122q-76 0 -123 53.5t-47 172.5q0 144 66 288t175.5 237t223.5 93q97 0 157 -57q32 32 35 71q0 5 13.5 5t13.5 -5l-6 -649q0 -125 61 -125q53 0 137 101z M299 61q89 0 173.5 87.5t133.5 211t49 234.5q0 72 -49 117.5t-121 40.5q-128 -5 -221.5 -141.5t-93.5 -338.5q0 -107 31.5 -159t97.5 -52z" />
<glyph unicode="&#xe4;" d="M373 985q-37 0 -59.5 21t-22.5 57t22.5 57t59.5 21q38 0 59 -20.5t21 -57.5t-21 -57.5t-59 -20.5zM678 985q-38 0 -60 20.5t-22 57.5t22 57.5t60 20.5q37 0 57.5 -20.5t20.5 -57.5t-20.5 -57.5t-57.5 -20.5zM952 158q5 3 11.5 1t11.5 -8t2 -10q-63 -82 -111.5 -120.5 t-99.5 -38.5q-107 0 -104 151l4 281q-72 -197 -183.5 -319t-236.5 -122q-76 0 -123 53.5t-47 172.5q0 144 66 288t175.5 237t223.5 93q97 0 157 -57q32 32 35 71q0 5 13.5 5t13.5 -5l-6 -649q0 -125 61 -125q53 0 137 101zM299 61q89 0 173.5 87.5t133.5 211t49 234.5 q0 72 -49 117.5t-121 40.5q-128 -5 -221.5 -141.5t-93.5 -338.5q0 -107 31.5 -159t97.5 -52z" />
<glyph unicode="&#xe5;" d="M514 958q-78 0 -124 47.5t-46 114.5q0 74 58 117t130 43q70 0 120 -48t50 -116q0 -71 -57.5 -114.5t-130.5 -43.5zM492 1260q-72 0 -72 -99q0 -70 35 -127t90 -57q42 0 61 24t19 78q0 73 -38.5 127t-94.5 54zM952 158q5 3 11.5 1t11.5 -8t2 -10q-63 -82 -111.5 -120.5 t-99.5 -38.5q-107 0 -104 151l4 281q-72 -197 -183.5 -319t-236.5 -122q-76 0 -123 53.5t-47 172.5q0 144 66 288t175.5 237t223.5 93q97 0 157 -57q32 32 35 71q0 5 13.5 5t13.5 -5l-6 -649q0 -125 61 -125q53 0 137 101zM299 61q89 0 173.5 87.5t133.5 211t49 234.5 q0 72 -49 117.5t-121 40.5q-128 -5 -221.5 -141.5t-93.5 -338.5q0 -107 31.5 -159t97.5 -52z" />
<glyph unicode="&#xe6;" horiz-adv-x="1167" d="M1110 111q3 3 8.5 -0.5t9 -10t0.5 -10.5q-60 -61 -119 -88t-132 -27q-131 0 -209.5 101.5t-89.5 279.5q-57 -177 -145 -280t-193 -103q-72 0 -118 55.5t-46 180.5q0 141 57 282t154 233.5t202 92.5q59 0 107.5 -33.5t67.5 -99.5q58 65 131 99t149 34q86 0 126 -38.5 t40 -88.5q0 -71 -95 -130.5t-335 -125.5q3 -77 18.5 -146t43.5 -127.5t74.5 -93t105.5 -34.5q113 0 188 78zM879 778q-89 0 -144 -85t-55 -222v-10q63 19 108.5 35.5t97 42t79 56.5t28.5 67q0 42 -27 79t-87 37zM291 61q75 0 143.5 78.5t107 192.5t38.5 223 q0 91 -38.5 144.5t-107.5 52.5q-111 -3 -187.5 -136.5t-76.5 -330.5q0 -224 121 -224z" />
<glyph unicode="&#xe7;" horiz-adv-x="722" d="M705 76q-128 -100 -275 -103q-14 -62 -2.5 -102t53.5 -84q46 -50 70.5 -90.5t23.5 -81.5q2 -64 -41.5 -121t-127.5 -57q-47 0 -81.5 24t-33.5 68q0 37 43 37q24 0 44 -22.5t39 -45t40 -22.5q60 0 63 84q-3 65 -98 157q-75 75 -47 160l31 96q-87 3 -155 42t-107 100.5 t-58.5 129t-19.5 136.5q0 103 35 188t91.5 138t126 81.5t142.5 28.5q82 0 145.5 -32.5t69.5 -84.5q2 -26 -11 -42.5t-42 -16.5q-48 0 -84 59q-47 76 -146 76q-78 0 -129.5 -48t-72 -118t-21.5 -159q-2 -79 17.5 -152t58 -132t102 -94.5t144.5 -35.5q90 0 194 59q3 3 9 -0.5 t9.5 -9.5t0.5 -10z" />
<glyph unicode="&#xe8;" horiz-adv-x="739" d="M440 973l-170 516q-4 14 44 3q54 -13 57 -26l86 -491q1 -3 -3.5 -5t-9 -1.5t-4.5 4.5zM696 109q6 3 15.5 -5t5.5 -14q-137 -115 -295 -115q-87 0 -156.5 32.5t-112 87t-65 122t-22.5 141.5q0 119 54 224.5t151 170t214 64.5q81 0 124.5 -29t41.5 -81q-3 -59 -68 -113.5 t-172.5 -93.5t-238.5 -58v-2q0 -182 81.5 -290.5t229.5 -108.5q125 0 213 68zM401 762q-112 0 -167.5 -80t-61.5 -213q331 51 352 195q7 50 -27 74t-96 24z" />
<glyph unicode="&#xe9;" horiz-adv-x="739" d="M418 969q-3 -4 -9 -3.5t-11.5 3.5t-4.5 6l117 491q3 13 60 26q48 10 44 -3zM696 109q6 3 15.5 -5t5.5 -14q-137 -115 -295 -115q-87 0 -156.5 32.5t-112 87t-65 122t-22.5 141.5q0 119 54 224.5t151 170t214 64.5q81 0 124.5 -29t41.5 -81q-3 -59 -68 -113.5 t-172.5 -93.5t-238.5 -58v-2q0 -182 81.5 -290.5t229.5 -108.5q125 0 213 68zM401 762q-112 0 -167.5 -80t-61.5 -213q331 51 352 195q7 50 -27 74t-96 24z" />
<glyph unicode="&#xea;" horiz-adv-x="739" d="M326 971q-2 -6 -13.5 -2.5t-11.5 8.5l121 510q2 11 20 11t19 -11l117 -510q1 -2 -4 -4q-15 -4 -21 2l-115 340zM696 109q6 3 15.5 -5t5.5 -14q-137 -115 -295 -115q-87 0 -156.5 32.5t-112 87t-65 122t-22.5 141.5q0 119 54 224.5t151 170t214 64.5q81 0 124.5 -29 t41.5 -81q-3 -59 -68 -113.5t-172.5 -93.5t-238.5 -58v-2q0 -182 81.5 -290.5t229.5 -108.5q125 0 213 68zM401 762q-112 0 -167.5 -80t-61.5 -213q331 51 352 195q7 50 -27 74t-96 24z" />
<glyph unicode="&#xeb;" horiz-adv-x="739" d="M283 985q-37 0 -59.5 21t-22.5 57t22.5 57t59.5 21q38 0 58.5 -20.5t20.5 -57.5t-20.5 -57.5t-58.5 -20.5zM588 985q-38 0 -60 20.5t-22 57.5t22 57.5t60 20.5q37 0 57.5 -20.5t20.5 -57.5t-20.5 -57.5t-57.5 -20.5zM696 109q6 3 15.5 -5t5.5 -14q-137 -115 -295 -115 q-87 0 -156.5 32.5t-112 87t-65 122t-22.5 141.5q0 119 54 224.5t151 170t214 64.5q81 0 124.5 -29t41.5 -81q-3 -59 -68 -113.5t-172.5 -93.5t-238.5 -58v-2q0 -182 81.5 -290.5t229.5 -108.5q125 0 213 68zM401 762q-112 0 -167.5 -80t-61.5 -213q331 51 352 195 q7 50 -27 74t-96 24z" />
<glyph unicode="&#xec;" horiz-adv-x="532" d="M63 1489q-3 7 11 7q35 1 77 -18q16 -7 17 -12l115 -491q3 -4 -6 -7q-13 -4 -15 3zM330 -18q-54 0 -83 38.5t-26 112.5l6 475q3 125 -61 125q-51 0 -143 -102q-6 -4 -12.5 -2.5t-10.5 7.5t0 11q60 81 113 121.5t108 40.5q53 0 78 -37.5t25 -116.5l-5 -473q0 -125 60 -125 q51 0 139 101q4 3 10 1t11 -8t2 -10q-63 -82 -111.5 -120.5t-99.5 -38.5z" />
<glyph unicode="&#xed;" horiz-adv-x="532" d="M246 971q-1 -4 -7 -4t-11.5 2.5t-4.5 5.5l117 491q3 13 60 26q48 10 44 -3zM330 -18q-54 0 -83 38.5t-26 112.5l6 475q3 125 -61 125q-51 0 -143 -102q-6 -4 -12.5 -2.5t-10.5 7.5t0 11q60 81 113 121.5t108 40.5q53 0 78 -37.5t25 -116.5l-5 -473q0 -125 60 -125 q51 0 139 101q4 3 10 1t11 -8t2 -10q-63 -82 -111.5 -120.5t-99.5 -38.5z" />
<glyph unicode="&#xee;" horiz-adv-x="532" d="M276 1487l117 -510q1 -2 -4 -4q-14 -4 -20 2l-115 340l-113 -344q-1 -6 -12.5 -2.5t-11.5 8.5l121 510q2 11 19 11t19 -11zM330 -18q-54 0 -83 38.5t-26 112.5l6 475q3 125 -61 125q-51 0 -143 -102q-6 -4 -12.5 -2.5t-10.5 7.5t0 11q60 81 113 121.5t108 40.5 q53 0 78 -37.5t25 -116.5l-5 -473q0 -125 60 -125q51 0 139 101q4 3 10 1t11 -8t2 -10q-63 -82 -111.5 -120.5t-99.5 -38.5z" />
<glyph unicode="&#xef;" horiz-adv-x="532" d="M115 985q-37 0 -59.5 21t-22.5 57t22.5 57t59.5 21q38 0 59 -20.5t21 -57.5t-21 -57.5t-59 -20.5zM385 985q-37 0 -58.5 20.5t-21.5 57.5t21.5 57.5t58.5 20.5q38 0 59 -20.5t21 -57.5t-21 -57.5t-59 -20.5zM330 -18q-54 0 -83 38.5t-26 112.5l6 475q3 125 -61 125 q-51 0 -143 -102q-6 -4 -12.5 -2.5t-10.5 7.5t0 11q60 81 113 121.5t108 40.5q53 0 78 -37.5t25 -116.5l-5 -473q0 -125 60 -125q51 0 139 101q4 3 10 1t11 -8t2 -10q-63 -82 -111.5 -120.5t-99.5 -38.5z" />
<glyph unicode="&#xf0;" horiz-adv-x="884" d="M547 1188q126 -162 200 -358t74 -379q0 -118 -32 -211t-87 -150.5t-125 -87t-151 -29.5q-112 0 -195.5 58t-124 150t-40.5 204q0 85 24 157t64 122t91 85t104.5 51.5t105.5 16.5q119 0 211 -76q-65 218 -203 408l-285 -133q-4 -2 -10.5 6.5t-8 17t4.5 11.5l276 131 q-146 188 -321 276q-13 6 18 18q44 17 62 9q178 -88 321 -264l205 96q5 3 11.5 -5.5t9 -17.5t-0.5 -12zM477 10q110 0 172 97t62 303q0 188 -62 279t-217 91q-111 0 -185.5 -91t-74.5 -253q0 -176 85 -301t220 -125z" />
<glyph unicode="&#xf1;" horiz-adv-x="1019" d="M246 987q-1 -2 -5.5 0t-8.5 6t-3 8q73 117 154 117q32 0 121 -24.5t145 -24.5q24 0 42.5 9t27.5 19t20 27q2 2 7.5 -0.5t9 -6.5t0.5 -7q-40 -69 -70.5 -94t-69.5 -25q-44 0 -134.5 25.5t-143.5 25.5q-16 0 -28 -2.5t-21.5 -9.5t-14.5 -11.5t-14.5 -16t-13.5 -15.5z M1026 158q4 3 10 1t11 -8t2 -10q-63 -82 -111.5 -120.5t-99.5 -38.5q-107 0 -107 151l2 375q0 240 -127 240q-124 0 -209.5 -195t-89.5 -541q0 -12 -14.5 -20t-38.5 -8q-45 0 -51 12q0 2 1.5 26t3 61t1.5 69l4 456q0 125 -61 125q-52 0 -144 -102q-5 -5 -12 -2.5t-10 8 t0 10.5q60 81 113 121.5t108 40.5q52 0 76 -37t24 -117v-319q37 225 127.5 353t220.5 128q90 0 132.5 -64t41.5 -206l-2 -365q0 -125 60 -125q51 0 139 101z" />
<glyph unicode="&#xf2;" horiz-adv-x="870" d="M446 973l-170 516q-4 14 44 3q54 -13 57 -26l86 -491q1 -3 -3.5 -5t-9 -1.5t-4.5 4.5zM410 -29q-155 0 -249.5 112t-94.5 286q0 192 112.5 320t286.5 128q149 0 245.5 -101.5t96.5 -287.5q0 -207 -116.5 -332t-280.5 -125zM471 23q107 0 179.5 85.5t72.5 233.5 q0 108 -37 204.5t-110 159t-166 62.5q-110 0 -185 -84.5t-75 -228.5q0 -106 39 -204t114 -163t168 -65z" />
<glyph unicode="&#xf3;" horiz-adv-x="870" d="M424 969q-3 -4 -9 -3.5t-11.5 3.5t-4.5 6l117 491q3 13 59 26q50 10 46 -3zM410 -29q-155 0 -249.5 112t-94.5 286q0 192 112.5 320t286.5 128q149 0 245.5 -101.5t96.5 -287.5q0 -207 -116.5 -332t-280.5 -125zM471 23q107 0 179.5 85.5t72.5 233.5q0 108 -37 204.5 t-110 159t-166 62.5q-110 0 -185 -84.5t-75 -228.5q0 -106 39 -204t114 -163t168 -65z" />
<glyph unicode="&#xf4;" horiz-adv-x="870" d="M467 1487l117 -510q1 -2 -4 -4q-15 -4 -21 2l-115 340l-112 -344q-2 -6 -13.5 -2.5t-11.5 8.5l121 510q2 11 20 11t19 -11zM410 -29q-155 0 -249.5 112t-94.5 286q0 192 112.5 320t286.5 128q149 0 245.5 -101.5t96.5 -287.5q0 -207 -116.5 -332t-280.5 -125zM471 23 q107 0 179.5 85.5t72.5 233.5q0 108 -37 204.5t-110 159t-166 62.5q-110 0 -185 -84.5t-75 -228.5q0 -106 39 -204t114 -163t168 -65z" />
<glyph unicode="&#xf5;" horiz-adv-x="870" d="M190 987q-1 -2 -5.5 0t-8 6t-2.5 8q73 117 154 117q32 0 121 -24.5t145 -24.5q24 0 42.5 9t27.5 19t20 27q2 2 7 -0.5t8.5 -6.5t0.5 -7q-40 -69 -70.5 -94t-68.5 -25q-45 0 -135 25.5t-143 25.5q-16 0 -28 -2.5t-22 -9.5t-15 -11.5t-14.5 -16t-13.5 -15.5zM410 -29 q-155 0 -249.5 112t-94.5 286q0 192 112.5 320t286.5 128q149 0 245.5 -101.5t96.5 -287.5q0 -207 -116.5 -332t-280.5 -125zM471 23q107 0 179.5 85.5t72.5 233.5q0 108 -37 204.5t-110 159t-166 62.5q-110 0 -185 -84.5t-75 -228.5q0 -106 39 -204t114 -163t168 -65z" />
<glyph unicode="&#xf6;" horiz-adv-x="870" d="M289 985q-37 0 -59.5 21t-22.5 57t22.5 57t59.5 21q38 0 59 -20.5t21 -57.5t-21 -57.5t-59 -20.5zM594 985q-38 0 -60 20.5t-22 57.5t22 57.5t60 20.5q37 0 57.5 -20.5t20.5 -57.5t-20.5 -57.5t-57.5 -20.5zM410 -29q-155 0 -249.5 112t-94.5 286q0 192 112.5 320 t286.5 128q149 0 245.5 -101.5t96.5 -287.5q0 -207 -116.5 -332t-280.5 -125zM471 23q107 0 179.5 85.5t72.5 233.5q0 108 -37 204.5t-110 159t-166 62.5q-110 0 -185 -84.5t-75 -228.5q0 -106 39 -204t114 -163t168 -65z" />
<glyph unicode="&#xf7;" horiz-adv-x="815" d="M412 655q-37 0 -59.5 21.5t-22.5 58.5q0 35 22.5 55.5t59.5 20.5q38 0 59 -20t21 -56q0 -37 -21 -58.5t-59 -21.5zM70 350q-6 0 -8 19t-0.5 38t6.5 19h677q9 0 9 -38t-9 -38h-675zM412 -23q-37 0 -59.5 21.5t-22.5 58.5q0 35 22.5 55.5t59.5 20.5q38 0 59 -20t21 -56 q0 -37 -21 -58.5t-59 -21.5z" />
<glyph unicode="&#xf8;" horiz-adv-x="870" d="M711 717q96 -107 96 -289q0 -207 -116.5 -332t-280.5 -125q-134 0 -224 84l-67 -84q-2 -4 -11 1.5t-16 14t-4 13.5l70 86q-92 112 -92 283q0 192 112.5 320t286.5 128q125 0 215 -72l55 70q4 3 13.5 -1t16.5 -11t3 -12zM150 455q0 -153 77 -279l389 490q-89 102 -206 102 q-110 0 -185 -84.5t-75 -228.5zM471 23q107 0 179.5 85.5t72.5 233.5q0 165 -82 289l-389 -490q90 -118 219 -118z" />
<glyph unicode="&#xf9;" horiz-adv-x="1017" d="M498 973l-170 516q-4 14 42 3q53 -13 58 -26l86 -491q1 -3 -3 -5t-8.5 -1.5t-4.5 4.5zM1004 158q6 6 16.5 -2.5t7.5 -14.5q-65 -83 -112.5 -121t-98.5 -38q-108 0 -108 151v320q-37 -225 -128.5 -352.5t-222.5 -127.5q-56 0 -92.5 23.5t-53 66t-21.5 84.5t-3 97l11 364 q1 62 -16 93.5t-46 31.5q-45 0 -137 -102q-7 -7 -17.5 0.5t-5.5 15.5q124 162 222 162q99 0 96 -154l-12 -372q-6 -240 129 -240q127 0 210.5 200.5t86.5 534.5q0 12 14.5 20.5t38.5 8.5q46 0 49 -12q0 -2 -1 -26t-2 -61t-1 -69l-2 -457q0 -64 13.5 -94.5t45.5 -30.5 q52 0 140 101z" />
<glyph unicode="&#xfa;" horiz-adv-x="1017" d="M475 969q-3 -4 -8.5 -3.5t-11 3.5t-4.5 6l116 491q3 13 59 26q50 10 46 -3zM1004 158q6 6 16.5 -2.5t7.5 -14.5q-65 -83 -112.5 -121t-98.5 -38q-108 0 -108 151v320q-37 -225 -128.5 -352.5t-222.5 -127.5q-56 0 -92.5 23.5t-53 66t-21.5 84.5t-3 97l11 364 q1 62 -16 93.5t-46 31.5q-45 0 -137 -102q-7 -7 -17.5 0.5t-5.5 15.5q124 162 222 162q99 0 96 -154l-12 -372q-6 -240 129 -240q127 0 210.5 200.5t86.5 534.5q0 12 14.5 20.5t38.5 8.5q46 0 49 -12q0 -2 -1 -26t-2 -61t-1 -69l-2 -457q0 -64 13.5 -94.5t45.5 -30.5 q52 0 140 101z" />
<glyph unicode="&#xfb;" horiz-adv-x="1017" d="M383 971q-1 -6 -13 -2.5t-12 8.5l121 510q1 11 19 11t20 -11l117 -510q1 -2 -4 -4q-15 -4 -21 2l-114 340zM1004 158q6 6 16.5 -2.5t7.5 -14.5q-65 -83 -112.5 -121t-98.5 -38q-108 0 -108 151v320q-37 -225 -128.5 -352.5t-222.5 -127.5q-56 0 -92.5 23.5t-53 66 t-21.5 84.5t-3 97l11 364q1 62 -16 93.5t-46 31.5q-45 0 -137 -102q-7 -7 -17.5 0.5t-5.5 15.5q124 162 222 162q99 0 96 -154l-12 -372q-6 -240 129 -240q127 0 210.5 200.5t86.5 534.5q0 12 14.5 20.5t38.5 8.5q46 0 49 -12q0 -2 -1 -26t-2 -61t-1 -69l-2 -457 q0 -64 13.5 -94.5t45.5 -30.5q52 0 140 101z" />
<glyph unicode="&#xfc;" horiz-adv-x="1017" d="M340 985q-37 0 -59.5 21t-22.5 57t22.5 57t59.5 21q38 0 59 -20.5t21 -57.5t-21 -57.5t-59 -20.5zM645 985q-38 0 -60 20.5t-22 57.5t22 57.5t60 20.5q37 0 57.5 -20.5t20.5 -57.5t-20.5 -57.5t-57.5 -20.5zM1004 158q6 6 16.5 -2.5t7.5 -14.5q-65 -83 -112.5 -121 t-98.5 -38q-108 0 -108 151v320q-37 -225 -128.5 -352.5t-222.5 -127.5q-56 0 -92.5 23.5t-53 66t-21.5 84.5t-3 97l11 364q1 62 -16 93.5t-46 31.5q-45 0 -137 -102q-7 -7 -17.5 0.5t-5.5 15.5q124 162 222 162q99 0 96 -154l-12 -372q-6 -240 129 -240q127 0 210.5 200.5 t86.5 534.5q0 12 14.5 20.5t38.5 8.5q46 0 49 -12q0 -2 -1 -26t-2 -61t-1 -69l-2 -457q0 -64 13.5 -94.5t45.5 -30.5q52 0 140 101z" />
<glyph unicode="&#xfd;" d="M469 969q-3 -4 -9 -3.5t-11.5 3.5t-4.5 6l117 491q3 13 59 26q50 10 46 -3zM758 807q46 0 49 -12q0 -2 -1 -26t-2 -61t-1 -69l-6 -782q-2 -192 -98.5 -312t-264.5 -120q-105 0 -175.5 44.5t-70.5 108.5q0 30 15 43.5t35 13.5t38.5 -17t36 -41.5t39.5 -49.5t61.5 -42 t90.5 -17q35 0 63 8t55 31t45 60t28.5 98t9.5 142l-3 637q-37 -220 -127.5 -345.5t-220.5 -125.5q-183 0 -172 271l13 364q1 62 -16 93.5t-48 31.5q-47 0 -135 -102q-7 -7 -17.5 0.5t-5.5 15.5q62 81 115 121.5t107 40.5q99 0 96 -154l-12 -372q-4 -121 30 -180.5t99 -59.5 q125 0 209 197t88 524v14q0 13 14 21t39 8z" />
<glyph unicode="&#xfe;" horiz-adv-x="890" d="M371 -2q-51 0 -119 6v-369q0 -85 31.5 -110.5t126.5 -13.5q7 3 11 -8q4 -13 -7 -15l-369 -51q-4 -1 -7 4.5t-2.5 12t5.5 7.5q74 10 91.5 36.5t19.5 123.5l8 977q-16 -13 -48 -39.5t-44 -36.5q-4 -2 -10 2t-9.5 9.5t-1.5 7.5q67 64 113 100l6 643q0 140 -176 55 q-10 -5 -17 9q-6 11 4 14l252 123q7 3 17 -4.5t10 -12.5l-2 -761q156 98 297 98q126 0 195 -78t69 -227q0 -140 -53 -253.5t-155 -181t-236 -67.5zM485 737q-110 0 -231 -73l-2 -574q93 -35 176 -35q82 0 140.5 28t91 80.5t47 118.5t14.5 152q0 303 -236 303z" />
<glyph unicode="&#xff;" d="M334 985q-37 0 -59.5 21t-22.5 57t22.5 57t59.5 21q38 0 59 -20.5t21 -57.5t-21 -57.5t-59 -20.5zM639 985q-38 0 -60 20.5t-22 57.5t22 57.5t60 20.5q37 0 57.5 -20.5t20.5 -57.5t-20.5 -57.5t-57.5 -20.5zM758 807q46 0 49 -12q0 -2 -1 -26t-2 -61t-1 -69l-6 -782 q-2 -192 -98.5 -312t-264.5 -120q-105 0 -175.5 44.5t-70.5 108.5q0 30 15 43.5t35 13.5t38.5 -17t36 -41.5t39.5 -49.5t61.5 -42t90.5 -17q35 0 63 8t55 31t45 60t28.5 98t9.5 142l-3 637q-37 -220 -127.5 -345.5t-220.5 -125.5q-183 0 -172 271l13 364q1 62 -16 93.5 t-48 31.5q-47 0 -135 -102q-7 -7 -17.5 0.5t-5.5 15.5q62 81 115 121.5t107 40.5q99 0 96 -154l-12 -372q-4 -121 30 -180.5t99 -59.5q125 0 209 197t88 524v14q0 13 14 21t39 8z" />
<glyph unicode="&#x152;" horiz-adv-x="1808" d="M1710 301q0 4 7 5t14 -1.5t6 -7.5q-15 -108 -15 -266q0 -17 -6.5 -24t-23.5 -7h-594q-48 0 -145.5 -4t-131.5 -4q-214 0 -381.5 82.5t-258.5 224.5t-91 317q0 120 37 226.5t102.5 186t153.5 138t193 88t217 29.5q35 0 139 -2t153 -2h568q16 0 16 -18l8 -250 q0 -7 -13 -6.5t-13 6.5q-1 106 -55.5 172.5t-139.5 66.5h-143q-109 0 -140.5 -25.5t-31.5 -113.5v-426h268q87 0 120 31.5t30 109.5q0 5 6.5 7t12.5 0t5 -7v-161q0 -29 2 -90t2 -97q0 -9 -11 -9t-11 9q0 93 -36.5 130.5t-129.5 37.5h-258v-473q0 -61 12.5 -88t47.5 -38 t112 -11h200q75 0 129 73.5t68 190.5zM801 18q130 0 179.5 28.5t49.5 121.5l-4 919q0 63 -15.5 97.5t-63 53.5t-136.5 19q-172 0 -302.5 -67.5t-206 -203.5t-75.5 -324q0 -180 69.5 -326t201.5 -232t303 -86z" />
<glyph unicode="&#x153;" horiz-adv-x="1355" d="M1331 109q6 3 13.5 -5t1.5 -14q-137 -115 -299 -115q-115 0 -195.5 56.5t-120.5 150.5q-50 -99 -140 -155t-192 -56q-150 0 -241.5 116.5t-91.5 289.5q0 190 111 315t286 125q230 0 293 -229q57 103 151 166t211 63q79 0 122.5 -29.5t41.5 -80.5q-3 -49 -51 -94.5 t-121.5 -79t-152.5 -56.5t-154 -35q-3 -177 80 -289t227 -112q133 0 221 68zM469 23q97 0 163.5 74t67.5 202q-4 46 -4 66v14q-6 73 -25.5 138.5t-52.5 123.5t-88 92.5t-124 34.5q-115 0 -185.5 -86.5t-70.5 -220.5q0 -101 38.5 -200.5t113.5 -168.5t167 -69zM1036 762 q-117 0 -172.5 -79.5t-60.5 -209.5q60 8 103 16t92 23t80 34t53 49.5t24 68.5q4 53 -27.5 75.5t-91.5 22.5z" />
<glyph unicode="&#x178;" horiz-adv-x="1163" d="M438 1475q-37 0 -59.5 20.5t-22.5 56.5t22.5 57t59.5 21q38 0 59 -20.5t21 -57.5t-21 -57t-59 -20zM743 1475q-38 0 -59.5 20t-21.5 57t21.5 57.5t59.5 20.5q37 0 57.5 -20.5t20.5 -57.5t-20.5 -57t-57.5 -20zM1171 1280q7 0 7 -12.5t-7 -12.5q-144 0 -258 -184 l-272 -438v-467q3 -91 32 -116t136 -25q9 0 9 -12.5t-9 -12.5q-26 0 -99.5 2t-119.5 2q-49 0 -125 -2t-103 -2q-8 0 -8 12.5t8 12.5q109 0 142 26t33 115l-2 448l-328 496q-52 80 -99 112.5t-116 32.5q-6 0 -6 12.5t6 12.5q23 0 70.5 -3t68.5 -3q55 0 141 3t113 3 q9 0 9 -12.5t-9 -12.5q-78 0 -97 -18.5t13 -62.5l326 -504l239 403q107 182 -59 182q-7 0 -7 12.5t7 12.5q31 0 96 -3t117 -3q32 0 78 3t73 3z" />
<glyph unicode="&#x2c6;" horiz-adv-x="489" d="M274 1489l119 -510q1 -4 -4.5 -6t-11.5 -1t-6 5l-115 340l-115 -346q0 -1 -1.5 -1.5t-4 -0.5t-5 0.5t-5 1.5t-4.5 2t-3 2.5t-1 3.5l121 510q2 11 18 11t18 -11z" />
<glyph unicode="&#x2dc;" horiz-adv-x="559" d="M31 987q-1 -2 -5.5 0t-8.5 6t-3 8q73 117 154 117q32 0 121 -24.5t145 -24.5q24 0 42.5 9t27.5 19t20 27q2 2 7.5 -0.5t9 -6.5t0.5 -7q-40 -69 -70.5 -94t-69.5 -25q-45 0 -135 25.5t-143 25.5q-16 0 -28 -2.5t-21.5 -9.5t-14.5 -11.5t-14.5 -16t-13.5 -15.5z" />
<glyph unicode="&#x2000;" horiz-adv-x="841" />
<glyph unicode="&#x2001;" horiz-adv-x="1683" />
<glyph unicode="&#x2002;" horiz-adv-x="841" />
<glyph unicode="&#x2003;" horiz-adv-x="1683" />
<glyph unicode="&#x2004;" horiz-adv-x="561" />
<glyph unicode="&#x2005;" horiz-adv-x="420" />
<glyph unicode="&#x2006;" horiz-adv-x="280" />
<glyph unicode="&#x2007;" horiz-adv-x="280" />
<glyph unicode="&#x2008;" horiz-adv-x="210" />
<glyph unicode="&#x2009;" horiz-adv-x="336" />
<glyph unicode="&#x200a;" horiz-adv-x="93" />
<glyph unicode="&#x2010;" horiz-adv-x="661" d="M66 344q-6 -1 -8.5 20t-1.5 43.5t5 24.5l535 94q6 1 8 -20t0 -43t-8 -23z" />
<glyph unicode="&#x2011;" horiz-adv-x="661" d="M66 344q-6 -1 -8.5 20t-1.5 43.5t5 24.5l535 94q6 1 8 -20t0 -43t-8 -23z" />
<glyph unicode="&#x2012;" horiz-adv-x="661" d="M66 344q-6 -1 -8.5 20t-1.5 43.5t5 24.5l535 94q6 1 8 -20t0 -43t-8 -23z" />
<glyph unicode="&#x2013;" horiz-adv-x="1054" d="M70 350q-6 0 -8 19t-0.5 38t6.5 19h917q9 0 9 -38t-9 -38h-915z" />
<glyph unicode="&#x2014;" horiz-adv-x="1699" d="M70 350q-6 0 -8 19t-0.5 38t6.5 19h1562q9 0 9 -38t-9 -38h-1560z" />
<glyph unicode="&#x2018;" horiz-adv-x="315" d="M188 987q35 0 54.5 -19.5t19.5 -52.5q0 -71 -84 -71q-59 0 -93 44t-34 126q0 79 36 146t106 136q5 4 10.5 2t7 -7t-1.5 -9q-100 -103 -100 -242q0 -54 20 -84q15 31 59 31z" />
<glyph unicode="&#x2019;" horiz-adv-x="315" d="M137 1300q59 0 93 -44t34 -126q0 -79 -35.5 -146t-105.5 -136q-5 -4 -11 -2t-7.5 7t1.5 9q101 104 101 242q0 52 -21 84q-16 -31 -59 -31q-35 0 -54.5 19.5t-19.5 52.5q0 71 84 71z" />
<glyph unicode="&#x201a;" horiz-adv-x="315" d="M137 127q59 0 93 -44t34 -126q0 -80 -35.5 -147.5t-105.5 -135.5q-5 -4 -11 -1.5t-7.5 7.5t1.5 9q101 104 101 241q0 52 -21 84q-15 -30 -59 -30q-35 0 -54.5 19t-19.5 52q0 72 84 72z" />
<glyph unicode="&#x201c;" horiz-adv-x="604" d="M190 987q35 0 54.5 -19.5t19.5 -52.5q0 -71 -84 -71q-59 0 -93 44t-34 126q0 79 36 146t106 136q5 4 10.5 2t7 -7t-1.5 -9q-100 -103 -100 -242q0 -54 20 -84q15 31 59 31zM477 987q35 0 54.5 -19.5t19.5 -52.5q0 -71 -84 -71q-59 0 -93 44t-34 126q0 79 35.5 146 t105.5 136q5 4 11 2t7.5 -7t-1.5 -9q-101 -104 -101 -242q0 -53 21 -84q16 31 59 31z" />
<glyph unicode="&#x201d;" horiz-adv-x="604" d="M137 1300q59 0 93 -44t34 -126q0 -79 -35.5 -146t-105.5 -136q-5 -4 -11 -2t-7.5 7t1.5 9q101 104 101 242q0 52 -21 84q-16 -31 -59 -31q-35 0 -54.5 19.5t-19.5 52.5q0 71 84 71zM424 1300q59 0 93 -44t34 -126q0 -79 -35.5 -146t-105.5 -136q-5 -4 -11 -2t-7.5 7 t1.5 9q101 104 101 242q0 52 -21 84q-15 -31 -59 -31q-35 0 -54.5 19.5t-19.5 52.5q0 71 84 71z" />
<glyph unicode="&#x201e;" horiz-adv-x="604" d="M137 127q59 0 93 -44t34 -126q0 -80 -35.5 -147.5t-105.5 -135.5q-5 -4 -11 -1.5t-7.5 7.5t1.5 9q101 104 101 241q0 52 -21 84q-15 -30 -59 -30q-35 0 -54.5 19t-19.5 52q0 72 84 72zM424 127q59 0 93 -44t34 -126q0 -80 -35.5 -147.5t-105.5 -135.5q-5 -4 -11 -1.5 t-7.5 7.5t1.5 9q101 104 101 241q0 52 -21 84q-15 -30 -59 -30q-35 0 -54.5 19t-19.5 52q0 72 84 72z" />
<glyph unicode="&#x2022;" horiz-adv-x="616" d="M309 319q-80 0 -135 55t-55 134q0 77 55.5 131.5t134.5 54.5q77 0 132 -55t55 -131q0 -79 -55 -134t-132 -55z" />
<glyph unicode="&#x2026;" horiz-adv-x="1357" d="M201 -23q-37 0 -59.5 21.5t-22.5 58.5q0 35 22.5 55.5t59.5 20.5q38 0 59 -20t21 -56q0 -37 -21 -58.5t-59 -21.5zM680 -23q-37 0 -59.5 21.5t-22.5 58.5q0 35 22.5 55.5t59.5 20.5q38 0 59 -20t21 -56q0 -37 -21 -58.5t-59 -21.5zM1159 -23q-37 0 -59.5 21.5t-22.5 58.5 q0 35 22.5 55.5t59.5 20.5q38 0 59 -20t21 -56q0 -37 -21 -58.5t-59 -21.5z" />
<glyph unicode="&#x202f;" horiz-adv-x="336" />
<glyph unicode="&#x2039;" horiz-adv-x="622" d="M481 82l-356 305q-9 9 -9 23.5t9 23.5l356 305q2 3 6.5 2t7.5 -5t1 -7l-267 -317l267 -318q2 -7 -7 -13q-6 -3 -8 1z" />
<glyph unicode="&#x203a;" horiz-adv-x="622" d="M141 739l357 -305q9 -9 9 -23.5t-9 -23.5l-357 -305q-4 -7 -11 1q-5 6 -3 11l266 316l-266 319q-2 5 6 11q6 2 8 -1z" />
<glyph unicode="&#x205f;" horiz-adv-x="420" />
<glyph unicode="&#x20ac;" horiz-adv-x="1202" d="M1087 264q1 6 13 4t12 -8l-29 -192q-3 -18 -7 -24t-21 -13q-163 -56 -330 -56q-119 0 -213.5 34.5t-154.5 93t-96 126t-52 144.5h-96q-13 0 -13 20.5t13 20.5h88q-4 50 -4 69q0 23 2 35h-88q-15 0 -15 20.5t15 20.5h92q29 186 184 305t373 119q198 0 301 -68q10 -6 14 -8 t10 -7t7.5 -9t1.5 -10.5t-4 -14.5l-76 -172q-2 -2 -8 -2t-11.5 4t-3.5 9q27 69 -11 128.5t-112 91t-157 31.5q-157 0 -266 -112t-123 -285h634q13 0 6 -20q-9 -21 -24 -21h-619v-4q0 -50 9 -100h575q14 0 5 -21q-8 -20 -21 -20h-551q35 -160 141 -266.5t268 -106.5 q129 0 219 65.5t123 198.5z" />
<glyph unicode="&#x2122;" horiz-adv-x="1464" d="M582 1311q2 5 13 5t11 -5q-8 -172 -8 -187q0 -4 -11.5 -4t-11.5 4q0 86 -20.5 109.5t-89.5 23.5q-54 0 -71 -15.5t-17 -59.5v-379q0 -45 18.5 -59.5t83.5 -14.5q3 0 3 -12t-3 -12q-17 0 -64.5 1t-78.5 1q-27 0 -74 -1t-65 -1q-3 0 -3 12t3 12q64 0 83 14.5t19 59.5v381 q0 45 -16.5 59t-71.5 14q-70 0 -94 -24t-33 -109q0 -4 -12.5 -4t-12.5 4q13 72 13 181q0 6 12 6.5t12 -6.5q0 -23 56 -23q23 0 85.5 -1t98.5 -1q43 0 95 1t69 1q41 0 59.5 5t22.5 24zM1399 729q3 0 3 -12t-3 -12q-15 0 -58 1t-67 1q-31 0 -77.5 -1t-63.5 -1q-3 0 -3 12t3 12 q70 0 90.5 14.5t17.5 59.5l-12 399l-217 -487q-3 -6 -9.5 -6t-9.5 6l-229 454l-12 -338q-3 -54 13 -78t54 -24q3 0 3 -12t-3 -12q-13 0 -42 1t-48 1q-18 0 -49 -1t-45 -1q-3 0 -3 12t3 12q44 0 62 23.5t20 78.5l12 388q-34 36 -82 36q-5 0 -5 12.5t5 12.5q9 0 31 -2t29 -2 q13 0 31.5 2t21.5 2q16 0 29 -12.5t34 -50.5l199 -400l190 430q4 14 16 23.5t23 9.5q1 0 23 -2t39 -2q19 0 44 2t36 2q3 0 3 -12.5t-3 -12.5q-52 0 -74 -16.5t-21 -67.5l13 -368q2 -45 18 -59.5t70 -14.5z" />
<glyph unicode="&#x25fc;" horiz-adv-x="808" d="M0 809h809v-809h-809v809z" />
</font>
</defs>
</svg>
